<mxfile host="65bd71144e">
    <diagram id="Kz0ywYGAHpizFOXHB_ZU" name="Page-1">
        <mxGraphModel dx="-474" dy="515" grid="1" gridSize="10" guides="1" tooltips="1" connect="1" arrows="1" fold="1" page="1" pageScale="1" pageWidth="827" pageHeight="1169" math="0" shadow="0">
            <root>
                <mxCell id="0"/>
                <mxCell id="1" parent="0"/>
                <mxCell id="60" value="" style="rounded=0;whiteSpace=wrap;html=1;fillColor=#FFFFFF;strokeColor=none;connectable=0;container=1;collapsible=0;recursiveResize=0;movable=0;rotatable=0;cloneable=0;deletable=0;" parent="1" vertex="1">
                    <mxGeometry x="928" y="100" width="1212" height="2940" as="geometry"/>
                </mxCell>
                <mxCell id="118" style="edgeStyle=orthogonalEdgeStyle;shape=connector;rounded=1;html=1;exitX=0.5;exitY=1;exitDx=0;exitDy=0;entryX=0.5;entryY=0;entryDx=0;entryDy=0;labelBackgroundColor=default;fontFamily=Helvetica;fontSize=16;fontColor=#000000;endArrow=blockThin;endFill=1;strokeColor=#000000;strokeWidth=1;" parent="60" source="66" target="116" edge="1">
                    <mxGeometry relative="1" as="geometry"/>
                </mxCell>
                <mxCell id="66" value="&lt;div style=&quot;font-size: 16px&quot;&gt;&lt;div style=&quot;font-size: 16px&quot;&gt;&lt;div style=&quot;font-size: 16px&quot;&gt;&lt;div style=&quot;font-size: 16px&quot;&gt;&lt;div style=&quot;font-size: 16px&quot;&gt;姬弃&lt;/div&gt;&lt;/div&gt;&lt;/div&gt;&lt;/div&gt;&lt;div style=&quot;font-size: 16px&quot;&gt;&lt;/div&gt;&lt;/div&gt;" style="rounded=1;whiteSpace=wrap;html=1;fillColor=#E6E6E6;fontColor=#000000;fontSize=16;strokeColor=none;strokeWidth=2;" parent="60" vertex="1">
                    <mxGeometry x="182" y="40" width="50" height="30" as="geometry"/>
                </mxCell>
                <mxCell id="69" style="edgeStyle=orthogonalEdgeStyle;shape=connector;rounded=1;html=1;exitX=0.5;exitY=1;exitDx=0;exitDy=0;entryX=0.5;entryY=0;entryDx=0;entryDy=0;labelBackgroundColor=default;fontFamily=Helvetica;fontSize=16;fontColor=#000000;endArrow=blockThin;endFill=1;strokeColor=#000000;strokeWidth=1;" parent="60" edge="1">
                    <mxGeometry relative="1" as="geometry">
                        <mxPoint x="307" y="247" as="targetPoint"/>
                    </mxGeometry>
                </mxCell>
                <mxCell id="71" style="edgeStyle=orthogonalEdgeStyle;shape=connector;rounded=1;html=1;exitX=0.5;exitY=1;exitDx=0;exitDy=0;entryX=0.5;entryY=0;entryDx=0;entryDy=0;labelBackgroundColor=default;fontFamily=Helvetica;fontSize=16;fontColor=#000000;endArrow=blockThin;endFill=1;strokeColor=#000000;strokeWidth=1;" parent="60" edge="1">
                    <mxGeometry relative="1" as="geometry">
                        <mxPoint x="307" y="311" as="targetPoint"/>
                    </mxGeometry>
                </mxCell>
                <mxCell id="73" style="edgeStyle=orthogonalEdgeStyle;shape=connector;rounded=1;html=1;exitX=0.5;exitY=1;exitDx=0;exitDy=0;entryX=0.5;entryY=0;entryDx=0;entryDy=0;labelBackgroundColor=default;fontFamily=Helvetica;fontSize=16;fontColor=#000000;endArrow=blockThin;endFill=1;strokeColor=#000000;strokeWidth=1;" parent="60" edge="1">
                    <mxGeometry relative="1" as="geometry">
                        <mxPoint x="307" y="377" as="targetPoint"/>
                    </mxGeometry>
                </mxCell>
                <mxCell id="75" style="edgeStyle=orthogonalEdgeStyle;shape=connector;rounded=1;html=1;exitX=0.5;exitY=1;exitDx=0;exitDy=0;entryX=0.5;entryY=0;entryDx=0;entryDy=0;labelBackgroundColor=default;fontFamily=Helvetica;fontSize=16;fontColor=#000000;endArrow=blockThin;endFill=1;strokeColor=#000000;strokeWidth=1;" parent="60" edge="1">
                    <mxGeometry relative="1" as="geometry">
                        <mxPoint x="307" y="437" as="targetPoint"/>
                    </mxGeometry>
                </mxCell>
                <mxCell id="77" style="edgeStyle=orthogonalEdgeStyle;shape=connector;rounded=1;html=1;exitX=0.5;exitY=1;exitDx=0;exitDy=0;entryX=0.5;entryY=0;entryDx=0;entryDy=0;labelBackgroundColor=default;fontFamily=Helvetica;fontSize=16;fontColor=#000000;endArrow=blockThin;endFill=1;strokeColor=#000000;strokeWidth=1;" parent="60" edge="1">
                    <mxGeometry relative="1" as="geometry">
                        <mxPoint x="307" y="497" as="targetPoint"/>
                    </mxGeometry>
                </mxCell>
                <mxCell id="81" style="edgeStyle=orthogonalEdgeStyle;shape=connector;rounded=1;html=1;exitX=0.5;exitY=1;exitDx=0;exitDy=0;entryX=0.5;entryY=0;entryDx=0;entryDy=0;labelBackgroundColor=default;fontFamily=Helvetica;fontSize=16;fontColor=#000000;endArrow=blockThin;endFill=1;strokeColor=#000000;strokeWidth=1;" parent="60" edge="1">
                    <mxGeometry relative="1" as="geometry">
                        <mxPoint x="252" y="617" as="targetPoint"/>
                    </mxGeometry>
                </mxCell>
                <mxCell id="82" style="edgeStyle=orthogonalEdgeStyle;shape=connector;rounded=1;html=1;exitX=0.5;exitY=1;exitDx=0;exitDy=0;entryX=0.5;entryY=0;entryDx=0;entryDy=0;labelBackgroundColor=default;fontFamily=Helvetica;fontSize=16;fontColor=#000000;endArrow=blockThin;endFill=1;strokeColor=#000000;strokeWidth=1;" parent="60" edge="1">
                    <mxGeometry relative="1" as="geometry">
                        <mxPoint x="362" y="617" as="targetPoint"/>
                    </mxGeometry>
                </mxCell>
                <mxCell id="84" style="edgeStyle=orthogonalEdgeStyle;shape=connector;rounded=1;html=1;exitX=0.5;exitY=1;exitDx=0;exitDy=0;entryX=0.5;entryY=0;entryDx=0;entryDy=0;labelBackgroundColor=default;fontFamily=Helvetica;fontSize=16;fontColor=#000000;endArrow=blockThin;endFill=1;strokeColor=#000000;strokeWidth=1;" parent="60" edge="1">
                    <mxGeometry relative="1" as="geometry">
                        <mxPoint x="252" y="677" as="targetPoint"/>
                    </mxGeometry>
                </mxCell>
                <mxCell id="86" style="edgeStyle=orthogonalEdgeStyle;shape=connector;rounded=1;html=1;exitX=0.5;exitY=1;exitDx=0;exitDy=0;entryX=0.5;entryY=0;entryDx=0;entryDy=0;labelBackgroundColor=default;fontFamily=Helvetica;fontSize=16;fontColor=#000000;endArrow=blockThin;endFill=1;strokeColor=#000000;strokeWidth=1;" parent="60" edge="1">
                    <mxGeometry relative="1" as="geometry">
                        <mxPoint x="362" y="647" as="sourcePoint"/>
                    </mxGeometry>
                </mxCell>
                <mxCell id="89" style="edgeStyle=orthogonalEdgeStyle;shape=connector;rounded=1;html=1;exitX=0.5;exitY=1;exitDx=0;exitDy=0;entryX=0.5;entryY=0;entryDx=0;entryDy=0;labelBackgroundColor=default;fontFamily=Helvetica;fontSize=16;fontColor=#000000;endArrow=blockThin;endFill=1;strokeColor=#000000;strokeWidth=1;" parent="60" edge="1">
                    <mxGeometry relative="1" as="geometry">
                        <mxPoint x="252" y="737" as="targetPoint"/>
                    </mxGeometry>
                </mxCell>
                <mxCell id="92" style="edgeStyle=orthogonalEdgeStyle;shape=connector;rounded=1;html=1;exitX=0.5;exitY=1;exitDx=0;exitDy=0;entryX=0.5;entryY=0;entryDx=0;entryDy=0;labelBackgroundColor=default;fontFamily=Helvetica;fontSize=16;fontColor=#000000;endArrow=blockThin;endFill=1;strokeColor=#000000;strokeWidth=1;" parent="60" edge="1">
                    <mxGeometry relative="1" as="geometry">
                        <mxPoint x="252" y="797" as="targetPoint"/>
                    </mxGeometry>
                </mxCell>
                <mxCell id="94" style="edgeStyle=orthogonalEdgeStyle;shape=connector;rounded=1;html=1;exitX=0.5;exitY=1;exitDx=0;exitDy=0;entryX=0.5;entryY=0;entryDx=0;entryDy=0;labelBackgroundColor=default;fontFamily=Helvetica;fontSize=16;fontColor=#000000;endArrow=blockThin;endFill=1;strokeColor=#000000;strokeWidth=1;" parent="60" edge="1">
                    <mxGeometry relative="1" as="geometry">
                        <mxPoint x="252" y="857" as="targetPoint"/>
                    </mxGeometry>
                </mxCell>
                <mxCell id="120" style="edgeStyle=orthogonalEdgeStyle;shape=connector;rounded=1;html=1;exitX=0.5;exitY=1;exitDx=0;exitDy=0;entryX=0.5;entryY=0;entryDx=0;entryDy=0;labelBackgroundColor=default;fontFamily=Helvetica;fontSize=16;fontColor=#000000;endArrow=blockThin;endFill=1;strokeColor=#000000;strokeWidth=1;" parent="60" source="116" target="119" edge="1">
                    <mxGeometry relative="1" as="geometry"/>
                </mxCell>
                <mxCell id="116" value="&lt;div style=&quot;font-size: 16px&quot;&gt;&lt;div style=&quot;font-size: 16px&quot;&gt;&lt;div style=&quot;font-size: 16px&quot;&gt;&lt;div style=&quot;font-size: 16px&quot;&gt;&lt;div style=&quot;font-size: 16px&quot;&gt;姬不窋&lt;br&gt;&lt;/div&gt;&lt;/div&gt;&lt;/div&gt;&lt;/div&gt;&lt;div style=&quot;font-size: 16px&quot;&gt;&lt;/div&gt;&lt;/div&gt;" style="rounded=1;whiteSpace=wrap;html=1;fillColor=#E6E6E6;fontColor=#000000;fontSize=16;strokeColor=none;strokeWidth=2;" parent="60" vertex="1">
                    <mxGeometry x="177" y="100" width="60" height="30" as="geometry"/>
                </mxCell>
                <mxCell id="122" style="edgeStyle=orthogonalEdgeStyle;shape=connector;rounded=1;html=1;exitX=0.5;exitY=1;exitDx=0;exitDy=0;entryX=0.5;entryY=0;entryDx=0;entryDy=0;labelBackgroundColor=default;fontFamily=Helvetica;fontSize=16;fontColor=#000000;endArrow=blockThin;endFill=1;strokeColor=#000000;strokeWidth=1;" parent="60" source="119" target="121" edge="1">
                    <mxGeometry relative="1" as="geometry"/>
                </mxCell>
                <mxCell id="119" value="&lt;div style=&quot;font-size: 16px&quot;&gt;&lt;div style=&quot;font-size: 16px&quot;&gt;&lt;div style=&quot;font-size: 16px&quot;&gt;&lt;div style=&quot;font-size: 16px&quot;&gt;&lt;div style=&quot;font-size: 16px&quot;&gt;姬鞠&lt;br&gt;&lt;/div&gt;&lt;/div&gt;&lt;/div&gt;&lt;/div&gt;&lt;div style=&quot;font-size: 16px&quot;&gt;&lt;/div&gt;&lt;/div&gt;" style="rounded=1;whiteSpace=wrap;html=1;fillColor=#E6E6E6;fontColor=#000000;fontSize=16;strokeColor=none;strokeWidth=2;" parent="60" vertex="1">
                    <mxGeometry x="182" y="160" width="50" height="30" as="geometry"/>
                </mxCell>
                <mxCell id="124" style="edgeStyle=orthogonalEdgeStyle;shape=connector;rounded=1;html=1;exitX=0.5;exitY=1;exitDx=0;exitDy=0;entryX=0.5;entryY=0;entryDx=0;entryDy=0;labelBackgroundColor=default;fontFamily=Helvetica;fontSize=16;fontColor=#000000;endArrow=blockThin;endFill=1;strokeColor=#000000;strokeWidth=1;" parent="60" source="121" target="123" edge="1">
                    <mxGeometry relative="1" as="geometry"/>
                </mxCell>
                <mxCell id="121" value="&lt;div style=&quot;font-size: 16px&quot;&gt;&lt;div style=&quot;font-size: 16px&quot;&gt;&lt;div style=&quot;font-size: 16px&quot;&gt;&lt;div style=&quot;font-size: 16px&quot;&gt;&lt;div style=&quot;font-size: 16px&quot;&gt;姬公刘&lt;br&gt;&lt;/div&gt;&lt;/div&gt;&lt;/div&gt;&lt;/div&gt;&lt;div style=&quot;font-size: 16px&quot;&gt;&lt;/div&gt;&lt;/div&gt;" style="rounded=1;whiteSpace=wrap;html=1;fillColor=#E6E6E6;fontColor=#000000;fontSize=16;strokeColor=none;strokeWidth=2;" parent="60" vertex="1">
                    <mxGeometry x="177" y="220" width="60" height="30" as="geometry"/>
                </mxCell>
                <mxCell id="126" style="edgeStyle=orthogonalEdgeStyle;shape=connector;rounded=1;html=1;exitX=0.5;exitY=1;exitDx=0;exitDy=0;labelBackgroundColor=default;fontFamily=Helvetica;fontSize=16;fontColor=#000000;endArrow=blockThin;endFill=1;strokeColor=#000000;strokeWidth=1;" parent="60" source="123" target="125" edge="1">
                    <mxGeometry relative="1" as="geometry"/>
                </mxCell>
                <mxCell id="123" value="&lt;div style=&quot;font-size: 16px&quot;&gt;&lt;div style=&quot;font-size: 16px&quot;&gt;&lt;div style=&quot;font-size: 16px&quot;&gt;&lt;div style=&quot;font-size: 16px&quot;&gt;&lt;div style=&quot;font-size: 16px&quot;&gt;姬庆节&lt;br&gt;&lt;/div&gt;&lt;/div&gt;&lt;/div&gt;&lt;/div&gt;&lt;div style=&quot;font-size: 16px&quot;&gt;&lt;/div&gt;&lt;/div&gt;" style="rounded=1;whiteSpace=wrap;html=1;fillColor=#E6E6E6;fontColor=#000000;fontSize=16;strokeColor=none;strokeWidth=2;" parent="60" vertex="1">
                    <mxGeometry x="177" y="280" width="60" height="30" as="geometry"/>
                </mxCell>
                <mxCell id="128" style="edgeStyle=orthogonalEdgeStyle;shape=connector;rounded=1;html=1;exitX=0.5;exitY=1;exitDx=0;exitDy=0;entryX=0.5;entryY=0;entryDx=0;entryDy=0;labelBackgroundColor=default;fontFamily=Helvetica;fontSize=16;fontColor=#000000;endArrow=blockThin;endFill=1;strokeColor=#000000;strokeWidth=1;" parent="60" source="125" target="127" edge="1">
                    <mxGeometry relative="1" as="geometry"/>
                </mxCell>
                <mxCell id="125" value="&lt;div style=&quot;font-size: 16px&quot;&gt;&lt;div style=&quot;font-size: 16px&quot;&gt;&lt;div style=&quot;font-size: 16px&quot;&gt;&lt;div style=&quot;font-size: 16px&quot;&gt;&lt;div style=&quot;font-size: 16px&quot;&gt;姬皇仆&lt;br&gt;&lt;/div&gt;&lt;/div&gt;&lt;/div&gt;&lt;/div&gt;&lt;div style=&quot;font-size: 16px&quot;&gt;&lt;/div&gt;&lt;/div&gt;" style="rounded=1;whiteSpace=wrap;html=1;fillColor=#E6E6E6;fontColor=#000000;fontSize=16;strokeColor=none;strokeWidth=2;" parent="60" vertex="1">
                    <mxGeometry x="177" y="340" width="60" height="30" as="geometry"/>
                </mxCell>
                <mxCell id="130" style="edgeStyle=orthogonalEdgeStyle;shape=connector;rounded=1;html=1;exitX=0.5;exitY=1;exitDx=0;exitDy=0;entryX=0.5;entryY=0;entryDx=0;entryDy=0;labelBackgroundColor=default;fontFamily=Helvetica;fontSize=16;fontColor=#000000;endArrow=blockThin;endFill=1;strokeColor=#000000;strokeWidth=1;" parent="60" source="127" target="129" edge="1">
                    <mxGeometry relative="1" as="geometry"/>
                </mxCell>
                <mxCell id="127" value="&lt;div style=&quot;font-size: 16px&quot;&gt;&lt;div style=&quot;font-size: 16px&quot;&gt;&lt;div style=&quot;font-size: 16px&quot;&gt;&lt;div style=&quot;font-size: 16px&quot;&gt;&lt;div style=&quot;font-size: 16px&quot;&gt;姬差弗&lt;br&gt;&lt;/div&gt;&lt;/div&gt;&lt;/div&gt;&lt;/div&gt;&lt;div style=&quot;font-size: 16px&quot;&gt;&lt;/div&gt;&lt;/div&gt;" style="rounded=1;whiteSpace=wrap;html=1;fillColor=#E6E6E6;fontColor=#000000;fontSize=16;strokeColor=none;strokeWidth=2;" parent="60" vertex="1">
                    <mxGeometry x="177" y="400" width="60" height="30" as="geometry"/>
                </mxCell>
                <mxCell id="133" style="edgeStyle=orthogonalEdgeStyle;shape=connector;rounded=1;html=1;exitX=0.5;exitY=1;exitDx=0;exitDy=0;labelBackgroundColor=default;fontFamily=Helvetica;fontSize=16;fontColor=#000000;endArrow=blockThin;endFill=1;strokeColor=#000000;strokeWidth=1;" parent="60" source="129" target="132" edge="1">
                    <mxGeometry relative="1" as="geometry"/>
                </mxCell>
                <mxCell id="129" value="&lt;div style=&quot;font-size: 16px&quot;&gt;&lt;div style=&quot;font-size: 16px&quot;&gt;&lt;div style=&quot;font-size: 16px&quot;&gt;&lt;div style=&quot;font-size: 16px&quot;&gt;&lt;div style=&quot;font-size: 16px&quot;&gt;姬毁隃&lt;br&gt;&lt;/div&gt;&lt;/div&gt;&lt;/div&gt;&lt;/div&gt;&lt;div style=&quot;font-size: 16px&quot;&gt;&lt;/div&gt;&lt;/div&gt;" style="rounded=1;whiteSpace=wrap;html=1;fillColor=#E6E6E6;fontColor=#000000;fontSize=16;strokeColor=none;strokeWidth=2;" parent="60" vertex="1">
                    <mxGeometry x="177" y="460" width="60" height="30" as="geometry"/>
                </mxCell>
                <mxCell id="135" style="edgeStyle=orthogonalEdgeStyle;shape=connector;rounded=1;html=1;exitX=0.5;exitY=1;exitDx=0;exitDy=0;entryX=0.5;entryY=0;entryDx=0;entryDy=0;labelBackgroundColor=default;fontFamily=Helvetica;fontSize=16;fontColor=#000000;endArrow=blockThin;endFill=1;strokeColor=#000000;strokeWidth=1;" parent="60" source="132" target="134" edge="1">
                    <mxGeometry relative="1" as="geometry"/>
                </mxCell>
                <mxCell id="132" value="&lt;div style=&quot;font-size: 16px&quot;&gt;&lt;div style=&quot;font-size: 16px&quot;&gt;&lt;div style=&quot;font-size: 16px&quot;&gt;&lt;div style=&quot;font-size: 16px&quot;&gt;&lt;div style=&quot;font-size: 16px&quot;&gt;姬公非&lt;br&gt;&lt;/div&gt;&lt;/div&gt;&lt;/div&gt;&lt;/div&gt;&lt;div style=&quot;font-size: 16px&quot;&gt;&lt;/div&gt;&lt;/div&gt;" style="rounded=1;whiteSpace=wrap;html=1;fillColor=#E6E6E6;fontColor=#000000;fontSize=16;strokeColor=none;strokeWidth=2;" parent="60" vertex="1">
                    <mxGeometry x="177" y="520" width="60" height="30" as="geometry"/>
                </mxCell>
                <mxCell id="137" style="edgeStyle=orthogonalEdgeStyle;shape=connector;rounded=1;html=1;exitX=0.5;exitY=1;exitDx=0;exitDy=0;entryX=0.5;entryY=0;entryDx=0;entryDy=0;labelBackgroundColor=default;fontFamily=Helvetica;fontSize=16;fontColor=#000000;endArrow=blockThin;endFill=1;strokeColor=#000000;strokeWidth=1;" parent="60" source="134" target="136" edge="1">
                    <mxGeometry relative="1" as="geometry"/>
                </mxCell>
                <mxCell id="134" value="&lt;div style=&quot;font-size: 16px&quot;&gt;&lt;div style=&quot;font-size: 16px&quot;&gt;&lt;div style=&quot;font-size: 16px&quot;&gt;&lt;div style=&quot;font-size: 16px&quot;&gt;&lt;div style=&quot;font-size: 16px&quot;&gt;姬高圉&lt;br&gt;&lt;/div&gt;&lt;/div&gt;&lt;/div&gt;&lt;/div&gt;&lt;div style=&quot;font-size: 16px&quot;&gt;&lt;/div&gt;&lt;/div&gt;" style="rounded=1;whiteSpace=wrap;html=1;fillColor=#E6E6E6;fontColor=#000000;fontSize=16;strokeColor=none;strokeWidth=2;" parent="60" vertex="1">
                    <mxGeometry x="177" y="580" width="60" height="30" as="geometry"/>
                </mxCell>
                <mxCell id="139" style="edgeStyle=orthogonalEdgeStyle;shape=connector;rounded=1;html=1;exitX=0.5;exitY=1;exitDx=0;exitDy=0;entryX=0.5;entryY=0;entryDx=0;entryDy=0;labelBackgroundColor=default;fontFamily=Helvetica;fontSize=16;fontColor=#000000;endArrow=blockThin;endFill=1;strokeColor=#000000;strokeWidth=1;" parent="60" source="136" target="138" edge="1">
                    <mxGeometry relative="1" as="geometry"/>
                </mxCell>
                <mxCell id="136" value="&lt;div style=&quot;font-size: 16px&quot;&gt;&lt;div style=&quot;font-size: 16px&quot;&gt;&lt;div style=&quot;font-size: 16px&quot;&gt;&lt;div style=&quot;font-size: 16px&quot;&gt;&lt;div style=&quot;font-size: 16px&quot;&gt;姬亚圉&lt;br&gt;&lt;/div&gt;&lt;/div&gt;&lt;/div&gt;&lt;/div&gt;&lt;div style=&quot;font-size: 16px&quot;&gt;&lt;/div&gt;&lt;/div&gt;" style="rounded=1;whiteSpace=wrap;html=1;fillColor=#E6E6E6;fontColor=#000000;fontSize=16;strokeColor=none;strokeWidth=2;" parent="60" vertex="1">
                    <mxGeometry x="177" y="640" width="60" height="30" as="geometry"/>
                </mxCell>
                <mxCell id="141" style="edgeStyle=orthogonalEdgeStyle;shape=connector;rounded=1;html=1;exitX=0.5;exitY=1;exitDx=0;exitDy=0;entryX=0.5;entryY=0;entryDx=0;entryDy=0;labelBackgroundColor=default;fontFamily=Helvetica;fontSize=16;fontColor=#000000;endArrow=blockThin;endFill=1;strokeColor=#000000;strokeWidth=1;" parent="60" source="138" target="140" edge="1">
                    <mxGeometry relative="1" as="geometry"/>
                </mxCell>
                <mxCell id="138" value="&lt;div style=&quot;font-size: 16px&quot;&gt;&lt;div style=&quot;font-size: 16px&quot;&gt;&lt;div style=&quot;font-size: 16px&quot;&gt;&lt;div style=&quot;font-size: 16px&quot;&gt;&lt;div style=&quot;font-size: 16px&quot;&gt;公叔祖类&lt;/div&gt;&lt;/div&gt;&lt;/div&gt;&lt;/div&gt;&lt;div style=&quot;font-size: 16px&quot;&gt;&lt;/div&gt;&lt;/div&gt;" style="rounded=1;whiteSpace=wrap;html=1;fillColor=#E6E6E6;fontColor=#000000;fontSize=16;strokeColor=none;strokeWidth=2;" parent="60" vertex="1">
                    <mxGeometry x="172" y="700" width="70" height="30" as="geometry"/>
                </mxCell>
                <mxCell id="257" style="edgeStyle=orthogonalEdgeStyle;shape=connector;rounded=1;html=1;exitX=0.5;exitY=1;exitDx=0;exitDy=0;entryX=0.5;entryY=0;entryDx=0;entryDy=0;labelBackgroundColor=default;fontFamily=Helvetica;fontSize=16;fontColor=#000000;endArrow=blockThin;endFill=1;strokeColor=#000000;strokeWidth=1;" parent="60" source="140" target="252" edge="1">
                    <mxGeometry relative="1" as="geometry">
                        <Array as="points">
                            <mxPoint x="207" y="800"/>
                            <mxPoint x="127" y="800"/>
                        </Array>
                    </mxGeometry>
                </mxCell>
                <mxCell id="258" style="edgeStyle=orthogonalEdgeStyle;shape=connector;rounded=1;html=1;exitX=0.5;exitY=1;exitDx=0;exitDy=0;entryX=0.5;entryY=0;entryDx=0;entryDy=0;labelBackgroundColor=default;fontFamily=Helvetica;fontSize=16;fontColor=#000000;endArrow=blockThin;endFill=1;strokeColor=#000000;strokeWidth=1;" parent="60" source="140" target="254" edge="1">
                    <mxGeometry relative="1" as="geometry"/>
                </mxCell>
                <mxCell id="259" style="edgeStyle=orthogonalEdgeStyle;shape=connector;rounded=1;html=1;exitX=0.5;exitY=1;exitDx=0;exitDy=0;entryX=0.5;entryY=0;entryDx=0;entryDy=0;labelBackgroundColor=default;fontFamily=Helvetica;fontSize=16;fontColor=#000000;endArrow=blockThin;endFill=1;strokeColor=#000000;strokeWidth=1;" parent="60" source="140" target="255" edge="1">
                    <mxGeometry relative="1" as="geometry">
                        <Array as="points">
                            <mxPoint x="207" y="800"/>
                            <mxPoint x="287" y="800"/>
                        </Array>
                    </mxGeometry>
                </mxCell>
                <mxCell id="140" value="&lt;div style=&quot;font-size: 16px&quot;&gt;&lt;div style=&quot;font-size: 16px&quot;&gt;&lt;div style=&quot;font-size: 16px&quot;&gt;&lt;div style=&quot;font-size: 16px&quot;&gt;&lt;div style=&quot;font-size: 16px&quot;&gt;古公亶父&lt;br&gt;&lt;/div&gt;&lt;/div&gt;&lt;/div&gt;&lt;/div&gt;&lt;div style=&quot;font-size: 16px&quot;&gt;&lt;/div&gt;&lt;/div&gt;" style="rounded=1;whiteSpace=wrap;html=1;fillColor=#E6E6E6;fontColor=#000000;fontSize=16;strokeColor=none;strokeWidth=2;" parent="60" vertex="1">
                    <mxGeometry x="172" y="760" width="70" height="30" as="geometry"/>
                </mxCell>
                <mxCell id="148" style="edgeStyle=orthogonalEdgeStyle;shape=connector;rounded=1;html=1;exitX=0.5;exitY=1;exitDx=0;exitDy=0;entryX=0.5;entryY=0;entryDx=0;entryDy=0;labelBackgroundColor=default;fontFamily=Helvetica;fontSize=16;fontColor=#000000;endArrow=blockThin;endFill=1;strokeColor=#000000;strokeWidth=1;" parent="60" edge="1">
                    <mxGeometry relative="1" as="geometry">
                        <mxPoint x="200.5" y="890" as="targetPoint"/>
                    </mxGeometry>
                </mxCell>
                <mxCell id="149" style="edgeStyle=orthogonalEdgeStyle;shape=connector;rounded=1;html=1;exitX=0.5;exitY=1;exitDx=0;exitDy=0;entryX=0.5;entryY=0;entryDx=0;entryDy=0;labelBackgroundColor=default;fontFamily=Helvetica;fontSize=16;fontColor=#000000;endArrow=blockThin;endFill=1;strokeColor=#000000;strokeWidth=1;" parent="60" edge="1">
                    <mxGeometry relative="1" as="geometry">
                        <mxPoint x="292" y="890" as="targetPoint"/>
                    </mxGeometry>
                </mxCell>
                <mxCell id="152" style="edgeStyle=orthogonalEdgeStyle;shape=connector;rounded=1;html=1;exitX=0.5;exitY=1;exitDx=0;exitDy=0;entryX=0.5;entryY=0;entryDx=0;entryDy=0;labelBackgroundColor=default;fontFamily=Helvetica;fontSize=16;fontColor=#000000;endArrow=blockThin;endFill=1;strokeColor=#000000;strokeWidth=1;" parent="60" edge="1">
                    <mxGeometry relative="1" as="geometry">
                        <mxPoint x="381" y="890" as="targetPoint"/>
                    </mxGeometry>
                </mxCell>
                <mxCell id="156" style="edgeStyle=orthogonalEdgeStyle;shape=connector;rounded=1;html=1;exitX=0.5;exitY=1;exitDx=0;exitDy=0;entryX=0.5;entryY=0;entryDx=0;entryDy=0;labelBackgroundColor=default;fontFamily=Helvetica;fontSize=16;fontColor=#000000;endArrow=blockThin;endFill=1;strokeColor=#000000;strokeWidth=1;" parent="60" edge="1">
                    <mxGeometry relative="1" as="geometry">
                        <mxPoint x="200.5" y="950" as="targetPoint"/>
                    </mxGeometry>
                </mxCell>
                <mxCell id="167" style="edgeStyle=orthogonalEdgeStyle;shape=connector;rounded=1;html=1;exitX=0.5;exitY=1;exitDx=0;exitDy=0;entryX=0.5;entryY=0;entryDx=0;entryDy=0;labelBackgroundColor=default;fontFamily=Helvetica;fontSize=16;fontColor=#000000;endArrow=blockThin;endFill=1;strokeColor=#000000;strokeWidth=1;" parent="60" edge="1">
                    <mxGeometry relative="1" as="geometry">
                        <mxPoint x="246.5" y="1040" as="sourcePoint"/>
                    </mxGeometry>
                </mxCell>
                <mxCell id="170" style="edgeStyle=orthogonalEdgeStyle;shape=connector;rounded=1;html=1;exitX=0.5;exitY=1;exitDx=0;exitDy=0;entryX=0.5;entryY=0;entryDx=0;entryDy=0;labelBackgroundColor=default;fontFamily=Helvetica;fontSize=16;fontColor=#000000;endArrow=blockThin;endFill=1;strokeColor=#000000;strokeWidth=1;" parent="60" edge="1">
                    <mxGeometry relative="1" as="geometry">
                        <mxPoint x="246.5" y="1040" as="sourcePoint"/>
                    </mxGeometry>
                </mxCell>
                <mxCell id="173" style="edgeStyle=orthogonalEdgeStyle;shape=connector;rounded=1;html=1;exitX=0.5;exitY=1;exitDx=0;exitDy=0;entryX=0.5;entryY=0;entryDx=0;entryDy=0;labelBackgroundColor=default;fontFamily=Helvetica;fontSize=16;fontColor=#000000;endArrow=blockThin;endFill=1;strokeColor=#000000;strokeWidth=1;" parent="60" edge="1">
                    <mxGeometry relative="1" as="geometry">
                        <mxPoint x="246.5" y="1040" as="sourcePoint"/>
                    </mxGeometry>
                </mxCell>
                <mxCell id="177" style="edgeStyle=orthogonalEdgeStyle;shape=connector;rounded=1;html=1;exitX=0.5;exitY=1;exitDx=0;exitDy=0;entryX=0.5;entryY=0;entryDx=0;entryDy=0;labelBackgroundColor=default;fontFamily=Helvetica;fontSize=16;fontColor=#000000;endArrow=blockThin;endFill=1;strokeColor=#000000;strokeWidth=1;" parent="60" edge="1">
                    <mxGeometry relative="1" as="geometry">
                        <mxPoint x="246.5" y="1130" as="targetPoint"/>
                    </mxGeometry>
                </mxCell>
                <mxCell id="180" style="edgeStyle=orthogonalEdgeStyle;shape=connector;rounded=1;html=1;exitX=0.5;exitY=1;exitDx=0;exitDy=0;entryX=0.5;entryY=0;entryDx=0;entryDy=0;labelBackgroundColor=default;fontFamily=Helvetica;fontSize=16;fontColor=#000000;endArrow=blockThin;endFill=1;strokeColor=#000000;strokeWidth=1;" parent="60" edge="1">
                    <mxGeometry relative="1" as="geometry">
                        <mxPoint x="336.5" y="1130" as="targetPoint"/>
                    </mxGeometry>
                </mxCell>
                <mxCell id="184" style="edgeStyle=orthogonalEdgeStyle;shape=connector;rounded=1;html=1;exitX=0.5;exitY=1;exitDx=0;exitDy=0;entryX=0.5;entryY=0;entryDx=0;entryDy=0;labelBackgroundColor=default;fontFamily=Helvetica;fontSize=16;fontColor=#000000;endArrow=blockThin;endFill=1;strokeColor=#000000;strokeWidth=1;" parent="60" edge="1">
                    <mxGeometry relative="1" as="geometry">
                        <mxPoint x="431.75" y="1130" as="targetPoint"/>
                    </mxGeometry>
                </mxCell>
                <mxCell id="187" style="edgeStyle=orthogonalEdgeStyle;shape=connector;rounded=1;html=1;exitX=0.5;exitY=1;exitDx=0;exitDy=0;entryX=0.5;entryY=0;entryDx=0;entryDy=0;labelBackgroundColor=default;fontFamily=Helvetica;fontSize=16;fontColor=#000000;endArrow=blockThin;endFill=1;strokeColor=#000000;strokeWidth=1;" parent="60" edge="1">
                    <mxGeometry relative="1" as="geometry">
                        <mxPoint x="431.75" y="1160" as="sourcePoint"/>
                    </mxGeometry>
                </mxCell>
                <mxCell id="191" style="edgeStyle=orthogonalEdgeStyle;shape=connector;rounded=1;html=1;exitX=0.5;exitY=1;exitDx=0;exitDy=0;entryX=0.5;entryY=0;entryDx=0;entryDy=0;labelBackgroundColor=default;fontFamily=Helvetica;fontSize=16;fontColor=#000000;endArrow=blockThin;endFill=1;strokeColor=#000000;strokeWidth=1;" parent="60" edge="1">
                    <mxGeometry relative="1" as="geometry">
                        <mxPoint x="386.75" y="1250" as="targetPoint"/>
                    </mxGeometry>
                </mxCell>
                <mxCell id="194" style="edgeStyle=orthogonalEdgeStyle;shape=connector;rounded=1;html=1;exitX=0.5;exitY=1;exitDx=0;exitDy=0;entryX=0.5;entryY=0;entryDx=0;entryDy=0;labelBackgroundColor=default;fontFamily=Helvetica;fontSize=16;fontColor=#000000;endArrow=blockThin;endFill=1;strokeColor=#000000;strokeWidth=1;" parent="60" edge="1">
                    <mxGeometry relative="1" as="geometry">
                        <mxPoint x="478.5" y="1250" as="targetPoint"/>
                    </mxGeometry>
                </mxCell>
                <mxCell id="197" style="edgeStyle=orthogonalEdgeStyle;shape=connector;rounded=1;html=1;exitX=0.5;exitY=1;exitDx=0;exitDy=0;entryX=0.5;entryY=0;entryDx=0;entryDy=0;labelBackgroundColor=default;fontFamily=Helvetica;fontSize=16;fontColor=#000000;endArrow=blockThin;endFill=1;strokeColor=#000000;strokeWidth=1;" parent="60" edge="1">
                    <mxGeometry relative="1" as="geometry">
                        <mxPoint x="386.75" y="1310" as="targetPoint"/>
                    </mxGeometry>
                </mxCell>
                <mxCell id="200" style="edgeStyle=orthogonalEdgeStyle;shape=connector;rounded=1;html=1;exitX=0.5;exitY=1;exitDx=0;exitDy=0;labelBackgroundColor=default;fontFamily=Helvetica;fontSize=16;fontColor=#000000;endArrow=blockThin;endFill=1;strokeColor=#000000;strokeWidth=1;" parent="60" edge="1">
                    <mxGeometry relative="1" as="geometry">
                        <mxPoint x="478.5" y="1310" as="targetPoint"/>
                    </mxGeometry>
                </mxCell>
                <mxCell id="203" style="edgeStyle=orthogonalEdgeStyle;shape=connector;rounded=1;html=1;exitX=0.5;exitY=1;exitDx=0;exitDy=0;entryX=0.5;entryY=0;entryDx=0;entryDy=0;labelBackgroundColor=default;fontFamily=Helvetica;fontSize=16;fontColor=#000000;endArrow=blockThin;endFill=1;strokeColor=#000000;strokeWidth=1;" parent="60" edge="1">
                    <mxGeometry relative="1" as="geometry">
                        <mxPoint x="116.75" y="1370" as="targetPoint"/>
                    </mxGeometry>
                </mxCell>
                <mxCell id="207" style="edgeStyle=orthogonalEdgeStyle;shape=connector;rounded=1;html=1;exitX=0.5;exitY=1;exitDx=0;exitDy=0;entryX=0.5;entryY=0;entryDx=0;entryDy=0;labelBackgroundColor=default;fontFamily=Helvetica;fontSize=16;fontColor=#000000;endArrow=blockThin;endFill=1;strokeColor=#000000;strokeWidth=1;" parent="60" edge="1">
                    <mxGeometry relative="1" as="geometry">
                        <mxPoint x="208.5" y="1370" as="targetPoint"/>
                    </mxGeometry>
                </mxCell>
                <mxCell id="210" style="edgeStyle=orthogonalEdgeStyle;shape=connector;rounded=1;html=1;exitX=0.5;exitY=1;exitDx=0;exitDy=0;entryX=0.5;entryY=0;entryDx=0;entryDy=0;labelBackgroundColor=default;fontFamily=Helvetica;fontSize=16;fontColor=#000000;endArrow=blockThin;endFill=1;strokeColor=#000000;strokeWidth=1;" parent="60" edge="1">
                    <mxGeometry relative="1" as="geometry">
                        <mxPoint x="297.5" y="1370" as="targetPoint"/>
                    </mxGeometry>
                </mxCell>
                <mxCell id="216" style="edgeStyle=orthogonalEdgeStyle;shape=connector;rounded=1;html=1;exitX=0.5;exitY=1;exitDx=0;exitDy=0;entryX=0.5;entryY=0;entryDx=0;entryDy=0;labelBackgroundColor=default;fontFamily=Helvetica;fontSize=16;fontColor=#000000;endArrow=blockThin;endFill=1;strokeColor=#000000;strokeWidth=1;" parent="60" edge="1">
                    <mxGeometry relative="1" as="geometry">
                        <mxPoint x="386.75" y="1430" as="targetPoint"/>
                    </mxGeometry>
                </mxCell>
                <mxCell id="220" style="edgeStyle=orthogonalEdgeStyle;shape=connector;rounded=1;html=1;exitX=0.5;exitY=1;exitDx=0;exitDy=0;labelBackgroundColor=default;fontFamily=Helvetica;fontSize=16;fontColor=#000000;endArrow=blockThin;endFill=1;strokeColor=#000000;strokeWidth=1;" parent="60" edge="1">
                    <mxGeometry relative="1" as="geometry">
                        <mxPoint x="344" y="1490" as="targetPoint"/>
                    </mxGeometry>
                </mxCell>
                <mxCell id="223" style="edgeStyle=orthogonalEdgeStyle;shape=connector;rounded=1;html=1;exitX=0.5;exitY=1;exitDx=0;exitDy=0;entryX=0.5;entryY=0;entryDx=0;entryDy=0;labelBackgroundColor=default;fontFamily=Helvetica;fontSize=16;fontColor=#000000;endArrow=blockThin;endFill=1;strokeColor=#000000;strokeWidth=1;" parent="60" edge="1">
                    <mxGeometry relative="1" as="geometry">
                        <mxPoint x="433.5" y="1490" as="targetPoint"/>
                    </mxGeometry>
                </mxCell>
                <mxCell id="226" style="edgeStyle=orthogonalEdgeStyle;shape=connector;rounded=1;html=1;exitX=0.5;exitY=1;exitDx=0;exitDy=0;entryX=0.5;entryY=0;entryDx=0;entryDy=0;labelBackgroundColor=default;fontFamily=Helvetica;fontSize=16;fontColor=#000000;endArrow=blockThin;endFill=1;strokeColor=#000000;strokeWidth=1;" parent="60" edge="1">
                    <mxGeometry relative="1" as="geometry">
                        <mxPoint x="388.5" y="1550" as="targetPoint"/>
                    </mxGeometry>
                </mxCell>
                <mxCell id="229" style="edgeStyle=orthogonalEdgeStyle;shape=connector;rounded=1;html=1;exitX=0.5;exitY=1;exitDx=0;exitDy=0;entryX=0.5;entryY=0;entryDx=0;entryDy=0;labelBackgroundColor=default;fontFamily=Helvetica;fontSize=16;fontColor=#000000;endArrow=blockThin;endFill=1;strokeColor=#000000;strokeWidth=1;" parent="60" edge="1">
                    <mxGeometry relative="1" as="geometry">
                        <mxPoint x="481.5" y="1550" as="targetPoint"/>
                    </mxGeometry>
                </mxCell>
                <mxCell id="232" style="edgeStyle=orthogonalEdgeStyle;shape=connector;rounded=1;html=1;exitX=0.5;exitY=1;exitDx=0;exitDy=0;entryX=0.5;entryY=0;entryDx=0;entryDy=0;labelBackgroundColor=default;fontFamily=Helvetica;fontSize=16;fontColor=#000000;endArrow=blockThin;endFill=1;strokeColor=#000000;strokeWidth=1;" parent="60" edge="1">
                    <mxGeometry relative="1" as="geometry">
                        <mxPoint x="481.5" y="1610" as="targetPoint"/>
                    </mxGeometry>
                </mxCell>
                <mxCell id="235" style="edgeStyle=orthogonalEdgeStyle;shape=connector;rounded=1;html=1;exitX=0.5;exitY=1;exitDx=0;exitDy=0;entryX=0.5;entryY=0;entryDx=0;entryDy=0;labelBackgroundColor=default;fontFamily=Helvetica;fontSize=16;fontColor=#000000;endArrow=blockThin;endFill=1;strokeColor=#000000;strokeWidth=1;" parent="60" edge="1">
                    <mxGeometry relative="1" as="geometry">
                        <mxPoint x="481.5" y="1670" as="targetPoint"/>
                    </mxGeometry>
                </mxCell>
                <mxCell id="238" style="edgeStyle=orthogonalEdgeStyle;shape=connector;rounded=1;html=1;exitX=0.5;exitY=1;exitDx=0;exitDy=0;entryX=0.5;entryY=0;entryDx=0;entryDy=0;labelBackgroundColor=default;fontFamily=Helvetica;fontSize=16;fontColor=#000000;endArrow=blockThin;endFill=1;strokeColor=#000000;strokeWidth=1;" parent="60" edge="1">
                    <mxGeometry relative="1" as="geometry">
                        <mxPoint x="481.5" y="1730" as="targetPoint"/>
                    </mxGeometry>
                </mxCell>
                <mxCell id="241" style="edgeStyle=orthogonalEdgeStyle;shape=connector;rounded=1;html=1;exitX=0.5;exitY=1;exitDx=0;exitDy=0;entryX=0.5;entryY=0;entryDx=0;entryDy=0;labelBackgroundColor=default;fontFamily=Helvetica;fontSize=16;fontColor=#000000;endArrow=blockThin;endFill=1;strokeColor=#000000;strokeWidth=1;" parent="60" edge="1">
                    <mxGeometry relative="1" as="geometry">
                        <mxPoint x="413.5" y="1800" as="targetPoint"/>
                    </mxGeometry>
                </mxCell>
                <mxCell id="244" style="edgeStyle=orthogonalEdgeStyle;shape=connector;rounded=1;html=1;exitX=0.5;exitY=1;exitDx=0;exitDy=0;entryX=0.5;entryY=0;entryDx=0;entryDy=0;labelBackgroundColor=default;fontFamily=Helvetica;fontSize=16;fontColor=#000000;endArrow=blockThin;endFill=1;strokeColor=#000000;strokeWidth=1;" parent="60" edge="1">
                    <mxGeometry relative="1" as="geometry">
                        <mxPoint x="531.5" y="1800" as="targetPoint"/>
                    </mxGeometry>
                </mxCell>
                <mxCell id="248" style="edgeStyle=orthogonalEdgeStyle;shape=connector;rounded=1;html=1;exitX=0.5;exitY=1;exitDx=0;exitDy=0;entryX=0.5;entryY=0;entryDx=0;entryDy=0;labelBackgroundColor=default;fontFamily=Helvetica;fontSize=16;fontColor=#000000;endArrow=blockThin;endFill=1;strokeColor=#000000;strokeWidth=1;" parent="60" edge="1">
                    <mxGeometry relative="1" as="geometry">
                        <mxPoint x="531.5" y="1830" as="sourcePoint"/>
                    </mxGeometry>
                </mxCell>
                <mxCell id="249" value="&lt;div style=&quot;font-size: 16px&quot;&gt;&lt;div style=&quot;font-size: 16px&quot;&gt;&lt;div style=&quot;font-size: 16px&quot;&gt;&lt;div style=&quot;font-size: 16px&quot;&gt;【句吴世系】&lt;/div&gt;&lt;/div&gt;&lt;/div&gt;&lt;/div&gt;" style="rounded=1;whiteSpace=wrap;html=1;fillColor=#FFFF00;fontColor=#000000;fontSize=16;strokeColor=none;strokeWidth=2;" parent="60" vertex="1">
                    <mxGeometry x="78" y="890" width="98" height="30" as="geometry"/>
                </mxCell>
                <mxCell id="251" value="&lt;div style=&quot;font-size: 14px&quot;&gt;&lt;div style=&quot;font-size: 14px&quot;&gt;&lt;div style=&quot;font-size: 14px&quot;&gt;&lt;div style=&quot;font-size: 14px&quot;&gt;&lt;div&gt;后稷&lt;/div&gt;&lt;/div&gt;&lt;/div&gt;&lt;/div&gt;&lt;/div&gt;" style="text;html=1;align=center;verticalAlign=middle;resizable=0;points=[];autosize=1;strokeColor=none;fillColor=none;fontSize=14;fontColor=#000000;" parent="60" vertex="1">
                    <mxGeometry x="230" y="45" width="40" height="20" as="geometry"/>
                </mxCell>
                <mxCell id="284" style="edgeStyle=orthogonalEdgeStyle;shape=connector;rounded=1;html=1;exitX=0.5;exitY=1;exitDx=0;exitDy=0;entryX=0.5;entryY=0;entryDx=0;entryDy=0;labelBackgroundColor=default;fontFamily=Helvetica;fontSize=16;fontColor=#000000;endArrow=blockThin;endFill=1;strokeColor=#000000;strokeWidth=1;" parent="60" source="252" target="249" edge="1">
                    <mxGeometry relative="1" as="geometry"/>
                </mxCell>
                <mxCell id="252" value="&lt;div style=&quot;font-size: 16px&quot;&gt;&lt;div style=&quot;font-size: 16px&quot;&gt;&lt;div style=&quot;font-size: 16px&quot;&gt;&lt;div style=&quot;font-size: 16px&quot;&gt;&lt;div style=&quot;font-size: 16px&quot;&gt;姬太伯&lt;br&gt;&lt;/div&gt;&lt;/div&gt;&lt;/div&gt;&lt;/div&gt;&lt;div style=&quot;font-size: 16px&quot;&gt;&lt;/div&gt;&lt;/div&gt;" style="rounded=1;whiteSpace=wrap;html=1;fillColor=#E6E6E6;fontColor=#000000;fontSize=16;strokeColor=none;strokeWidth=2;" parent="60" vertex="1">
                    <mxGeometry x="97" y="829.5" width="60" height="30" as="geometry"/>
                </mxCell>
                <mxCell id="254" value="&lt;div style=&quot;font-size: 16px&quot;&gt;&lt;div style=&quot;font-size: 16px&quot;&gt;&lt;div style=&quot;font-size: 16px&quot;&gt;&lt;div style=&quot;font-size: 16px&quot;&gt;&lt;div style=&quot;font-size: 16px&quot;&gt;姬仲雍&lt;br&gt;&lt;/div&gt;&lt;/div&gt;&lt;/div&gt;&lt;/div&gt;&lt;div style=&quot;font-size: 16px&quot;&gt;&lt;/div&gt;&lt;/div&gt;" style="rounded=1;whiteSpace=wrap;html=1;fillColor=#E6E6E6;fontColor=#000000;fontSize=16;strokeColor=none;strokeWidth=2;" parent="60" vertex="1">
                    <mxGeometry x="177" y="829.5" width="60" height="30" as="geometry"/>
                </mxCell>
                <mxCell id="262" style="edgeStyle=orthogonalEdgeStyle;shape=connector;rounded=1;html=1;exitX=0.5;exitY=1;exitDx=0;exitDy=0;entryX=0.5;entryY=0;entryDx=0;entryDy=0;labelBackgroundColor=default;fontFamily=Helvetica;fontSize=16;fontColor=#000000;endArrow=blockThin;endFill=1;strokeColor=#000000;strokeWidth=1;" parent="60" source="255" target="261" edge="1">
                    <mxGeometry relative="1" as="geometry"/>
                </mxCell>
                <mxCell id="255" value="&lt;div style=&quot;font-size: 16px&quot;&gt;&lt;div style=&quot;font-size: 16px&quot;&gt;&lt;div style=&quot;font-size: 16px&quot;&gt;&lt;div style=&quot;font-size: 16px&quot;&gt;&lt;div style=&quot;font-size: 16px&quot;&gt;姬季历&lt;br&gt;&lt;/div&gt;&lt;/div&gt;&lt;/div&gt;&lt;/div&gt;&lt;div style=&quot;font-size: 16px&quot;&gt;&lt;/div&gt;&lt;/div&gt;" style="rounded=1;whiteSpace=wrap;html=1;fillColor=#E6E6E6;fontColor=#000000;fontSize=16;strokeColor=none;strokeWidth=2;" parent="60" vertex="1">
                    <mxGeometry x="257" y="829.5" width="60" height="30" as="geometry"/>
                </mxCell>
                <mxCell id="260" value="&lt;div style=&quot;font-size: 14px&quot;&gt;&lt;div style=&quot;font-size: 14px&quot;&gt;&lt;div style=&quot;font-size: 14px&quot;&gt;&lt;div style=&quot;font-size: 14px&quot;&gt;&lt;div&gt;公季&lt;/div&gt;&lt;/div&gt;&lt;/div&gt;&lt;/div&gt;&lt;/div&gt;" style="text;html=1;align=center;verticalAlign=middle;resizable=0;points=[];autosize=1;strokeColor=none;fillColor=none;fontSize=14;fontColor=#000000;" parent="60" vertex="1">
                    <mxGeometry x="316" y="834.5" width="40" height="20" as="geometry"/>
                </mxCell>
                <mxCell id="310" style="edgeStyle=orthogonalEdgeStyle;shape=connector;rounded=1;html=1;exitX=0.5;exitY=1;exitDx=0;exitDy=0;entryX=0.5;entryY=0;entryDx=0;entryDy=0;labelBackgroundColor=default;fontFamily=Helvetica;fontSize=16;fontColor=#000000;endArrow=blockThin;endFill=1;strokeColor=#000000;strokeWidth=1;" parent="60" source="261" target="267" edge="1">
                    <mxGeometry relative="1" as="geometry"/>
                </mxCell>
                <mxCell id="311" style="edgeStyle=orthogonalEdgeStyle;shape=connector;rounded=1;html=1;exitX=0.5;exitY=1;exitDx=0;exitDy=0;entryX=0.5;entryY=0;entryDx=0;entryDy=0;labelBackgroundColor=default;fontFamily=Helvetica;fontSize=16;fontColor=#000000;endArrow=blockThin;endFill=1;strokeColor=#000000;strokeWidth=1;" parent="60" source="261" target="270" edge="1">
                    <mxGeometry relative="1" as="geometry">
                        <Array as="points">
                            <mxPoint x="287" y="950"/>
                            <mxPoint x="195" y="950"/>
                        </Array>
                    </mxGeometry>
                </mxCell>
                <mxCell id="312" style="edgeStyle=orthogonalEdgeStyle;shape=connector;rounded=1;html=1;exitX=0.5;exitY=1;exitDx=0;exitDy=0;entryX=0.5;entryY=0;entryDx=0;entryDy=0;labelBackgroundColor=default;fontFamily=Helvetica;fontSize=16;fontColor=#000000;endArrow=blockThin;endFill=1;strokeColor=#000000;strokeWidth=1;" parent="60" source="261" target="278" edge="1">
                    <mxGeometry relative="1" as="geometry">
                        <Array as="points">
                            <mxPoint x="287" y="950"/>
                            <mxPoint x="373" y="950"/>
                        </Array>
                    </mxGeometry>
                </mxCell>
                <mxCell id="313" style="edgeStyle=orthogonalEdgeStyle;shape=connector;rounded=1;html=1;exitX=0.5;exitY=1;exitDx=0;exitDy=0;entryX=0.5;entryY=0;entryDx=0;entryDy=0;labelBackgroundColor=default;fontFamily=Helvetica;fontSize=16;fontColor=#000000;endArrow=blockThin;endFill=1;strokeColor=#000000;strokeWidth=1;" parent="60" source="261" target="272" edge="1">
                    <mxGeometry relative="1" as="geometry">
                        <Array as="points">
                            <mxPoint x="287" y="950"/>
                            <mxPoint x="462" y="950"/>
                        </Array>
                    </mxGeometry>
                </mxCell>
                <mxCell id="314" style="edgeStyle=orthogonalEdgeStyle;shape=connector;rounded=1;html=1;exitX=0.5;exitY=1;exitDx=0;exitDy=0;entryX=0.5;entryY=0;entryDx=0;entryDy=0;labelBackgroundColor=default;fontFamily=Helvetica;fontSize=16;fontColor=#000000;endArrow=blockThin;endFill=1;strokeColor=#000000;strokeWidth=1;" parent="60" source="261" target="281" edge="1">
                    <mxGeometry relative="1" as="geometry">
                        <Array as="points">
                            <mxPoint x="287" y="950"/>
                            <mxPoint x="551" y="950"/>
                        </Array>
                    </mxGeometry>
                </mxCell>
                <mxCell id="315" style="edgeStyle=orthogonalEdgeStyle;shape=connector;rounded=1;html=1;exitX=0.5;exitY=1;exitDx=0;exitDy=0;labelBackgroundColor=default;fontFamily=Helvetica;fontSize=16;fontColor=#000000;endArrow=blockThin;endFill=1;strokeColor=#000000;strokeWidth=1;" parent="60" source="261" target="288" edge="1">
                    <mxGeometry relative="1" as="geometry">
                        <Array as="points">
                            <mxPoint x="287" y="950"/>
                            <mxPoint x="642" y="950"/>
                        </Array>
                    </mxGeometry>
                </mxCell>
                <mxCell id="316" style="edgeStyle=orthogonalEdgeStyle;shape=connector;rounded=1;html=1;exitX=0.5;exitY=1;exitDx=0;exitDy=0;entryX=0.5;entryY=0;entryDx=0;entryDy=0;labelBackgroundColor=default;fontFamily=Helvetica;fontSize=16;fontColor=#000000;endArrow=blockThin;endFill=1;strokeColor=#000000;strokeWidth=1;" parent="60" source="261" target="290" edge="1">
                    <mxGeometry relative="1" as="geometry">
                        <Array as="points">
                            <mxPoint x="287" y="950"/>
                            <mxPoint x="735" y="950"/>
                        </Array>
                    </mxGeometry>
                </mxCell>
                <mxCell id="317" style="edgeStyle=orthogonalEdgeStyle;shape=connector;rounded=1;html=1;exitX=0.5;exitY=1;exitDx=0;exitDy=0;entryX=0.5;entryY=0;entryDx=0;entryDy=0;labelBackgroundColor=default;fontFamily=Helvetica;fontSize=16;fontColor=#000000;endArrow=blockThin;endFill=1;strokeColor=#000000;strokeWidth=1;" parent="60" source="261" target="293" edge="1">
                    <mxGeometry relative="1" as="geometry">
                        <Array as="points">
                            <mxPoint x="287" y="950"/>
                            <mxPoint x="825" y="950"/>
                        </Array>
                    </mxGeometry>
                </mxCell>
                <mxCell id="318" style="edgeStyle=orthogonalEdgeStyle;shape=connector;rounded=1;html=1;exitX=0.5;exitY=1;exitDx=0;exitDy=0;entryX=0.5;entryY=0;entryDx=0;entryDy=0;labelBackgroundColor=default;fontFamily=Helvetica;fontSize=16;fontColor=#000000;endArrow=blockThin;endFill=1;strokeColor=#000000;strokeWidth=1;" parent="60" source="261" target="294" edge="1">
                    <mxGeometry relative="1" as="geometry">
                        <Array as="points">
                            <mxPoint x="287" y="950"/>
                            <mxPoint x="916" y="950"/>
                        </Array>
                    </mxGeometry>
                </mxCell>
                <mxCell id="319" style="edgeStyle=orthogonalEdgeStyle;shape=connector;rounded=1;html=1;exitX=0.5;exitY=1;exitDx=0;exitDy=0;entryX=0.5;entryY=0;entryDx=0;entryDy=0;labelBackgroundColor=default;fontFamily=Helvetica;fontSize=16;fontColor=#000000;endArrow=blockThin;endFill=1;strokeColor=#000000;strokeWidth=1;" parent="60" source="261" target="296" edge="1">
                    <mxGeometry relative="1" as="geometry">
                        <Array as="points">
                            <mxPoint x="287" y="950"/>
                            <mxPoint x="1007" y="950"/>
                        </Array>
                    </mxGeometry>
                </mxCell>
                <mxCell id="261" value="&lt;div style=&quot;font-size: 16px&quot;&gt;&lt;div style=&quot;font-size: 16px&quot;&gt;&lt;div style=&quot;font-size: 16px&quot;&gt;&lt;div style=&quot;font-size: 16px&quot;&gt;&lt;div style=&quot;font-size: 16px&quot;&gt;姬昌&lt;br&gt;&lt;/div&gt;&lt;/div&gt;&lt;/div&gt;&lt;/div&gt;&lt;div style=&quot;font-size: 16px&quot;&gt;&lt;/div&gt;&lt;/div&gt;" style="rounded=1;whiteSpace=wrap;html=1;fillColor=#E6E6E6;fontColor=#000000;fontSize=16;strokeColor=none;strokeWidth=2;" parent="60" vertex="1">
                    <mxGeometry x="262" y="890" width="50" height="30" as="geometry"/>
                </mxCell>
                <mxCell id="263" value="&lt;div style=&quot;font-size: 14px&quot;&gt;&lt;div style=&quot;font-size: 14px&quot;&gt;&lt;div style=&quot;font-size: 14px&quot;&gt;&lt;div style=&quot;font-size: 14px&quot;&gt;&lt;div&gt;太姜&lt;/div&gt;&lt;/div&gt;&lt;/div&gt;&lt;/div&gt;&lt;/div&gt;" style="text;html=1;align=center;verticalAlign=middle;resizable=0;points=[];autosize=1;strokeColor=none;fillColor=none;fontSize=14;fontColor=#000000;" parent="60" vertex="1">
                    <mxGeometry x="285" y="805.5" width="40" height="20" as="geometry"/>
                </mxCell>
                <mxCell id="264" value="&lt;div style=&quot;font-size: 14px&quot;&gt;&lt;div style=&quot;font-size: 14px&quot;&gt;&lt;div style=&quot;font-size: 14px&quot;&gt;&lt;div style=&quot;font-size: 14px&quot;&gt;&lt;div&gt;太任&lt;/div&gt;&lt;/div&gt;&lt;/div&gt;&lt;/div&gt;&lt;/div&gt;" style="text;html=1;align=center;verticalAlign=middle;resizable=0;points=[];autosize=1;strokeColor=none;fillColor=none;fontSize=14;fontColor=#000000;" parent="60" vertex="1">
                    <mxGeometry x="285" y="863" width="40" height="20" as="geometry"/>
                </mxCell>
                <mxCell id="265" value="&lt;div style=&quot;font-size: 14px&quot;&gt;&lt;div style=&quot;font-size: 14px&quot;&gt;&lt;div style=&quot;font-size: 14px&quot;&gt;&lt;div style=&quot;font-size: 14px&quot;&gt;&lt;div&gt;文王&lt;/div&gt;&lt;/div&gt;&lt;/div&gt;&lt;/div&gt;&lt;/div&gt;" style="text;html=1;align=center;verticalAlign=middle;resizable=0;points=[];autosize=1;strokeColor=none;fillColor=none;fontSize=14;fontColor=#000000;" parent="60" vertex="1">
                    <mxGeometry x="311" y="895" width="40" height="20" as="geometry"/>
                </mxCell>
                <mxCell id="266" value="&lt;div style=&quot;font-size: 14px&quot;&gt;&lt;div style=&quot;font-size: 14px&quot;&gt;&lt;div style=&quot;font-size: 14px&quot;&gt;&lt;div style=&quot;font-size: 14px&quot;&gt;&lt;div&gt;太王&lt;/div&gt;&lt;/div&gt;&lt;/div&gt;&lt;/div&gt;&lt;/div&gt;" style="text;html=1;align=center;verticalAlign=middle;resizable=0;points=[];autosize=1;strokeColor=none;fillColor=none;fontSize=14;fontColor=#000000;" parent="60" vertex="1">
                    <mxGeometry x="241" y="765" width="40" height="20" as="geometry"/>
                </mxCell>
                <mxCell id="307" style="edgeStyle=orthogonalEdgeStyle;shape=connector;rounded=1;html=1;exitX=0.5;exitY=1;exitDx=0;exitDy=0;entryX=0.5;entryY=0;entryDx=0;entryDy=0;labelBackgroundColor=default;fontFamily=Helvetica;fontSize=16;fontColor=#000000;endArrow=blockThin;endFill=1;strokeColor=#000000;strokeWidth=1;" parent="60" source="267" target="305" edge="1">
                    <mxGeometry relative="1" as="geometry"/>
                </mxCell>
                <mxCell id="498" style="edgeStyle=orthogonalEdgeStyle;shape=connector;rounded=1;html=1;exitX=0.5;exitY=1;exitDx=0;exitDy=0;entryX=0.5;entryY=0;entryDx=0;entryDy=0;labelBackgroundColor=default;fontFamily=Helvetica;fontSize=16;fontColor=#000000;endArrow=blockThin;endFill=1;strokeColor=#000000;strokeWidth=1;" parent="60" source="267" target="496" edge="1">
                    <mxGeometry relative="1" as="geometry">
                        <Array as="points">
                            <mxPoint x="287" y="1000"/>
                            <mxPoint x="397" y="1000"/>
                        </Array>
                    </mxGeometry>
                </mxCell>
                <mxCell id="267" value="&lt;div style=&quot;font-size: 16px&quot;&gt;&lt;div style=&quot;font-size: 16px&quot;&gt;&lt;div style=&quot;font-size: 16px&quot;&gt;&lt;div style=&quot;font-size: 16px&quot;&gt;&lt;div style=&quot;font-size: 16px&quot;&gt;姬发&lt;br&gt;&lt;/div&gt;&lt;/div&gt;&lt;/div&gt;&lt;/div&gt;&lt;div style=&quot;font-size: 16px&quot;&gt;&lt;/div&gt;&lt;/div&gt;" style="rounded=1;whiteSpace=wrap;html=1;fillColor=#E6E6E6;fontColor=#000000;fontSize=16;strokeColor=none;strokeWidth=2;" parent="60" vertex="1">
                    <mxGeometry x="262" y="964" width="50" height="30" as="geometry"/>
                </mxCell>
                <mxCell id="268" value="&lt;div style=&quot;font-size: 14px&quot;&gt;&lt;div style=&quot;font-size: 14px&quot;&gt;&lt;div style=&quot;font-size: 14px&quot;&gt;&lt;div style=&quot;font-size: 14px&quot;&gt;&lt;div&gt;武王&lt;/div&gt;&lt;/div&gt;&lt;/div&gt;&lt;/div&gt;&lt;/div&gt;" style="text;html=1;align=center;verticalAlign=middle;resizable=0;points=[];autosize=1;strokeColor=none;fillColor=none;fontSize=14;fontColor=#000000;" parent="60" vertex="1">
                    <mxGeometry x="309" y="969" width="40" height="20" as="geometry"/>
                </mxCell>
                <mxCell id="270" value="&lt;div style=&quot;font-size: 16px&quot;&gt;&lt;div style=&quot;font-size: 16px&quot;&gt;&lt;div style=&quot;font-size: 16px&quot;&gt;&lt;div style=&quot;font-size: 16px&quot;&gt;&lt;div style=&quot;font-size: 16px&quot;&gt;伯邑考&lt;br&gt;&lt;/div&gt;&lt;/div&gt;&lt;/div&gt;&lt;/div&gt;&lt;div style=&quot;font-size: 16px&quot;&gt;&lt;/div&gt;&lt;/div&gt;" style="rounded=1;whiteSpace=wrap;html=1;fillColor=#E6E6E6;fontColor=#000000;fontSize=16;strokeColor=none;strokeWidth=2;" parent="60" vertex="1">
                    <mxGeometry x="165" y="964" width="60" height="30" as="geometry"/>
                </mxCell>
                <mxCell id="301" style="edgeStyle=orthogonalEdgeStyle;shape=connector;rounded=1;html=1;exitX=0.5;exitY=1;exitDx=0;exitDy=0;entryX=0.5;entryY=0;entryDx=0;entryDy=0;labelBackgroundColor=default;fontFamily=Helvetica;fontSize=16;fontColor=#000000;endArrow=blockThin;endFill=1;strokeColor=#000000;strokeWidth=1;" parent="60" source="272" target="300" edge="1">
                    <mxGeometry relative="1" as="geometry"/>
                </mxCell>
                <mxCell id="272" value="&lt;div style=&quot;font-size: 16px&quot;&gt;&lt;div style=&quot;font-size: 16px&quot;&gt;&lt;div style=&quot;font-size: 16px&quot;&gt;&lt;div style=&quot;font-size: 16px&quot;&gt;&lt;div style=&quot;font-size: 16px&quot;&gt;姬旦&lt;br&gt;&lt;/div&gt;&lt;/div&gt;&lt;/div&gt;&lt;/div&gt;&lt;div style=&quot;font-size: 16px&quot;&gt;&lt;/div&gt;&lt;/div&gt;" style="rounded=1;whiteSpace=wrap;html=1;fillColor=#E6E6E6;fontColor=#000000;fontSize=16;strokeColor=none;strokeWidth=2;" parent="60" vertex="1">
                    <mxGeometry x="437" y="964" width="50" height="30" as="geometry"/>
                </mxCell>
                <mxCell id="273" value="&lt;div style=&quot;font-size: 14px&quot;&gt;&lt;div style=&quot;font-size: 14px&quot;&gt;&lt;div style=&quot;font-size: 14px&quot;&gt;&lt;div style=&quot;font-size: 14px&quot;&gt;&lt;div&gt;周公&lt;/div&gt;&lt;/div&gt;&lt;/div&gt;&lt;/div&gt;&lt;/div&gt;" style="text;html=1;align=center;verticalAlign=middle;resizable=0;points=[];autosize=1;strokeColor=none;fillColor=none;fontSize=14;fontColor=#000000;" parent="60" vertex="1">
                    <mxGeometry x="484" y="969" width="40" height="20" as="geometry"/>
                </mxCell>
                <mxCell id="145" value="&lt;font color=&quot;#ffff00&quot;&gt;1&lt;/font&gt;" style="ellipse;whiteSpace=wrap;html=1;aspect=fixed;fontFamily=Helvetica;fontSize=10;fontColor=#ffffff;fillColor=#a20025;strokeColor=#6F0000;" parent="60" vertex="1">
                    <mxGeometry x="242" y="969" width="19.5" height="19.5" as="geometry"/>
                </mxCell>
                <mxCell id="278" value="&lt;div style=&quot;font-size: 16px&quot;&gt;&lt;div style=&quot;font-size: 16px&quot;&gt;&lt;div style=&quot;font-size: 16px&quot;&gt;&lt;div style=&quot;font-size: 16px&quot;&gt;&lt;div style=&quot;font-size: 16px&quot;&gt;姬鲜&lt;br&gt;&lt;/div&gt;&lt;/div&gt;&lt;/div&gt;&lt;/div&gt;&lt;div style=&quot;font-size: 16px&quot;&gt;&lt;/div&gt;&lt;/div&gt;" style="rounded=1;whiteSpace=wrap;html=1;fillColor=#E6E6E6;fontColor=#000000;fontSize=16;strokeColor=none;strokeWidth=2;" parent="60" vertex="1">
                    <mxGeometry x="348" y="964" width="50" height="30" as="geometry"/>
                </mxCell>
                <mxCell id="279" value="&lt;div style=&quot;font-size: 14px&quot;&gt;&lt;div style=&quot;font-size: 14px&quot;&gt;&lt;div style=&quot;font-size: 14px&quot;&gt;&lt;div style=&quot;font-size: 14px&quot;&gt;管叔&lt;/div&gt;&lt;/div&gt;&lt;/div&gt;&lt;/div&gt;" style="text;html=1;align=center;verticalAlign=middle;resizable=0;points=[];autosize=1;strokeColor=none;fillColor=none;fontSize=14;fontColor=#000000;" parent="60" vertex="1">
                    <mxGeometry x="395" y="969" width="40" height="20" as="geometry"/>
                </mxCell>
                <mxCell id="303" style="edgeStyle=orthogonalEdgeStyle;shape=connector;rounded=1;html=1;exitX=0.5;exitY=1;exitDx=0;exitDy=0;entryX=0.5;entryY=0;entryDx=0;entryDy=0;labelBackgroundColor=default;fontFamily=Helvetica;fontSize=16;fontColor=#000000;endArrow=blockThin;endFill=1;strokeColor=#000000;strokeWidth=1;" parent="60" source="281" target="302" edge="1">
                    <mxGeometry relative="1" as="geometry"/>
                </mxCell>
                <mxCell id="281" value="&lt;div style=&quot;font-size: 16px&quot;&gt;&lt;div style=&quot;font-size: 16px&quot;&gt;&lt;div style=&quot;font-size: 16px&quot;&gt;&lt;div style=&quot;font-size: 16px&quot;&gt;&lt;div style=&quot;font-size: 16px&quot;&gt;姬度&lt;br&gt;&lt;/div&gt;&lt;/div&gt;&lt;/div&gt;&lt;/div&gt;&lt;div style=&quot;font-size: 16px&quot;&gt;&lt;/div&gt;&lt;/div&gt;" style="rounded=1;whiteSpace=wrap;html=1;fillColor=#E6E6E6;fontColor=#000000;fontSize=16;strokeColor=none;strokeWidth=2;" parent="60" vertex="1">
                    <mxGeometry x="526" y="964" width="50" height="30" as="geometry"/>
                </mxCell>
                <mxCell id="282" value="&lt;div style=&quot;font-size: 14px&quot;&gt;&lt;div style=&quot;font-size: 14px&quot;&gt;&lt;div style=&quot;font-size: 14px&quot;&gt;&lt;div style=&quot;font-size: 14px&quot;&gt;蔡叔&lt;/div&gt;&lt;/div&gt;&lt;/div&gt;&lt;/div&gt;" style="text;html=1;align=center;verticalAlign=middle;resizable=0;points=[];autosize=1;strokeColor=none;fillColor=none;fontSize=14;fontColor=#000000;" parent="60" vertex="1">
                    <mxGeometry x="573" y="969" width="40" height="20" as="geometry"/>
                </mxCell>
                <mxCell id="287" value="&lt;div style=&quot;font-size: 14px&quot;&gt;&lt;div style=&quot;font-size: 14px&quot;&gt;&lt;div style=&quot;font-size: 14px&quot;&gt;&lt;div style=&quot;font-size: 14px&quot;&gt;&lt;div&gt;太姒&lt;/div&gt;&lt;/div&gt;&lt;/div&gt;&lt;/div&gt;&lt;/div&gt;" style="text;html=1;align=center;verticalAlign=middle;resizable=0;points=[];autosize=1;strokeColor=none;fillColor=none;fontSize=14;fontColor=#000000;" parent="60" vertex="1">
                    <mxGeometry x="285" y="923" width="40" height="20" as="geometry"/>
                </mxCell>
                <mxCell id="509" style="edgeStyle=orthogonalEdgeStyle;shape=connector;rounded=1;html=1;exitX=0.5;exitY=1;exitDx=0;exitDy=0;entryX=0.5;entryY=0;entryDx=0;entryDy=0;labelBackgroundColor=default;fontFamily=Helvetica;fontSize=16;fontColor=#000000;endArrow=blockThin;endFill=1;strokeColor=#000000;strokeWidth=1;" edge="1" parent="60" source="288" target="507">
                    <mxGeometry relative="1" as="geometry"/>
                </mxCell>
                <mxCell id="288" value="&lt;div style=&quot;font-size: 16px&quot;&gt;&lt;div style=&quot;font-size: 16px&quot;&gt;&lt;div style=&quot;font-size: 16px&quot;&gt;&lt;div style=&quot;font-size: 16px&quot;&gt;&lt;div style=&quot;font-size: 16px&quot;&gt;姬振铎&lt;br&gt;&lt;/div&gt;&lt;/div&gt;&lt;/div&gt;&lt;/div&gt;&lt;div style=&quot;font-size: 16px&quot;&gt;&lt;/div&gt;&lt;/div&gt;" style="rounded=1;whiteSpace=wrap;html=1;fillColor=#E6E6E6;fontColor=#000000;fontSize=16;strokeColor=none;strokeWidth=2;" parent="60" vertex="1">
                    <mxGeometry x="612" y="965" width="60" height="30" as="geometry"/>
                </mxCell>
                <mxCell id="289" value="&lt;div style=&quot;font-size: 14px&quot;&gt;&lt;div style=&quot;font-size: 14px&quot;&gt;&lt;div style=&quot;font-size: 14px&quot;&gt;&lt;div style=&quot;font-size: 14px&quot;&gt;曹叔&lt;/div&gt;&lt;/div&gt;&lt;/div&gt;&lt;/div&gt;" style="text;html=1;align=center;verticalAlign=middle;resizable=0;points=[];autosize=1;strokeColor=none;fillColor=none;fontSize=14;fontColor=#000000;" parent="60" vertex="1">
                    <mxGeometry x="669" y="970" width="40" height="20" as="geometry"/>
                </mxCell>
                <mxCell id="290" value="&lt;div style=&quot;font-size: 16px&quot;&gt;&lt;div style=&quot;font-size: 16px&quot;&gt;&lt;div style=&quot;font-size: 16px&quot;&gt;&lt;div style=&quot;font-size: 16px&quot;&gt;&lt;div style=&quot;font-size: 16px&quot;&gt;姬武&lt;br&gt;&lt;/div&gt;&lt;/div&gt;&lt;/div&gt;&lt;/div&gt;&lt;div style=&quot;font-size: 16px&quot;&gt;&lt;/div&gt;&lt;/div&gt;" style="rounded=1;whiteSpace=wrap;html=1;fillColor=#E6E6E6;fontColor=#000000;fontSize=16;strokeColor=none;strokeWidth=2;" parent="60" vertex="1">
                    <mxGeometry x="710" y="964" width="50" height="30" as="geometry"/>
                </mxCell>
                <mxCell id="291" value="&lt;div style=&quot;font-size: 14px&quot;&gt;&lt;div style=&quot;font-size: 14px&quot;&gt;&lt;div style=&quot;font-size: 14px&quot;&gt;&lt;div style=&quot;font-size: 14px&quot;&gt;成叔&lt;/div&gt;&lt;/div&gt;&lt;/div&gt;&lt;/div&gt;" style="text;html=1;align=center;verticalAlign=middle;resizable=0;points=[];autosize=1;strokeColor=none;fillColor=none;fontSize=14;fontColor=#000000;" parent="60" vertex="1">
                    <mxGeometry x="758" y="969" width="40" height="20" as="geometry"/>
                </mxCell>
                <mxCell id="292" value="&lt;div style=&quot;font-size: 14px&quot;&gt;&lt;div style=&quot;font-size: 14px&quot;&gt;&lt;div style=&quot;font-size: 14px&quot;&gt;&lt;div style=&quot;font-size: 14px&quot;&gt;霍叔&lt;/div&gt;&lt;/div&gt;&lt;/div&gt;&lt;/div&gt;" style="text;html=1;align=center;verticalAlign=middle;resizable=0;points=[];autosize=1;strokeColor=none;fillColor=none;fontSize=14;fontColor=#000000;" parent="60" vertex="1">
                    <mxGeometry x="848" y="969" width="40" height="20" as="geometry"/>
                </mxCell>
                <mxCell id="293" value="&lt;div style=&quot;font-size: 16px&quot;&gt;&lt;div style=&quot;font-size: 16px&quot;&gt;&lt;div style=&quot;font-size: 16px&quot;&gt;&lt;div style=&quot;font-size: 16px&quot;&gt;&lt;div style=&quot;font-size: 16px&quot;&gt;姬处&lt;br&gt;&lt;/div&gt;&lt;/div&gt;&lt;/div&gt;&lt;/div&gt;&lt;div style=&quot;font-size: 16px&quot;&gt;&lt;/div&gt;&lt;/div&gt;" style="rounded=1;whiteSpace=wrap;html=1;fillColor=#E6E6E6;fontColor=#000000;fontSize=16;strokeColor=none;strokeWidth=2;" parent="60" vertex="1">
                    <mxGeometry x="800" y="964" width="50" height="30" as="geometry"/>
                </mxCell>
                <mxCell id="299" style="edgeStyle=orthogonalEdgeStyle;shape=connector;rounded=1;html=1;exitX=0.5;exitY=1;exitDx=0;exitDy=0;entryX=0.5;entryY=0;entryDx=0;entryDy=0;labelBackgroundColor=default;fontFamily=Helvetica;fontSize=16;fontColor=#000000;endArrow=blockThin;endFill=1;strokeColor=#000000;strokeWidth=1;" parent="60" source="294" target="298" edge="1">
                    <mxGeometry relative="1" as="geometry"/>
                </mxCell>
                <mxCell id="294" value="&lt;div style=&quot;font-size: 16px&quot;&gt;&lt;div style=&quot;font-size: 16px&quot;&gt;&lt;div style=&quot;font-size: 16px&quot;&gt;&lt;div style=&quot;font-size: 16px&quot;&gt;&lt;div style=&quot;font-size: 16px&quot;&gt;姬封&lt;br&gt;&lt;/div&gt;&lt;/div&gt;&lt;/div&gt;&lt;/div&gt;&lt;div style=&quot;font-size: 16px&quot;&gt;&lt;/div&gt;&lt;/div&gt;" style="rounded=1;whiteSpace=wrap;html=1;fillColor=#E6E6E6;fontColor=#000000;fontSize=16;strokeColor=none;strokeWidth=2;" parent="60" vertex="1">
                    <mxGeometry x="891" y="964" width="50" height="30" as="geometry"/>
                </mxCell>
                <mxCell id="295" value="&lt;div style=&quot;font-size: 14px&quot;&gt;&lt;div style=&quot;font-size: 14px&quot;&gt;&lt;div style=&quot;font-size: 14px&quot;&gt;&lt;div style=&quot;font-size: 14px&quot;&gt;康叔&lt;/div&gt;&lt;/div&gt;&lt;/div&gt;&lt;/div&gt;" style="text;html=1;align=center;verticalAlign=middle;resizable=0;points=[];autosize=1;strokeColor=none;fillColor=none;fontSize=14;fontColor=#000000;" parent="60" vertex="1">
                    <mxGeometry x="939" y="969" width="40" height="20" as="geometry"/>
                </mxCell>
                <mxCell id="296" value="&lt;div style=&quot;font-size: 16px&quot;&gt;&lt;div style=&quot;font-size: 16px&quot;&gt;&lt;div style=&quot;font-size: 16px&quot;&gt;&lt;div style=&quot;font-size: 16px&quot;&gt;&lt;div style=&quot;font-size: 16px&quot;&gt;姬载&lt;br&gt;&lt;/div&gt;&lt;/div&gt;&lt;/div&gt;&lt;/div&gt;&lt;div style=&quot;font-size: 16px&quot;&gt;&lt;/div&gt;&lt;/div&gt;" style="rounded=1;whiteSpace=wrap;html=1;fillColor=#E6E6E6;fontColor=#000000;fontSize=16;strokeColor=none;strokeWidth=2;" parent="60" vertex="1">
                    <mxGeometry x="982" y="964" width="50" height="30" as="geometry"/>
                </mxCell>
                <mxCell id="298" value="&lt;div style=&quot;font-size: 16px&quot;&gt;&lt;div style=&quot;font-size: 16px&quot;&gt;&lt;div style=&quot;font-size: 16px&quot;&gt;&lt;div style=&quot;font-size: 16px&quot;&gt;【卫康叔世系】&lt;/div&gt;&lt;/div&gt;&lt;/div&gt;&lt;/div&gt;" style="rounded=1;whiteSpace=wrap;html=1;fillColor=#FFFF00;fontColor=#000000;fontSize=16;strokeColor=none;strokeWidth=2;" parent="60" vertex="1">
                    <mxGeometry x="857" y="1029.75" width="118" height="30" as="geometry"/>
                </mxCell>
                <mxCell id="300" value="&lt;div style=&quot;font-size: 16px&quot;&gt;&lt;div style=&quot;font-size: 16px&quot;&gt;&lt;div style=&quot;font-size: 16px&quot;&gt;&lt;div style=&quot;font-size: 16px&quot;&gt;【鲁周公世系】&lt;/div&gt;&lt;/div&gt;&lt;/div&gt;&lt;/div&gt;" style="rounded=1;whiteSpace=wrap;html=1;fillColor=#FFFF00;fontColor=#000000;fontSize=16;strokeColor=none;strokeWidth=2;" parent="60" vertex="1">
                    <mxGeometry x="403" y="1149.75" width="118" height="30" as="geometry"/>
                </mxCell>
                <mxCell id="302" value="&lt;div style=&quot;font-size: 16px&quot;&gt;&lt;div style=&quot;font-size: 16px&quot;&gt;&lt;div style=&quot;font-size: 16px&quot;&gt;&lt;div style=&quot;font-size: 16px&quot;&gt;【蔡世系】&lt;/div&gt;&lt;/div&gt;&lt;/div&gt;&lt;/div&gt;" style="rounded=1;whiteSpace=wrap;html=1;fillColor=#FFFF00;fontColor=#000000;fontSize=16;strokeColor=none;strokeWidth=2;" parent="60" vertex="1">
                    <mxGeometry x="507" y="1070" width="88" height="30" as="geometry"/>
                </mxCell>
                <mxCell id="323" style="edgeStyle=orthogonalEdgeStyle;shape=connector;rounded=1;html=1;exitX=0.5;exitY=1;exitDx=0;exitDy=0;entryX=0.5;entryY=0;entryDx=0;entryDy=0;labelBackgroundColor=default;fontFamily=Helvetica;fontSize=16;fontColor=#000000;endArrow=blockThin;endFill=1;strokeColor=#000000;strokeWidth=1;" parent="60" source="305" target="321" edge="1">
                    <mxGeometry relative="1" as="geometry"/>
                </mxCell>
                <mxCell id="305" value="&lt;div style=&quot;font-size: 16px&quot;&gt;&lt;div style=&quot;font-size: 16px&quot;&gt;&lt;div style=&quot;font-size: 16px&quot;&gt;&lt;div style=&quot;font-size: 16px&quot;&gt;&lt;div style=&quot;font-size: 16px&quot;&gt;姬诵&lt;br&gt;&lt;/div&gt;&lt;/div&gt;&lt;/div&gt;&lt;/div&gt;&lt;div style=&quot;font-size: 16px&quot;&gt;&lt;/div&gt;&lt;/div&gt;" style="rounded=1;whiteSpace=wrap;html=1;fillColor=#E6E6E6;fontColor=#000000;fontSize=16;strokeColor=none;strokeWidth=2;" parent="60" vertex="1">
                    <mxGeometry x="262" y="1030" width="50" height="30" as="geometry"/>
                </mxCell>
                <mxCell id="306" value="&lt;div style=&quot;font-size: 14px&quot;&gt;&lt;div style=&quot;font-size: 14px&quot;&gt;&lt;div style=&quot;font-size: 14px&quot;&gt;&lt;div style=&quot;font-size: 14px&quot;&gt;&lt;div&gt;成王&lt;/div&gt;&lt;/div&gt;&lt;/div&gt;&lt;/div&gt;&lt;/div&gt;" style="text;html=1;align=center;verticalAlign=middle;resizable=0;points=[];autosize=1;strokeColor=none;fillColor=none;fontSize=14;fontColor=#000000;" parent="60" vertex="1">
                    <mxGeometry x="309" y="1035" width="40" height="20" as="geometry"/>
                </mxCell>
                <mxCell id="304" value="&lt;font color=&quot;#ffff00&quot;&gt;2&lt;/font&gt;" style="ellipse;whiteSpace=wrap;html=1;aspect=fixed;fontFamily=Helvetica;fontSize=10;fontColor=#ffffff;fillColor=#a20025;strokeColor=#6F0000;" parent="60" vertex="1">
                    <mxGeometry x="242" y="1035" width="19.5" height="19.5" as="geometry"/>
                </mxCell>
                <mxCell id="327" style="edgeStyle=orthogonalEdgeStyle;shape=connector;rounded=1;html=1;exitX=0.5;exitY=1;exitDx=0;exitDy=0;entryX=0.5;entryY=0;entryDx=0;entryDy=0;labelBackgroundColor=default;fontFamily=Helvetica;fontSize=16;fontColor=#000000;endArrow=blockThin;endFill=1;strokeColor=#000000;strokeWidth=1;" parent="60" source="321" target="325" edge="1">
                    <mxGeometry relative="1" as="geometry"/>
                </mxCell>
                <mxCell id="321" value="&lt;div style=&quot;font-size: 16px&quot;&gt;&lt;div style=&quot;font-size: 16px&quot;&gt;&lt;div style=&quot;font-size: 16px&quot;&gt;&lt;div style=&quot;font-size: 16px&quot;&gt;&lt;div style=&quot;font-size: 16px&quot;&gt;姬钊&lt;br&gt;&lt;/div&gt;&lt;/div&gt;&lt;/div&gt;&lt;/div&gt;&lt;div style=&quot;font-size: 16px&quot;&gt;&lt;/div&gt;&lt;/div&gt;" style="rounded=1;whiteSpace=wrap;html=1;fillColor=#E6E6E6;fontColor=#000000;fontSize=16;strokeColor=none;strokeWidth=2;" parent="60" vertex="1">
                    <mxGeometry x="262" y="1090" width="50" height="30" as="geometry"/>
                </mxCell>
                <mxCell id="322" value="&lt;div style=&quot;font-size: 14px&quot;&gt;&lt;div style=&quot;font-size: 14px&quot;&gt;&lt;div style=&quot;font-size: 14px&quot;&gt;&lt;div style=&quot;font-size: 14px&quot;&gt;&lt;div&gt;康王&lt;/div&gt;&lt;/div&gt;&lt;/div&gt;&lt;/div&gt;&lt;/div&gt;" style="text;html=1;align=center;verticalAlign=middle;resizable=0;points=[];autosize=1;strokeColor=none;fillColor=none;fontSize=14;fontColor=#000000;" parent="60" vertex="1">
                    <mxGeometry x="309" y="1095" width="40" height="20" as="geometry"/>
                </mxCell>
                <mxCell id="320" value="&lt;font color=&quot;#ffff00&quot;&gt;3&lt;/font&gt;" style="ellipse;whiteSpace=wrap;html=1;aspect=fixed;fontFamily=Helvetica;fontSize=10;fontColor=#ffffff;fillColor=#a20025;strokeColor=#6F0000;" parent="60" vertex="1">
                    <mxGeometry x="242" y="1095" width="19.5" height="19.5" as="geometry"/>
                </mxCell>
                <mxCell id="331" style="edgeStyle=orthogonalEdgeStyle;shape=connector;rounded=1;html=1;exitX=0.5;exitY=1;exitDx=0;exitDy=0;entryX=0.5;entryY=0;entryDx=0;entryDy=0;labelBackgroundColor=default;fontFamily=Helvetica;fontSize=16;fontColor=#000000;endArrow=blockThin;endFill=1;strokeColor=#000000;strokeWidth=1;" parent="60" source="325" target="328" edge="1">
                    <mxGeometry relative="1" as="geometry"/>
                </mxCell>
                <mxCell id="325" value="&lt;div style=&quot;font-size: 16px&quot;&gt;&lt;div style=&quot;font-size: 16px&quot;&gt;&lt;div style=&quot;font-size: 16px&quot;&gt;&lt;div style=&quot;font-size: 16px&quot;&gt;&lt;div style=&quot;font-size: 16px&quot;&gt;姬瑕&lt;br&gt;&lt;/div&gt;&lt;/div&gt;&lt;/div&gt;&lt;/div&gt;&lt;div style=&quot;font-size: 16px&quot;&gt;&lt;/div&gt;&lt;/div&gt;" style="rounded=1;whiteSpace=wrap;html=1;fillColor=#E6E6E6;fontColor=#000000;fontSize=16;strokeColor=none;strokeWidth=2;" parent="60" vertex="1">
                    <mxGeometry x="262" y="1150" width="50" height="30" as="geometry"/>
                </mxCell>
                <mxCell id="326" value="&lt;div style=&quot;font-size: 14px&quot;&gt;&lt;div style=&quot;font-size: 14px&quot;&gt;&lt;div style=&quot;font-size: 14px&quot;&gt;&lt;div style=&quot;font-size: 14px&quot;&gt;&lt;div&gt;昭王&lt;/div&gt;&lt;/div&gt;&lt;/div&gt;&lt;/div&gt;&lt;/div&gt;" style="text;html=1;align=center;verticalAlign=middle;resizable=0;points=[];autosize=1;strokeColor=none;fillColor=none;fontSize=14;fontColor=#000000;" parent="60" vertex="1">
                    <mxGeometry x="309" y="1155" width="40" height="20" as="geometry"/>
                </mxCell>
                <mxCell id="324" value="&lt;font color=&quot;#ffff00&quot;&gt;4&lt;/font&gt;" style="ellipse;whiteSpace=wrap;html=1;aspect=fixed;fontFamily=Helvetica;fontSize=10;fontColor=#ffffff;fillColor=#a20025;strokeColor=#6F0000;" parent="60" vertex="1">
                    <mxGeometry x="242" y="1155" width="19.5" height="19.5" as="geometry"/>
                </mxCell>
                <mxCell id="335" style="edgeStyle=orthogonalEdgeStyle;shape=connector;rounded=1;html=1;exitX=0.5;exitY=1;exitDx=0;exitDy=0;entryX=0.5;entryY=0;entryDx=0;entryDy=0;labelBackgroundColor=default;fontFamily=Helvetica;fontSize=16;fontColor=#000000;endArrow=blockThin;endFill=1;strokeColor=#000000;strokeWidth=1;" parent="60" source="328" target="332" edge="1">
                    <mxGeometry relative="1" as="geometry"/>
                </mxCell>
                <mxCell id="343" style="edgeStyle=orthogonalEdgeStyle;shape=connector;rounded=1;html=1;exitX=0.5;exitY=1;exitDx=0;exitDy=0;entryX=0.5;entryY=0;entryDx=0;entryDy=0;labelBackgroundColor=default;fontFamily=Helvetica;fontSize=16;fontColor=#000000;endArrow=blockThin;endFill=1;strokeColor=#000000;strokeWidth=1;" parent="60" source="328" target="341" edge="1">
                    <mxGeometry relative="1" as="geometry"/>
                </mxCell>
                <mxCell id="328" value="&lt;div style=&quot;font-size: 16px&quot;&gt;&lt;div style=&quot;font-size: 16px&quot;&gt;&lt;div style=&quot;font-size: 16px&quot;&gt;&lt;div style=&quot;font-size: 16px&quot;&gt;&lt;div style=&quot;font-size: 16px&quot;&gt;姬满&lt;br&gt;&lt;/div&gt;&lt;/div&gt;&lt;/div&gt;&lt;/div&gt;&lt;div style=&quot;font-size: 16px&quot;&gt;&lt;/div&gt;&lt;/div&gt;" style="rounded=1;whiteSpace=wrap;html=1;fillColor=#E6E6E6;fontColor=#000000;fontSize=16;strokeColor=none;strokeWidth=2;" parent="60" vertex="1">
                    <mxGeometry x="262" y="1210" width="50" height="30" as="geometry"/>
                </mxCell>
                <mxCell id="329" value="&lt;font color=&quot;#ffff00&quot;&gt;5&lt;/font&gt;" style="ellipse;whiteSpace=wrap;html=1;aspect=fixed;fontFamily=Helvetica;fontSize=10;fontColor=#ffffff;fillColor=#a20025;strokeColor=#6F0000;" parent="60" vertex="1">
                    <mxGeometry x="242" y="1215" width="19.5" height="19.5" as="geometry"/>
                </mxCell>
                <mxCell id="330" value="&lt;div style=&quot;font-size: 14px&quot;&gt;&lt;div style=&quot;font-size: 14px&quot;&gt;&lt;div style=&quot;font-size: 14px&quot;&gt;&lt;div style=&quot;font-size: 14px&quot;&gt;&lt;div&gt;穆王&lt;/div&gt;&lt;/div&gt;&lt;/div&gt;&lt;/div&gt;&lt;/div&gt;" style="text;html=1;align=center;verticalAlign=middle;resizable=0;points=[];autosize=1;strokeColor=none;fillColor=none;fontSize=14;fontColor=#000000;" parent="60" vertex="1">
                    <mxGeometry x="309" y="1215" width="40" height="20" as="geometry"/>
                </mxCell>
                <mxCell id="339" style="edgeStyle=orthogonalEdgeStyle;shape=connector;rounded=1;html=1;exitX=0.5;exitY=1;exitDx=0;exitDy=0;entryX=0.5;entryY=0;entryDx=0;entryDy=0;labelBackgroundColor=default;fontFamily=Helvetica;fontSize=16;fontColor=#000000;endArrow=blockThin;endFill=1;strokeColor=#000000;strokeWidth=1;" parent="60" source="332" target="336" edge="1">
                    <mxGeometry relative="1" as="geometry"/>
                </mxCell>
                <mxCell id="332" value="&lt;div style=&quot;font-size: 16px&quot;&gt;&lt;div style=&quot;font-size: 16px&quot;&gt;&lt;div style=&quot;font-size: 16px&quot;&gt;&lt;div style=&quot;font-size: 16px&quot;&gt;&lt;div style=&quot;font-size: 16px&quot;&gt;姬伊扈&lt;br&gt;&lt;/div&gt;&lt;/div&gt;&lt;/div&gt;&lt;/div&gt;&lt;div style=&quot;font-size: 16px&quot;&gt;&lt;/div&gt;&lt;/div&gt;" style="rounded=1;whiteSpace=wrap;html=1;fillColor=#E6E6E6;fontColor=#000000;fontSize=16;strokeColor=none;strokeWidth=2;" parent="60" vertex="1">
                    <mxGeometry x="257" y="1270" width="60" height="30" as="geometry"/>
                </mxCell>
                <mxCell id="333" value="&lt;font color=&quot;#ffff00&quot;&gt;6&lt;/font&gt;" style="ellipse;whiteSpace=wrap;html=1;aspect=fixed;fontFamily=Helvetica;fontSize=10;fontColor=#ffffff;fillColor=#a20025;strokeColor=#6F0000;" parent="60" vertex="1">
                    <mxGeometry x="236" y="1275" width="19.5" height="19.5" as="geometry"/>
                </mxCell>
                <mxCell id="334" value="&lt;div style=&quot;font-size: 14px&quot;&gt;&lt;div style=&quot;font-size: 14px&quot;&gt;&lt;div style=&quot;font-size: 14px&quot;&gt;&lt;div style=&quot;font-size: 14px&quot;&gt;&lt;div&gt;共王&lt;/div&gt;&lt;/div&gt;&lt;/div&gt;&lt;/div&gt;&lt;/div&gt;" style="text;html=1;align=center;verticalAlign=middle;resizable=0;points=[];autosize=1;strokeColor=none;fillColor=none;fontSize=14;fontColor=#000000;" parent="60" vertex="1">
                    <mxGeometry x="315" y="1275" width="40" height="20" as="geometry"/>
                </mxCell>
                <mxCell id="347" style="edgeStyle=orthogonalEdgeStyle;shape=connector;rounded=1;html=1;exitX=0.5;exitY=1;exitDx=0;exitDy=0;entryX=0.5;entryY=0;entryDx=0;entryDy=0;labelBackgroundColor=default;fontFamily=Helvetica;fontSize=16;fontColor=#000000;endArrow=blockThin;endFill=1;strokeColor=#000000;strokeWidth=1;" parent="60" source="336" target="345" edge="1">
                    <mxGeometry relative="1" as="geometry"/>
                </mxCell>
                <mxCell id="336" value="&lt;div style=&quot;font-size: 16px&quot;&gt;&lt;div style=&quot;font-size: 16px&quot;&gt;&lt;div style=&quot;font-size: 16px&quot;&gt;&lt;div style=&quot;font-size: 16px&quot;&gt;&lt;div style=&quot;font-size: 16px&quot;&gt;姬囏&lt;br&gt;&lt;/div&gt;&lt;/div&gt;&lt;/div&gt;&lt;/div&gt;&lt;div style=&quot;font-size: 16px&quot;&gt;&lt;/div&gt;&lt;/div&gt;" style="rounded=1;whiteSpace=wrap;html=1;fillColor=#E6E6E6;fontColor=#000000;fontSize=16;strokeColor=none;strokeWidth=2;" parent="60" vertex="1">
                    <mxGeometry x="262" y="1330" width="50" height="30" as="geometry"/>
                </mxCell>
                <mxCell id="337" value="&lt;font color=&quot;#ffff00&quot;&gt;7&lt;/font&gt;" style="ellipse;whiteSpace=wrap;html=1;aspect=fixed;fontFamily=Helvetica;fontSize=10;fontColor=#ffffff;fillColor=#a20025;strokeColor=#6F0000;" parent="60" vertex="1">
                    <mxGeometry x="242" y="1335" width="19.5" height="19.5" as="geometry"/>
                </mxCell>
                <mxCell id="338" value="&lt;div style=&quot;font-size: 14px&quot;&gt;&lt;div style=&quot;font-size: 14px&quot;&gt;&lt;div style=&quot;font-size: 14px&quot;&gt;&lt;div style=&quot;font-size: 14px&quot;&gt;&lt;div&gt;懿王&lt;/div&gt;&lt;/div&gt;&lt;/div&gt;&lt;/div&gt;&lt;/div&gt;" style="text;html=1;align=center;verticalAlign=middle;resizable=0;points=[];autosize=1;strokeColor=none;fillColor=none;fontSize=14;fontColor=#000000;" parent="60" vertex="1">
                    <mxGeometry x="309" y="1335" width="40" height="20" as="geometry"/>
                </mxCell>
                <mxCell id="340" value="&lt;font color=&quot;#ffff00&quot;&gt;8&lt;/font&gt;" style="ellipse;whiteSpace=wrap;html=1;aspect=fixed;fontFamily=Helvetica;fontSize=10;fontColor=#ffffff;fillColor=#a20025;strokeColor=#6F0000;" parent="60" vertex="1">
                    <mxGeometry x="357" y="1275" width="19.5" height="19.5" as="geometry"/>
                </mxCell>
                <mxCell id="341" value="&lt;div style=&quot;font-size: 16px&quot;&gt;&lt;div style=&quot;font-size: 16px&quot;&gt;&lt;div style=&quot;font-size: 16px&quot;&gt;&lt;div style=&quot;font-size: 16px&quot;&gt;&lt;div style=&quot;font-size: 16px&quot;&gt;姬辟方&lt;br&gt;&lt;/div&gt;&lt;/div&gt;&lt;/div&gt;&lt;/div&gt;&lt;div style=&quot;font-size: 16px&quot;&gt;&lt;/div&gt;&lt;/div&gt;" style="rounded=1;whiteSpace=wrap;html=1;fillColor=#E6E6E6;fontColor=#000000;fontSize=16;strokeColor=none;strokeWidth=2;" parent="60" vertex="1">
                    <mxGeometry x="378" y="1270" width="60" height="30" as="geometry"/>
                </mxCell>
                <mxCell id="342" value="&lt;div style=&quot;font-size: 14px&quot;&gt;&lt;div style=&quot;font-size: 14px&quot;&gt;&lt;div style=&quot;font-size: 14px&quot;&gt;&lt;div style=&quot;font-size: 14px&quot;&gt;&lt;div&gt;孝王&lt;/div&gt;&lt;/div&gt;&lt;/div&gt;&lt;/div&gt;&lt;/div&gt;" style="text;html=1;align=center;verticalAlign=middle;resizable=0;points=[];autosize=1;strokeColor=none;fillColor=none;fontSize=14;fontColor=#000000;" parent="60" vertex="1">
                    <mxGeometry x="436" y="1275" width="40" height="20" as="geometry"/>
                </mxCell>
                <mxCell id="344" value="&lt;font color=&quot;#ffff00&quot;&gt;9&lt;/font&gt;" style="ellipse;whiteSpace=wrap;html=1;aspect=fixed;fontFamily=Helvetica;fontSize=10;fontColor=#ffffff;fillColor=#a20025;strokeColor=#6F0000;" parent="60" vertex="1">
                    <mxGeometry x="242" y="1395" width="19.5" height="19.5" as="geometry"/>
                </mxCell>
                <mxCell id="351" style="edgeStyle=orthogonalEdgeStyle;shape=connector;rounded=1;html=1;exitX=0.5;exitY=1;exitDx=0;exitDy=0;entryX=0.5;entryY=0;entryDx=0;entryDy=0;labelBackgroundColor=default;fontFamily=Helvetica;fontSize=16;fontColor=#000000;endArrow=blockThin;endFill=1;strokeColor=#000000;strokeWidth=1;" parent="60" source="345" target="348" edge="1">
                    <mxGeometry relative="1" as="geometry"/>
                </mxCell>
                <mxCell id="345" value="&lt;div style=&quot;font-size: 16px&quot;&gt;&lt;div style=&quot;font-size: 16px&quot;&gt;&lt;div style=&quot;font-size: 16px&quot;&gt;&lt;div style=&quot;font-size: 16px&quot;&gt;&lt;div style=&quot;font-size: 16px&quot;&gt;姬燮&lt;br&gt;&lt;/div&gt;&lt;/div&gt;&lt;/div&gt;&lt;/div&gt;&lt;div style=&quot;font-size: 16px&quot;&gt;&lt;/div&gt;&lt;/div&gt;" style="rounded=1;whiteSpace=wrap;html=1;fillColor=#E6E6E6;fontColor=#000000;fontSize=16;strokeColor=none;strokeWidth=2;" parent="60" vertex="1">
                    <mxGeometry x="262" y="1390" width="50" height="30" as="geometry"/>
                </mxCell>
                <mxCell id="346" value="&lt;div style=&quot;font-size: 14px&quot;&gt;&lt;div style=&quot;font-size: 14px&quot;&gt;&lt;div style=&quot;font-size: 14px&quot;&gt;&lt;div style=&quot;font-size: 14px&quot;&gt;&lt;div&gt;夷王&lt;/div&gt;&lt;/div&gt;&lt;/div&gt;&lt;/div&gt;&lt;/div&gt;" style="text;html=1;align=center;verticalAlign=middle;resizable=0;points=[];autosize=1;strokeColor=none;fillColor=none;fontSize=14;fontColor=#000000;" parent="60" vertex="1">
                    <mxGeometry x="309" y="1395" width="40" height="20" as="geometry"/>
                </mxCell>
                <mxCell id="355" style="edgeStyle=orthogonalEdgeStyle;shape=connector;rounded=1;html=1;exitX=0.5;exitY=1;exitDx=0;exitDy=0;entryX=0.5;entryY=0;entryDx=0;entryDy=0;labelBackgroundColor=default;fontFamily=Helvetica;fontSize=16;fontColor=#000000;endArrow=blockThin;endFill=1;strokeColor=#000000;strokeWidth=1;" parent="60" source="348" target="353" edge="1">
                    <mxGeometry relative="1" as="geometry"/>
                </mxCell>
                <mxCell id="504" style="edgeStyle=orthogonalEdgeStyle;shape=connector;rounded=1;html=1;exitX=0.5;exitY=1;exitDx=0;exitDy=0;entryX=0.5;entryY=0;entryDx=0;entryDy=0;labelBackgroundColor=default;fontFamily=Helvetica;fontSize=16;fontColor=#000000;endArrow=blockThin;endFill=1;strokeColor=#000000;strokeWidth=1;" parent="60" source="348" target="502" edge="1">
                    <mxGeometry relative="1" as="geometry"/>
                </mxCell>
                <mxCell id="348" value="&lt;div style=&quot;font-size: 16px&quot;&gt;&lt;div style=&quot;font-size: 16px&quot;&gt;&lt;div style=&quot;font-size: 16px&quot;&gt;&lt;div style=&quot;font-size: 16px&quot;&gt;&lt;div style=&quot;font-size: 16px&quot;&gt;姬胡&lt;br&gt;&lt;/div&gt;&lt;/div&gt;&lt;/div&gt;&lt;/div&gt;&lt;div style=&quot;font-size: 16px&quot;&gt;&lt;/div&gt;&lt;/div&gt;" style="rounded=1;whiteSpace=wrap;html=1;fillColor=#E6E6E6;fontColor=#000000;fontSize=16;strokeColor=none;strokeWidth=2;" parent="60" vertex="1">
                    <mxGeometry x="262" y="1450" width="50" height="30" as="geometry"/>
                </mxCell>
                <mxCell id="349" value="&lt;font color=&quot;#ffff00&quot;&gt;10&lt;/font&gt;" style="ellipse;whiteSpace=wrap;html=1;aspect=fixed;fontFamily=Helvetica;fontSize=10;fontColor=#ffffff;fillColor=#a20025;strokeColor=#6F0000;" parent="60" vertex="1">
                    <mxGeometry x="242" y="1455" width="19.5" height="19.5" as="geometry"/>
                </mxCell>
                <mxCell id="350" value="&lt;div style=&quot;font-size: 14px&quot;&gt;&lt;div style=&quot;font-size: 14px&quot;&gt;&lt;div style=&quot;font-size: 14px&quot;&gt;&lt;div style=&quot;font-size: 14px&quot;&gt;&lt;div&gt;厉王&lt;/div&gt;&lt;/div&gt;&lt;/div&gt;&lt;/div&gt;&lt;/div&gt;" style="text;html=1;align=center;verticalAlign=middle;resizable=0;points=[];autosize=1;strokeColor=none;fillColor=none;fontSize=14;fontColor=#000000;" parent="60" vertex="1">
                    <mxGeometry x="309" y="1455" width="40" height="20" as="geometry"/>
                </mxCell>
                <mxCell id="352" value="&lt;font color=&quot;#ffff00&quot;&gt;11&lt;/font&gt;" style="ellipse;whiteSpace=wrap;html=1;aspect=fixed;fontFamily=Helvetica;fontSize=10;fontColor=#ffffff;fillColor=#a20025;strokeColor=#6F0000;" parent="60" vertex="1">
                    <mxGeometry x="242" y="1515" width="19.5" height="19.5" as="geometry"/>
                </mxCell>
                <mxCell id="359" style="edgeStyle=orthogonalEdgeStyle;shape=connector;rounded=1;html=1;exitX=0.5;exitY=1;exitDx=0;exitDy=0;entryX=0.5;entryY=0;entryDx=0;entryDy=0;labelBackgroundColor=default;fontFamily=Helvetica;fontSize=16;fontColor=#000000;endArrow=blockThin;endFill=1;strokeColor=#000000;strokeWidth=1;" parent="60" source="353" target="356" edge="1">
                    <mxGeometry relative="1" as="geometry"/>
                </mxCell>
                <mxCell id="353" value="&lt;div style=&quot;font-size: 16px&quot;&gt;&lt;div style=&quot;font-size: 16px&quot;&gt;&lt;div style=&quot;font-size: 16px&quot;&gt;&lt;div style=&quot;font-size: 16px&quot;&gt;&lt;div style=&quot;font-size: 16px&quot;&gt;姬静&lt;br&gt;&lt;/div&gt;&lt;/div&gt;&lt;/div&gt;&lt;/div&gt;&lt;div style=&quot;font-size: 16px&quot;&gt;&lt;/div&gt;&lt;/div&gt;" style="rounded=1;whiteSpace=wrap;html=1;fillColor=#E6E6E6;fontColor=#000000;fontSize=16;strokeColor=none;strokeWidth=2;" parent="60" vertex="1">
                    <mxGeometry x="262" y="1510" width="50" height="30" as="geometry"/>
                </mxCell>
                <mxCell id="354" value="&lt;div style=&quot;font-size: 14px&quot;&gt;&lt;div style=&quot;font-size: 14px&quot;&gt;&lt;div style=&quot;font-size: 14px&quot;&gt;&lt;div style=&quot;font-size: 14px&quot;&gt;&lt;div&gt;宣王&lt;/div&gt;&lt;/div&gt;&lt;/div&gt;&lt;/div&gt;&lt;/div&gt;" style="text;html=1;align=center;verticalAlign=middle;resizable=0;points=[];autosize=1;strokeColor=none;fillColor=none;fontSize=14;fontColor=#000000;" parent="60" vertex="1">
                    <mxGeometry x="309" y="1515" width="40" height="20" as="geometry"/>
                </mxCell>
                <mxCell id="364" style="edgeStyle=orthogonalEdgeStyle;shape=connector;rounded=1;html=1;exitX=0.5;exitY=1;exitDx=0;exitDy=0;entryX=0.5;entryY=0;entryDx=0;entryDy=0;labelBackgroundColor=default;fontFamily=Helvetica;fontSize=16;fontColor=#000000;endArrow=blockThin;endFill=1;strokeColor=#000000;strokeWidth=1;" parent="60" source="356" target="361" edge="1">
                    <mxGeometry relative="1" as="geometry">
                        <Array as="points">
                            <mxPoint x="287" y="1610"/>
                            <mxPoint x="223" y="1610"/>
                        </Array>
                    </mxGeometry>
                </mxCell>
                <mxCell id="366" style="edgeStyle=orthogonalEdgeStyle;shape=connector;rounded=1;html=1;exitX=0.5;exitY=1;exitDx=0;exitDy=0;entryX=0.5;entryY=0;entryDx=0;entryDy=0;labelBackgroundColor=default;fontFamily=Helvetica;fontSize=16;fontColor=#000000;endArrow=blockThin;endFill=1;strokeColor=#000000;strokeWidth=1;" parent="60" source="356" target="365" edge="1">
                    <mxGeometry relative="1" as="geometry">
                        <Array as="points">
                            <mxPoint x="287" y="1610"/>
                            <mxPoint x="347" y="1610"/>
                        </Array>
                    </mxGeometry>
                </mxCell>
                <mxCell id="356" value="&lt;div style=&quot;font-size: 16px&quot;&gt;&lt;div style=&quot;font-size: 16px&quot;&gt;&lt;div style=&quot;font-size: 16px&quot;&gt;&lt;div style=&quot;font-size: 16px&quot;&gt;&lt;div style=&quot;font-size: 16px&quot;&gt;姬宫湦&lt;br&gt;&lt;/div&gt;&lt;/div&gt;&lt;/div&gt;&lt;/div&gt;&lt;div style=&quot;font-size: 16px&quot;&gt;&lt;/div&gt;&lt;/div&gt;" style="rounded=1;whiteSpace=wrap;html=1;fillColor=#E6E6E6;fontColor=#000000;fontSize=16;strokeColor=none;strokeWidth=2;" parent="60" vertex="1">
                    <mxGeometry x="257" y="1570" width="60" height="30" as="geometry"/>
                </mxCell>
                <mxCell id="357" value="&lt;font color=&quot;#ffff00&quot;&gt;12&lt;/font&gt;" style="ellipse;whiteSpace=wrap;html=1;aspect=fixed;fontFamily=Helvetica;fontSize=10;fontColor=#ffffff;fillColor=#a20025;strokeColor=#6F0000;" parent="60" vertex="1">
                    <mxGeometry x="236" y="1575" width="19.5" height="19.5" as="geometry"/>
                </mxCell>
                <mxCell id="358" value="&lt;div style=&quot;font-size: 14px&quot;&gt;&lt;div style=&quot;font-size: 14px&quot;&gt;&lt;div style=&quot;font-size: 14px&quot;&gt;&lt;div style=&quot;font-size: 14px&quot;&gt;&lt;div&gt;幽王&lt;/div&gt;&lt;/div&gt;&lt;/div&gt;&lt;/div&gt;&lt;/div&gt;" style="text;html=1;align=center;verticalAlign=middle;resizable=0;points=[];autosize=1;strokeColor=none;fillColor=none;fontSize=14;fontColor=#000000;" parent="60" vertex="1">
                    <mxGeometry x="315" y="1575" width="40" height="20" as="geometry"/>
                </mxCell>
                <mxCell id="369" style="edgeStyle=orthogonalEdgeStyle;shape=connector;rounded=1;html=1;exitX=0.5;exitY=1;exitDx=0;exitDy=0;entryX=0.5;entryY=0;entryDx=0;entryDy=0;labelBackgroundColor=default;fontFamily=Helvetica;fontSize=16;fontColor=#000000;endArrow=blockThin;endFill=1;strokeColor=#000000;strokeWidth=1;" parent="60" source="361" target="368" edge="1">
                    <mxGeometry relative="1" as="geometry"/>
                </mxCell>
                <mxCell id="361" value="&lt;div style=&quot;font-size: 16px&quot;&gt;&lt;div style=&quot;font-size: 16px&quot;&gt;&lt;div style=&quot;font-size: 16px&quot;&gt;&lt;div style=&quot;font-size: 16px&quot;&gt;&lt;div style=&quot;font-size: 16px&quot;&gt;姬宜臼&lt;br&gt;&lt;/div&gt;&lt;/div&gt;&lt;/div&gt;&lt;/div&gt;&lt;div style=&quot;font-size: 16px&quot;&gt;&lt;/div&gt;&lt;/div&gt;" style="rounded=1;whiteSpace=wrap;html=1;fillColor=#E6E6E6;fontColor=#000000;fontSize=16;strokeColor=none;strokeWidth=2;" parent="60" vertex="1">
                    <mxGeometry x="193" y="1639" width="60" height="30" as="geometry"/>
                </mxCell>
                <mxCell id="362" value="&lt;font color=&quot;#ffff00&quot;&gt;13&lt;/font&gt;" style="ellipse;whiteSpace=wrap;html=1;aspect=fixed;fontFamily=Helvetica;fontSize=10;fontColor=#ffffff;fillColor=#a20025;strokeColor=#6F0000;" parent="60" vertex="1">
                    <mxGeometry x="172" y="1644" width="19.5" height="19.5" as="geometry"/>
                </mxCell>
                <mxCell id="363" value="&lt;div style=&quot;font-size: 14px&quot;&gt;&lt;div style=&quot;font-size: 14px&quot;&gt;&lt;div style=&quot;font-size: 14px&quot;&gt;&lt;div style=&quot;font-size: 14px&quot;&gt;&lt;div&gt;平王&lt;/div&gt;&lt;/div&gt;&lt;/div&gt;&lt;/div&gt;&lt;/div&gt;" style="text;html=1;align=center;verticalAlign=middle;resizable=0;points=[];autosize=1;strokeColor=none;fillColor=none;fontSize=14;fontColor=#000000;" parent="60" vertex="1">
                    <mxGeometry x="251" y="1644" width="40" height="20" as="geometry"/>
                </mxCell>
                <mxCell id="365" value="&lt;div style=&quot;font-size: 16px&quot;&gt;&lt;div style=&quot;font-size: 16px&quot;&gt;&lt;div style=&quot;font-size: 16px&quot;&gt;&lt;div style=&quot;font-size: 16px&quot;&gt;&lt;div style=&quot;font-size: 16px&quot;&gt;姬伯服&lt;br&gt;&lt;/div&gt;&lt;/div&gt;&lt;/div&gt;&lt;/div&gt;&lt;div style=&quot;font-size: 16px&quot;&gt;&lt;/div&gt;&lt;/div&gt;" style="rounded=1;whiteSpace=wrap;html=1;fillColor=#E6E6E6;fontColor=#000000;fontSize=16;strokeColor=none;strokeWidth=2;" parent="60" vertex="1">
                    <mxGeometry x="317" y="1639" width="60" height="30" as="geometry"/>
                </mxCell>
                <mxCell id="367" value="&lt;div style=&quot;font-size: 14px&quot;&gt;&lt;div style=&quot;font-size: 14px&quot;&gt;&lt;div style=&quot;font-size: 14px&quot;&gt;&lt;div style=&quot;font-size: 14px&quot;&gt;&lt;div&gt;褒姒&lt;/div&gt;&lt;/div&gt;&lt;/div&gt;&lt;/div&gt;&lt;/div&gt;" style="text;html=1;align=center;verticalAlign=middle;resizable=0;points=[];autosize=1;strokeColor=none;fillColor=none;fontSize=14;fontColor=#000000;" parent="60" vertex="1">
                    <mxGeometry x="346" y="1612" width="40" height="20" as="geometry"/>
                </mxCell>
                <mxCell id="373" style="edgeStyle=orthogonalEdgeStyle;shape=connector;rounded=1;html=1;exitX=0.5;exitY=1;exitDx=0;exitDy=0;entryX=0.5;entryY=0;entryDx=0;entryDy=0;labelBackgroundColor=default;fontFamily=Helvetica;fontSize=16;fontColor=#000000;endArrow=blockThin;endFill=1;strokeColor=#000000;strokeWidth=1;" parent="60" source="368" target="371" edge="1">
                    <mxGeometry relative="1" as="geometry"/>
                </mxCell>
                <mxCell id="368" value="&lt;div style=&quot;font-size: 16px&quot;&gt;&lt;div style=&quot;font-size: 16px&quot;&gt;&lt;div style=&quot;font-size: 16px&quot;&gt;&lt;div style=&quot;font-size: 16px&quot;&gt;&lt;div style=&quot;font-size: 16px&quot;&gt;姬洩父&lt;br&gt;&lt;/div&gt;&lt;/div&gt;&lt;/div&gt;&lt;/div&gt;&lt;div style=&quot;font-size: 16px&quot;&gt;&lt;/div&gt;&lt;/div&gt;" style="rounded=1;whiteSpace=wrap;html=1;fillColor=#E6E6E6;fontColor=#000000;fontSize=16;strokeColor=none;strokeWidth=2;" parent="60" vertex="1">
                    <mxGeometry x="193" y="1700" width="60" height="30" as="geometry"/>
                </mxCell>
                <mxCell id="370" value="&lt;font color=&quot;#ffff00&quot;&gt;14&lt;/font&gt;" style="ellipse;whiteSpace=wrap;html=1;aspect=fixed;fontFamily=Helvetica;fontSize=10;fontColor=#ffffff;fillColor=#a20025;strokeColor=#6F0000;" parent="60" vertex="1">
                    <mxGeometry x="178" y="1765" width="19.5" height="19.5" as="geometry"/>
                </mxCell>
                <mxCell id="377" style="edgeStyle=orthogonalEdgeStyle;shape=connector;rounded=1;html=1;exitX=0.5;exitY=1;exitDx=0;exitDy=0;entryX=0.5;entryY=0;entryDx=0;entryDy=0;labelBackgroundColor=default;fontFamily=Helvetica;fontSize=16;fontColor=#000000;endArrow=blockThin;endFill=1;strokeColor=#000000;strokeWidth=1;" parent="60" source="371" target="375" edge="1">
                    <mxGeometry relative="1" as="geometry"/>
                </mxCell>
                <mxCell id="379" style="edgeStyle=orthogonalEdgeStyle;shape=connector;rounded=1;html=1;exitX=0.5;exitY=1;exitDx=0;exitDy=0;entryX=0.5;entryY=0;entryDx=0;entryDy=0;labelBackgroundColor=default;fontFamily=Helvetica;fontSize=16;fontColor=#000000;endArrow=blockThin;endFill=1;strokeColor=#000000;strokeWidth=1;" parent="60" source="371" target="378" edge="1">
                    <mxGeometry relative="1" as="geometry"/>
                </mxCell>
                <mxCell id="371" value="&lt;div style=&quot;font-size: 16px&quot;&gt;&lt;div style=&quot;font-size: 16px&quot;&gt;&lt;div style=&quot;font-size: 16px&quot;&gt;&lt;div style=&quot;font-size: 16px&quot;&gt;&lt;div style=&quot;font-size: 16px&quot;&gt;姬林&lt;br&gt;&lt;/div&gt;&lt;/div&gt;&lt;/div&gt;&lt;/div&gt;&lt;div style=&quot;font-size: 16px&quot;&gt;&lt;/div&gt;&lt;/div&gt;" style="rounded=1;whiteSpace=wrap;html=1;fillColor=#E6E6E6;fontColor=#000000;fontSize=16;strokeColor=none;strokeWidth=2;" parent="60" vertex="1">
                    <mxGeometry x="198" y="1760" width="50" height="30" as="geometry"/>
                </mxCell>
                <mxCell id="372" value="&lt;div style=&quot;font-size: 14px&quot;&gt;&lt;div style=&quot;font-size: 14px&quot;&gt;&lt;div style=&quot;font-size: 14px&quot;&gt;&lt;div style=&quot;font-size: 14px&quot;&gt;&lt;div&gt;桓王&lt;/div&gt;&lt;/div&gt;&lt;/div&gt;&lt;/div&gt;&lt;/div&gt;" style="text;html=1;align=center;verticalAlign=middle;resizable=0;points=[];autosize=1;strokeColor=none;fillColor=none;fontSize=14;fontColor=#000000;" parent="60" vertex="1">
                    <mxGeometry x="245" y="1765" width="40" height="20" as="geometry"/>
                </mxCell>
                <mxCell id="374" value="&lt;font color=&quot;#ffff00&quot;&gt;15&lt;/font&gt;" style="ellipse;whiteSpace=wrap;html=1;aspect=fixed;fontFamily=Helvetica;fontSize=10;fontColor=#ffffff;fillColor=#a20025;strokeColor=#6F0000;" parent="60" vertex="1">
                    <mxGeometry x="178" y="1825" width="19.5" height="19.5" as="geometry"/>
                </mxCell>
                <mxCell id="383" style="edgeStyle=orthogonalEdgeStyle;shape=connector;rounded=1;html=1;exitX=0.5;exitY=1;exitDx=0;exitDy=0;entryX=0.5;entryY=0;entryDx=0;entryDy=0;labelBackgroundColor=default;fontFamily=Helvetica;fontSize=16;fontColor=#000000;endArrow=blockThin;endFill=1;strokeColor=#000000;strokeWidth=1;" parent="60" source="375" target="381" edge="1">
                    <mxGeometry relative="1" as="geometry"/>
                </mxCell>
                <mxCell id="389" style="edgeStyle=orthogonalEdgeStyle;shape=connector;rounded=1;html=1;exitX=0.5;exitY=1;exitDx=0;exitDy=0;labelBackgroundColor=default;fontFamily=Helvetica;fontSize=16;fontColor=#000000;endArrow=blockThin;endFill=1;strokeColor=#000000;strokeWidth=1;" parent="60" source="375" target="388" edge="1">
                    <mxGeometry relative="1" as="geometry"/>
                </mxCell>
                <mxCell id="375" value="&lt;div style=&quot;font-size: 16px&quot;&gt;&lt;div style=&quot;font-size: 16px&quot;&gt;&lt;div style=&quot;font-size: 16px&quot;&gt;&lt;div style=&quot;font-size: 16px&quot;&gt;&lt;div style=&quot;font-size: 16px&quot;&gt;姬佗&lt;br&gt;&lt;/div&gt;&lt;/div&gt;&lt;/div&gt;&lt;/div&gt;&lt;div style=&quot;font-size: 16px&quot;&gt;&lt;/div&gt;&lt;/div&gt;" style="rounded=1;whiteSpace=wrap;html=1;fillColor=#E6E6E6;fontColor=#000000;fontSize=16;strokeColor=none;strokeWidth=2;" parent="60" vertex="1">
                    <mxGeometry x="198" y="1820" width="50" height="30" as="geometry"/>
                </mxCell>
                <mxCell id="376" value="&lt;div style=&quot;font-size: 14px&quot;&gt;&lt;div style=&quot;font-size: 14px&quot;&gt;&lt;div style=&quot;font-size: 14px&quot;&gt;&lt;div style=&quot;font-size: 14px&quot;&gt;&lt;div&gt;庄王&lt;/div&gt;&lt;/div&gt;&lt;/div&gt;&lt;/div&gt;&lt;/div&gt;" style="text;html=1;align=center;verticalAlign=middle;resizable=0;points=[];autosize=1;strokeColor=none;fillColor=none;fontSize=14;fontColor=#000000;" parent="60" vertex="1">
                    <mxGeometry x="245" y="1825" width="40" height="20" as="geometry"/>
                </mxCell>
                <mxCell id="378" value="&lt;div style=&quot;font-size: 16px&quot;&gt;&lt;div style=&quot;font-size: 16px&quot;&gt;&lt;div style=&quot;font-size: 16px&quot;&gt;&lt;div style=&quot;font-size: 16px&quot;&gt;&lt;div style=&quot;font-size: 16px&quot;&gt;姬克&lt;br&gt;&lt;/div&gt;&lt;/div&gt;&lt;/div&gt;&lt;/div&gt;&lt;div style=&quot;font-size: 16px&quot;&gt;&lt;/div&gt;&lt;/div&gt;" style="rounded=1;whiteSpace=wrap;html=1;fillColor=#E6E6E6;fontColor=#000000;fontSize=16;strokeColor=none;strokeWidth=2;" parent="60" vertex="1">
                    <mxGeometry x="287" y="1820" width="50" height="30" as="geometry"/>
                </mxCell>
                <mxCell id="380" value="&lt;font color=&quot;#ffff00&quot;&gt;16&lt;/font&gt;" style="ellipse;whiteSpace=wrap;html=1;aspect=fixed;fontFamily=Helvetica;fontSize=10;fontColor=#ffffff;fillColor=#a20025;strokeColor=#6F0000;" parent="60" vertex="1">
                    <mxGeometry x="172" y="1885" width="19.5" height="19.5" as="geometry"/>
                </mxCell>
                <mxCell id="387" style="edgeStyle=orthogonalEdgeStyle;shape=connector;rounded=1;html=1;exitX=0.5;exitY=1;exitDx=0;exitDy=0;entryX=0.5;entryY=0;entryDx=0;entryDy=0;labelBackgroundColor=default;fontFamily=Helvetica;fontSize=16;fontColor=#000000;endArrow=blockThin;endFill=1;strokeColor=#000000;strokeWidth=1;" parent="60" source="381" target="386" edge="1">
                    <mxGeometry relative="1" as="geometry"/>
                </mxCell>
                <mxCell id="381" value="&lt;div style=&quot;font-size: 16px&quot;&gt;&lt;div style=&quot;font-size: 16px&quot;&gt;&lt;div style=&quot;font-size: 16px&quot;&gt;&lt;div style=&quot;font-size: 16px&quot;&gt;&lt;div style=&quot;font-size: 16px&quot;&gt;姬胡齐&lt;br&gt;&lt;/div&gt;&lt;/div&gt;&lt;/div&gt;&lt;/div&gt;&lt;div style=&quot;font-size: 16px&quot;&gt;&lt;/div&gt;&lt;/div&gt;" style="rounded=1;whiteSpace=wrap;html=1;fillColor=#E6E6E6;fontColor=#000000;fontSize=16;strokeColor=none;strokeWidth=2;" parent="60" vertex="1">
                    <mxGeometry x="193" y="1880" width="60" height="30" as="geometry"/>
                </mxCell>
                <mxCell id="382" value="&lt;div style=&quot;font-size: 14px&quot;&gt;&lt;div style=&quot;font-size: 14px&quot;&gt;&lt;div style=&quot;font-size: 14px&quot;&gt;&lt;div style=&quot;font-size: 14px&quot;&gt;&lt;div&gt;釐王&lt;/div&gt;&lt;/div&gt;&lt;/div&gt;&lt;/div&gt;&lt;/div&gt;" style="text;html=1;align=center;verticalAlign=middle;resizable=0;points=[];autosize=1;strokeColor=none;fillColor=none;fontSize=14;fontColor=#000000;" parent="60" vertex="1">
                    <mxGeometry x="250" y="1885" width="40" height="20" as="geometry"/>
                </mxCell>
                <mxCell id="384" value="&lt;div style=&quot;font-size: 14px&quot;&gt;&lt;div style=&quot;font-size: 14px&quot;&gt;&lt;div style=&quot;font-size: 14px&quot;&gt;&lt;div style=&quot;font-size: 14px&quot;&gt;&lt;div&gt;惠王&lt;/div&gt;&lt;/div&gt;&lt;/div&gt;&lt;/div&gt;&lt;/div&gt;" style="text;html=1;align=center;verticalAlign=middle;resizable=0;points=[];autosize=1;strokeColor=none;fillColor=none;fontSize=14;fontColor=#000000;" parent="60" vertex="1">
                    <mxGeometry x="245" y="1945" width="40" height="20" as="geometry"/>
                </mxCell>
                <mxCell id="385" value="&lt;font color=&quot;#ffff00&quot;&gt;17&lt;/font&gt;" style="ellipse;whiteSpace=wrap;html=1;aspect=fixed;fontFamily=Helvetica;fontSize=10;fontColor=#ffffff;fillColor=#a20025;strokeColor=#6F0000;" parent="60" vertex="1">
                    <mxGeometry x="178" y="1945" width="19.5" height="19.5" as="geometry"/>
                </mxCell>
                <mxCell id="393" style="edgeStyle=orthogonalEdgeStyle;shape=connector;rounded=1;html=1;exitX=0.5;exitY=1;exitDx=0;exitDy=0;entryX=0.5;entryY=0;entryDx=0;entryDy=0;labelBackgroundColor=default;fontFamily=Helvetica;fontSize=16;fontColor=#000000;endArrow=blockThin;endFill=1;strokeColor=#000000;strokeWidth=1;" parent="60" source="386" target="391" edge="1">
                    <mxGeometry relative="1" as="geometry"/>
                </mxCell>
                <mxCell id="395" style="edgeStyle=orthogonalEdgeStyle;shape=connector;rounded=1;html=1;exitX=0.5;exitY=1;exitDx=0;exitDy=0;entryX=0.5;entryY=0;entryDx=0;entryDy=0;labelBackgroundColor=default;fontFamily=Helvetica;fontSize=16;fontColor=#000000;endArrow=blockThin;endFill=1;strokeColor=#000000;strokeWidth=1;" parent="60" source="386" target="394" edge="1">
                    <mxGeometry relative="1" as="geometry">
                        <Array as="points">
                            <mxPoint x="223" y="1980"/>
                            <mxPoint x="317" y="1980"/>
                        </Array>
                    </mxGeometry>
                </mxCell>
                <mxCell id="386" value="&lt;div style=&quot;font-size: 16px&quot;&gt;&lt;div style=&quot;font-size: 16px&quot;&gt;&lt;div style=&quot;font-size: 16px&quot;&gt;&lt;div style=&quot;font-size: 16px&quot;&gt;&lt;div style=&quot;font-size: 16px&quot;&gt;姬阆&lt;br&gt;&lt;/div&gt;&lt;/div&gt;&lt;/div&gt;&lt;/div&gt;&lt;div style=&quot;font-size: 16px&quot;&gt;&lt;/div&gt;&lt;/div&gt;" style="rounded=1;whiteSpace=wrap;html=1;fillColor=#E6E6E6;fontColor=#000000;fontSize=16;strokeColor=none;strokeWidth=2;" parent="60" vertex="1">
                    <mxGeometry x="198" y="1940" width="50" height="30" as="geometry"/>
                </mxCell>
                <mxCell id="388" value="&lt;div style=&quot;font-size: 16px&quot;&gt;&lt;div style=&quot;font-size: 16px&quot;&gt;&lt;div style=&quot;font-size: 16px&quot;&gt;&lt;div style=&quot;font-size: 16px&quot;&gt;&lt;div style=&quot;font-size: 16px&quot;&gt;姬穨&lt;br&gt;&lt;/div&gt;&lt;/div&gt;&lt;/div&gt;&lt;/div&gt;&lt;div style=&quot;font-size: 16px&quot;&gt;&lt;/div&gt;&lt;/div&gt;" style="rounded=1;whiteSpace=wrap;html=1;fillColor=#E6E6E6;fontColor=#000000;fontSize=16;strokeColor=none;strokeWidth=2;" parent="60" vertex="1">
                    <mxGeometry x="287" y="1880" width="50" height="30" as="geometry"/>
                </mxCell>
                <mxCell id="390" value="&lt;font color=&quot;#ffff00&quot;&gt;18&lt;/font&gt;" style="ellipse;whiteSpace=wrap;html=1;aspect=fixed;fontFamily=Helvetica;fontSize=10;fontColor=#ffffff;fillColor=#a20025;strokeColor=#6F0000;" parent="60" vertex="1">
                    <mxGeometry x="178" y="2015" width="19.5" height="19.5" as="geometry"/>
                </mxCell>
                <mxCell id="400" style="edgeStyle=orthogonalEdgeStyle;shape=connector;rounded=1;html=1;exitX=0.5;exitY=1;exitDx=0;exitDy=0;entryX=0.5;entryY=0;entryDx=0;entryDy=0;labelBackgroundColor=default;fontFamily=Helvetica;fontSize=16;fontColor=#000000;endArrow=blockThin;endFill=1;strokeColor=#000000;strokeWidth=1;" parent="60" source="391" target="398" edge="1">
                    <mxGeometry relative="1" as="geometry"/>
                </mxCell>
                <mxCell id="391" value="&lt;div style=&quot;font-size: 16px&quot;&gt;&lt;div style=&quot;font-size: 16px&quot;&gt;&lt;div style=&quot;font-size: 16px&quot;&gt;&lt;div style=&quot;font-size: 16px&quot;&gt;&lt;div style=&quot;font-size: 16px&quot;&gt;姬郑&lt;br&gt;&lt;/div&gt;&lt;/div&gt;&lt;/div&gt;&lt;/div&gt;&lt;div style=&quot;font-size: 16px&quot;&gt;&lt;/div&gt;&lt;/div&gt;" style="rounded=1;whiteSpace=wrap;html=1;fillColor=#E6E6E6;fontColor=#000000;fontSize=16;strokeColor=none;strokeWidth=2;" parent="60" vertex="1">
                    <mxGeometry x="198" y="2010" width="50" height="30" as="geometry"/>
                </mxCell>
                <mxCell id="392" value="&lt;div style=&quot;font-size: 14px&quot;&gt;&lt;div style=&quot;font-size: 14px&quot;&gt;&lt;div style=&quot;font-size: 14px&quot;&gt;&lt;div style=&quot;font-size: 14px&quot;&gt;&lt;div&gt;襄王&lt;/div&gt;&lt;/div&gt;&lt;/div&gt;&lt;/div&gt;&lt;/div&gt;" style="text;html=1;align=center;verticalAlign=middle;resizable=0;points=[];autosize=1;strokeColor=none;fillColor=none;fontSize=14;fontColor=#000000;" parent="60" vertex="1">
                    <mxGeometry x="245" y="2015" width="40" height="20" as="geometry"/>
                </mxCell>
                <mxCell id="394" value="&lt;div style=&quot;font-size: 16px&quot;&gt;&lt;div style=&quot;font-size: 16px&quot;&gt;&lt;div style=&quot;font-size: 16px&quot;&gt;&lt;div style=&quot;font-size: 16px&quot;&gt;&lt;div style=&quot;font-size: 16px&quot;&gt;姬叔带&lt;br&gt;&lt;/div&gt;&lt;/div&gt;&lt;/div&gt;&lt;/div&gt;&lt;div style=&quot;font-size: 16px&quot;&gt;&lt;/div&gt;&lt;/div&gt;" style="rounded=1;whiteSpace=wrap;html=1;fillColor=#E6E6E6;fontColor=#000000;fontSize=16;strokeColor=none;strokeWidth=2;" parent="60" vertex="1">
                    <mxGeometry x="287" y="2009.75" width="60" height="30" as="geometry"/>
                </mxCell>
                <mxCell id="396" value="&lt;div style=&quot;font-size: 14px&quot;&gt;&lt;div style=&quot;font-size: 14px&quot;&gt;&lt;div style=&quot;font-size: 14px&quot;&gt;&lt;div style=&quot;font-size: 14px&quot;&gt;&lt;div&gt;惠后&lt;/div&gt;&lt;/div&gt;&lt;/div&gt;&lt;/div&gt;&lt;/div&gt;" style="text;html=1;align=center;verticalAlign=middle;resizable=0;points=[];autosize=1;strokeColor=none;fillColor=none;fontSize=14;fontColor=#000000;" parent="60" vertex="1">
                    <mxGeometry x="316" y="1986" width="40" height="20" as="geometry"/>
                </mxCell>
                <mxCell id="397" value="&lt;font color=&quot;#ffff00&quot;&gt;19&lt;/font&gt;" style="ellipse;whiteSpace=wrap;html=1;aspect=fixed;fontFamily=Helvetica;fontSize=10;fontColor=#ffffff;fillColor=#a20025;strokeColor=#6F0000;" parent="60" vertex="1">
                    <mxGeometry x="172" y="2077" width="19.5" height="19.5" as="geometry"/>
                </mxCell>
                <mxCell id="404" style="edgeStyle=orthogonalEdgeStyle;shape=connector;rounded=1;html=1;exitX=0.5;exitY=1;exitDx=0;exitDy=0;entryX=0.5;entryY=0;entryDx=0;entryDy=0;labelBackgroundColor=default;fontFamily=Helvetica;fontSize=16;fontColor=#000000;endArrow=blockThin;endFill=1;strokeColor=#000000;strokeWidth=1;" parent="60" source="398" target="402" edge="1">
                    <mxGeometry relative="1" as="geometry"/>
                </mxCell>
                <mxCell id="409" style="edgeStyle=orthogonalEdgeStyle;shape=connector;rounded=1;html=1;exitX=0.5;exitY=1;exitDx=0;exitDy=0;entryX=0.5;entryY=0;entryDx=0;entryDy=0;labelBackgroundColor=default;fontFamily=Helvetica;fontSize=16;fontColor=#000000;endArrow=blockThin;endFill=1;strokeColor=#000000;strokeWidth=1;" parent="60" source="398" target="406" edge="1">
                    <mxGeometry relative="1" as="geometry"/>
                </mxCell>
                <mxCell id="398" value="&lt;div style=&quot;font-size: 16px&quot;&gt;&lt;div style=&quot;font-size: 16px&quot;&gt;&lt;div style=&quot;font-size: 16px&quot;&gt;&lt;div style=&quot;font-size: 16px&quot;&gt;&lt;div style=&quot;font-size: 16px&quot;&gt;姬壬臣&lt;br&gt;&lt;/div&gt;&lt;/div&gt;&lt;/div&gt;&lt;/div&gt;&lt;div style=&quot;font-size: 16px&quot;&gt;&lt;/div&gt;&lt;/div&gt;" style="rounded=1;whiteSpace=wrap;html=1;fillColor=#E6E6E6;fontColor=#000000;fontSize=16;strokeColor=none;strokeWidth=2;" parent="60" vertex="1">
                    <mxGeometry x="193" y="2072" width="60" height="30" as="geometry"/>
                </mxCell>
                <mxCell id="399" value="&lt;div style=&quot;font-size: 14px&quot;&gt;&lt;div style=&quot;font-size: 14px&quot;&gt;&lt;div style=&quot;font-size: 14px&quot;&gt;&lt;div style=&quot;font-size: 14px&quot;&gt;&lt;div&gt;顷王&lt;/div&gt;&lt;/div&gt;&lt;/div&gt;&lt;/div&gt;&lt;/div&gt;" style="text;html=1;align=center;verticalAlign=middle;resizable=0;points=[];autosize=1;strokeColor=none;fillColor=none;fontSize=14;fontColor=#000000;" parent="60" vertex="1">
                    <mxGeometry x="250" y="2077" width="40" height="20" as="geometry"/>
                </mxCell>
                <mxCell id="401" value="&lt;font color=&quot;#ffff00&quot;&gt;20&lt;/font&gt;" style="ellipse;whiteSpace=wrap;html=1;aspect=fixed;fontFamily=Helvetica;fontSize=10;fontColor=#ffffff;fillColor=#a20025;strokeColor=#6F0000;" parent="60" vertex="1">
                    <mxGeometry x="178" y="2135" width="19.5" height="19.5" as="geometry"/>
                </mxCell>
                <mxCell id="402" value="&lt;div style=&quot;font-size: 16px&quot;&gt;&lt;div style=&quot;font-size: 16px&quot;&gt;&lt;div style=&quot;font-size: 16px&quot;&gt;&lt;div style=&quot;font-size: 16px&quot;&gt;&lt;div style=&quot;font-size: 16px&quot;&gt;姬班&lt;br&gt;&lt;/div&gt;&lt;/div&gt;&lt;/div&gt;&lt;/div&gt;&lt;div style=&quot;font-size: 16px&quot;&gt;&lt;/div&gt;&lt;/div&gt;" style="rounded=1;whiteSpace=wrap;html=1;fillColor=#E6E6E6;fontColor=#000000;fontSize=16;strokeColor=none;strokeWidth=2;" parent="60" vertex="1">
                    <mxGeometry x="198" y="2130" width="50" height="30" as="geometry"/>
                </mxCell>
                <mxCell id="403" value="&lt;div style=&quot;font-size: 14px&quot;&gt;&lt;div style=&quot;font-size: 14px&quot;&gt;&lt;div style=&quot;font-size: 14px&quot;&gt;&lt;div style=&quot;font-size: 14px&quot;&gt;&lt;div&gt;匡王&lt;/div&gt;&lt;/div&gt;&lt;/div&gt;&lt;/div&gt;&lt;/div&gt;" style="text;html=1;align=center;verticalAlign=middle;resizable=0;points=[];autosize=1;strokeColor=none;fillColor=none;fontSize=14;fontColor=#000000;" parent="60" vertex="1">
                    <mxGeometry x="245" y="2135" width="40" height="20" as="geometry"/>
                </mxCell>
                <mxCell id="405" value="&lt;font color=&quot;#ffff00&quot;&gt;21&lt;/font&gt;" style="ellipse;whiteSpace=wrap;html=1;aspect=fixed;fontFamily=Helvetica;fontSize=10;fontColor=#ffffff;fillColor=#a20025;strokeColor=#6F0000;" parent="60" vertex="1">
                    <mxGeometry x="287" y="2135" width="19.5" height="19.5" as="geometry"/>
                </mxCell>
                <mxCell id="413" style="edgeStyle=orthogonalEdgeStyle;shape=connector;rounded=1;html=1;exitX=0.5;exitY=1;exitDx=0;exitDy=0;entryX=0.5;entryY=0;entryDx=0;entryDy=0;labelBackgroundColor=default;fontFamily=Helvetica;fontSize=16;fontColor=#000000;endArrow=blockThin;endFill=1;strokeColor=#000000;strokeWidth=1;" parent="60" source="406" target="411" edge="1">
                    <mxGeometry relative="1" as="geometry"/>
                </mxCell>
                <mxCell id="406" value="&lt;div style=&quot;font-size: 16px&quot;&gt;&lt;div style=&quot;font-size: 16px&quot;&gt;&lt;div style=&quot;font-size: 16px&quot;&gt;&lt;div style=&quot;font-size: 16px&quot;&gt;&lt;div style=&quot;font-size: 16px&quot;&gt;姬瑜&lt;br&gt;&lt;/div&gt;&lt;/div&gt;&lt;/div&gt;&lt;/div&gt;&lt;div style=&quot;font-size: 16px&quot;&gt;&lt;/div&gt;&lt;/div&gt;" style="rounded=1;whiteSpace=wrap;html=1;fillColor=#E6E6E6;fontColor=#000000;fontSize=16;strokeColor=none;strokeWidth=2;" parent="60" vertex="1">
                    <mxGeometry x="307" y="2130" width="50" height="30" as="geometry"/>
                </mxCell>
                <mxCell id="407" value="&lt;div style=&quot;font-size: 14px&quot;&gt;&lt;div style=&quot;font-size: 14px&quot;&gt;&lt;div style=&quot;font-size: 14px&quot;&gt;&lt;div style=&quot;font-size: 14px&quot;&gt;&lt;div&gt;定王&lt;/div&gt;&lt;/div&gt;&lt;/div&gt;&lt;/div&gt;&lt;/div&gt;" style="text;html=1;align=center;verticalAlign=middle;resizable=0;points=[];autosize=1;strokeColor=none;fillColor=none;fontSize=14;fontColor=#000000;" parent="60" vertex="1">
                    <mxGeometry x="354" y="2135" width="40" height="20" as="geometry"/>
                </mxCell>
                <mxCell id="410" value="&lt;font color=&quot;#ffff00&quot;&gt;22&lt;/font&gt;" style="ellipse;whiteSpace=wrap;html=1;aspect=fixed;fontFamily=Helvetica;fontSize=10;fontColor=#ffffff;fillColor=#a20025;strokeColor=#6F0000;" parent="60" vertex="1">
                    <mxGeometry x="287" y="2195" width="19.5" height="19.5" as="geometry"/>
                </mxCell>
                <mxCell id="417" style="edgeStyle=orthogonalEdgeStyle;shape=connector;rounded=1;html=1;exitX=0.5;exitY=1;exitDx=0;exitDy=0;entryX=0.5;entryY=0;entryDx=0;entryDy=0;labelBackgroundColor=default;fontFamily=Helvetica;fontSize=16;fontColor=#000000;endArrow=blockThin;endFill=1;strokeColor=#000000;strokeWidth=1;" parent="60" source="411" target="415" edge="1">
                    <mxGeometry relative="1" as="geometry"/>
                </mxCell>
                <mxCell id="411" value="&lt;div style=&quot;font-size: 16px&quot;&gt;&lt;div style=&quot;font-size: 16px&quot;&gt;&lt;div style=&quot;font-size: 16px&quot;&gt;&lt;div style=&quot;font-size: 16px&quot;&gt;&lt;div style=&quot;font-size: 16px&quot;&gt;姬夷&lt;br&gt;&lt;/div&gt;&lt;/div&gt;&lt;/div&gt;&lt;/div&gt;&lt;div style=&quot;font-size: 16px&quot;&gt;&lt;/div&gt;&lt;/div&gt;" style="rounded=1;whiteSpace=wrap;html=1;fillColor=#E6E6E6;fontColor=#000000;fontSize=16;strokeColor=none;strokeWidth=2;" parent="60" vertex="1">
                    <mxGeometry x="307" y="2190" width="50" height="30" as="geometry"/>
                </mxCell>
                <mxCell id="412" value="&lt;div style=&quot;font-size: 14px&quot;&gt;&lt;div style=&quot;font-size: 14px&quot;&gt;&lt;div style=&quot;font-size: 14px&quot;&gt;&lt;div style=&quot;font-size: 14px&quot;&gt;&lt;div&gt;简王&lt;/div&gt;&lt;/div&gt;&lt;/div&gt;&lt;/div&gt;&lt;/div&gt;" style="text;html=1;align=center;verticalAlign=middle;resizable=0;points=[];autosize=1;strokeColor=none;fillColor=none;fontSize=14;fontColor=#000000;" parent="60" vertex="1">
                    <mxGeometry x="354" y="2195" width="40" height="20" as="geometry"/>
                </mxCell>
                <mxCell id="414" value="&lt;font color=&quot;#ffff00&quot;&gt;23&lt;/font&gt;" style="ellipse;whiteSpace=wrap;html=1;aspect=fixed;fontFamily=Helvetica;fontSize=10;fontColor=#ffffff;fillColor=#a20025;strokeColor=#6F0000;" parent="60" vertex="1">
                    <mxGeometry x="281" y="2255" width="19.5" height="19.5" as="geometry"/>
                </mxCell>
                <mxCell id="421" style="edgeStyle=orthogonalEdgeStyle;shape=connector;rounded=1;html=1;exitX=0.5;exitY=1;exitDx=0;exitDy=0;entryX=0.5;entryY=0;entryDx=0;entryDy=0;labelBackgroundColor=default;fontFamily=Helvetica;fontSize=16;fontColor=#000000;endArrow=blockThin;endFill=1;strokeColor=#000000;strokeWidth=1;" parent="60" source="415" target="419" edge="1">
                    <mxGeometry relative="1" as="geometry"/>
                </mxCell>
                <mxCell id="415" value="&lt;div style=&quot;font-size: 16px&quot;&gt;&lt;div style=&quot;font-size: 16px&quot;&gt;&lt;div style=&quot;font-size: 16px&quot;&gt;&lt;div style=&quot;font-size: 16px&quot;&gt;&lt;div style=&quot;font-size: 16px&quot;&gt;姬泄心&lt;br&gt;&lt;/div&gt;&lt;/div&gt;&lt;/div&gt;&lt;/div&gt;&lt;div style=&quot;font-size: 16px&quot;&gt;&lt;/div&gt;&lt;/div&gt;" style="rounded=1;whiteSpace=wrap;html=1;fillColor=#E6E6E6;fontColor=#000000;fontSize=16;strokeColor=none;strokeWidth=2;" parent="60" vertex="1">
                    <mxGeometry x="302" y="2250" width="60" height="30" as="geometry"/>
                </mxCell>
                <mxCell id="416" value="&lt;div style=&quot;font-size: 14px&quot;&gt;&lt;div style=&quot;font-size: 14px&quot;&gt;&lt;div style=&quot;font-size: 14px&quot;&gt;&lt;div style=&quot;font-size: 14px&quot;&gt;&lt;div&gt;灵王&lt;/div&gt;&lt;/div&gt;&lt;/div&gt;&lt;/div&gt;&lt;/div&gt;" style="text;html=1;align=center;verticalAlign=middle;resizable=0;points=[];autosize=1;strokeColor=none;fillColor=none;fontSize=14;fontColor=#000000;" parent="60" vertex="1">
                    <mxGeometry x="359" y="2255" width="40" height="20" as="geometry"/>
                </mxCell>
                <mxCell id="418" value="&lt;font color=&quot;#ffff00&quot;&gt;24&lt;/font&gt;" style="ellipse;whiteSpace=wrap;html=1;aspect=fixed;fontFamily=Helvetica;fontSize=10;fontColor=#ffffff;fillColor=#a20025;strokeColor=#6F0000;" parent="60" vertex="1">
                    <mxGeometry x="287" y="2315" width="19.5" height="19.5" as="geometry"/>
                </mxCell>
                <mxCell id="429" style="edgeStyle=orthogonalEdgeStyle;shape=connector;rounded=1;html=1;exitX=0.5;exitY=1;exitDx=0;exitDy=0;entryX=0.5;entryY=0;entryDx=0;entryDy=0;labelBackgroundColor=default;fontFamily=Helvetica;fontSize=16;fontColor=#000000;endArrow=blockThin;endFill=1;strokeColor=#000000;strokeWidth=1;" parent="60" source="419" target="423" edge="1">
                    <mxGeometry relative="1" as="geometry"/>
                </mxCell>
                <mxCell id="430" style="edgeStyle=orthogonalEdgeStyle;shape=connector;rounded=1;html=1;exitX=0.5;exitY=1;exitDx=0;exitDy=0;entryX=0.5;entryY=0;entryDx=0;entryDy=0;labelBackgroundColor=default;fontFamily=Helvetica;fontSize=16;fontColor=#000000;endArrow=blockThin;endFill=1;strokeColor=#000000;strokeWidth=1;" parent="60" source="419" target="425" edge="1">
                    <mxGeometry relative="1" as="geometry"/>
                </mxCell>
                <mxCell id="431" style="edgeStyle=orthogonalEdgeStyle;shape=connector;rounded=1;html=1;exitX=0.5;exitY=1;exitDx=0;exitDy=0;entryX=0.5;entryY=0;entryDx=0;entryDy=0;labelBackgroundColor=default;fontFamily=Helvetica;fontSize=16;fontColor=#000000;endArrow=blockThin;endFill=1;strokeColor=#000000;strokeWidth=1;" parent="60" source="419" target="427" edge="1">
                    <mxGeometry relative="1" as="geometry"/>
                </mxCell>
                <mxCell id="419" value="&lt;div style=&quot;font-size: 16px&quot;&gt;&lt;div style=&quot;font-size: 16px&quot;&gt;&lt;div style=&quot;font-size: 16px&quot;&gt;&lt;div style=&quot;font-size: 16px&quot;&gt;&lt;div style=&quot;font-size: 16px&quot;&gt;姬贵&lt;br&gt;&lt;/div&gt;&lt;/div&gt;&lt;/div&gt;&lt;/div&gt;&lt;div style=&quot;font-size: 16px&quot;&gt;&lt;/div&gt;&lt;/div&gt;" style="rounded=1;whiteSpace=wrap;html=1;fillColor=#E6E6E6;fontColor=#000000;fontSize=16;strokeColor=none;strokeWidth=2;" parent="60" vertex="1">
                    <mxGeometry x="307" y="2310" width="50" height="30" as="geometry"/>
                </mxCell>
                <mxCell id="420" value="&lt;div style=&quot;font-size: 14px&quot;&gt;&lt;div style=&quot;font-size: 14px&quot;&gt;&lt;div style=&quot;font-size: 14px&quot;&gt;&lt;div style=&quot;font-size: 14px&quot;&gt;&lt;div&gt;景王&lt;/div&gt;&lt;/div&gt;&lt;/div&gt;&lt;/div&gt;&lt;/div&gt;" style="text;html=1;align=center;verticalAlign=middle;resizable=0;points=[];autosize=1;strokeColor=none;fillColor=none;fontSize=14;fontColor=#000000;" parent="60" vertex="1">
                    <mxGeometry x="354" y="2315" width="40" height="20" as="geometry"/>
                </mxCell>
                <mxCell id="422" value="&lt;font color=&quot;#ffff00&quot;&gt;25&lt;/font&gt;" style="ellipse;whiteSpace=wrap;html=1;aspect=fixed;fontFamily=Helvetica;fontSize=10;fontColor=#ffffff;fillColor=#a20025;strokeColor=#6F0000;" parent="60" vertex="1">
                    <mxGeometry x="194" y="2385" width="19.5" height="19.5" as="geometry"/>
                </mxCell>
                <mxCell id="423" value="&lt;div style=&quot;font-size: 16px&quot;&gt;&lt;div style=&quot;font-size: 16px&quot;&gt;&lt;div style=&quot;font-size: 16px&quot;&gt;&lt;div style=&quot;font-size: 16px&quot;&gt;&lt;div style=&quot;font-size: 16px&quot;&gt;姬猛&lt;br&gt;&lt;/div&gt;&lt;/div&gt;&lt;/div&gt;&lt;/div&gt;&lt;div style=&quot;font-size: 16px&quot;&gt;&lt;/div&gt;&lt;/div&gt;" style="rounded=1;whiteSpace=wrap;html=1;fillColor=#E6E6E6;fontColor=#000000;fontSize=16;strokeColor=none;strokeWidth=2;" parent="60" vertex="1">
                    <mxGeometry x="214" y="2380" width="50" height="30" as="geometry"/>
                </mxCell>
                <mxCell id="424" value="&lt;div style=&quot;font-size: 14px&quot;&gt;&lt;div style=&quot;font-size: 14px&quot;&gt;&lt;div style=&quot;font-size: 14px&quot;&gt;&lt;div style=&quot;font-size: 14px&quot;&gt;&lt;div&gt;悼王&lt;/div&gt;&lt;/div&gt;&lt;/div&gt;&lt;/div&gt;&lt;/div&gt;" style="text;html=1;align=center;verticalAlign=middle;resizable=0;points=[];autosize=1;strokeColor=none;fillColor=none;fontSize=14;fontColor=#000000;" parent="60" vertex="1">
                    <mxGeometry x="261" y="2385" width="40" height="20" as="geometry"/>
                </mxCell>
                <mxCell id="425" value="&lt;div style=&quot;font-size: 16px&quot;&gt;&lt;div style=&quot;font-size: 16px&quot;&gt;&lt;div style=&quot;font-size: 16px&quot;&gt;&lt;div style=&quot;font-size: 16px&quot;&gt;&lt;div style=&quot;font-size: 16px&quot;&gt;姬朝&lt;br&gt;&lt;/div&gt;&lt;/div&gt;&lt;/div&gt;&lt;/div&gt;&lt;div style=&quot;font-size: 16px&quot;&gt;&lt;/div&gt;&lt;/div&gt;" style="rounded=1;whiteSpace=wrap;html=1;fillColor=#E6E6E6;fontColor=#000000;fontSize=16;strokeColor=none;strokeWidth=2;" parent="60" vertex="1">
                    <mxGeometry x="307" y="2380" width="50" height="30" as="geometry"/>
                </mxCell>
                <mxCell id="426" value="&lt;font color=&quot;#ffff00&quot;&gt;26&lt;/font&gt;" style="ellipse;whiteSpace=wrap;html=1;aspect=fixed;fontFamily=Helvetica;fontSize=10;fontColor=#ffffff;fillColor=#a20025;strokeColor=#6F0000;" parent="60" vertex="1">
                    <mxGeometry x="367" y="2385" width="19.5" height="19.5" as="geometry"/>
                </mxCell>
                <mxCell id="435" style="edgeStyle=orthogonalEdgeStyle;shape=connector;rounded=1;html=1;exitX=0.5;exitY=1;exitDx=0;exitDy=0;entryX=0.5;entryY=0;entryDx=0;entryDy=0;labelBackgroundColor=default;fontFamily=Helvetica;fontSize=16;fontColor=#000000;endArrow=blockThin;endFill=1;strokeColor=#000000;strokeWidth=1;" parent="60" source="427" target="433" edge="1">
                    <mxGeometry relative="1" as="geometry"/>
                </mxCell>
                <mxCell id="427" value="&lt;div style=&quot;font-size: 16px&quot;&gt;&lt;div style=&quot;font-size: 16px&quot;&gt;&lt;div style=&quot;font-size: 16px&quot;&gt;&lt;div style=&quot;font-size: 16px&quot;&gt;&lt;div style=&quot;font-size: 16px&quot;&gt;姬丐&lt;br&gt;&lt;/div&gt;&lt;/div&gt;&lt;/div&gt;&lt;/div&gt;&lt;div style=&quot;font-size: 16px&quot;&gt;&lt;/div&gt;&lt;/div&gt;" style="rounded=1;whiteSpace=wrap;html=1;fillColor=#E6E6E6;fontColor=#000000;fontSize=16;strokeColor=none;strokeWidth=2;" parent="60" vertex="1">
                    <mxGeometry x="387" y="2380" width="50" height="30" as="geometry"/>
                </mxCell>
                <mxCell id="428" value="&lt;div style=&quot;font-size: 14px&quot;&gt;&lt;div style=&quot;font-size: 14px&quot;&gt;&lt;div style=&quot;font-size: 14px&quot;&gt;&lt;div style=&quot;font-size: 14px&quot;&gt;&lt;div&gt;敬王&lt;/div&gt;&lt;/div&gt;&lt;/div&gt;&lt;/div&gt;&lt;/div&gt;" style="text;html=1;align=center;verticalAlign=middle;resizable=0;points=[];autosize=1;strokeColor=none;fillColor=none;fontSize=14;fontColor=#000000;" parent="60" vertex="1">
                    <mxGeometry x="434" y="2385" width="40" height="20" as="geometry"/>
                </mxCell>
                <mxCell id="432" value="&lt;font color=&quot;#ffff00&quot;&gt;27&lt;/font&gt;" style="ellipse;whiteSpace=wrap;html=1;aspect=fixed;fontFamily=Helvetica;fontSize=10;fontColor=#ffffff;fillColor=#a20025;strokeColor=#6F0000;" parent="60" vertex="1">
                    <mxGeometry x="367" y="2445" width="19.5" height="19.5" as="geometry"/>
                </mxCell>
                <mxCell id="439" style="edgeStyle=orthogonalEdgeStyle;shape=connector;rounded=1;html=1;exitX=0.5;exitY=1;exitDx=0;exitDy=0;entryX=0.5;entryY=0;entryDx=0;entryDy=0;labelBackgroundColor=default;fontFamily=Helvetica;fontSize=16;fontColor=#000000;endArrow=blockThin;endFill=1;strokeColor=#000000;strokeWidth=1;" parent="60" source="433" target="437" edge="1">
                    <mxGeometry relative="1" as="geometry"/>
                </mxCell>
                <mxCell id="433" value="&lt;div style=&quot;font-size: 16px&quot;&gt;&lt;div style=&quot;font-size: 16px&quot;&gt;&lt;div style=&quot;font-size: 16px&quot;&gt;&lt;div style=&quot;font-size: 16px&quot;&gt;&lt;div style=&quot;font-size: 16px&quot;&gt;姬仁&lt;br&gt;&lt;/div&gt;&lt;/div&gt;&lt;/div&gt;&lt;/div&gt;&lt;div style=&quot;font-size: 16px&quot;&gt;&lt;/div&gt;&lt;/div&gt;" style="rounded=1;whiteSpace=wrap;html=1;fillColor=#E6E6E6;fontColor=#000000;fontSize=16;strokeColor=none;strokeWidth=2;" parent="60" vertex="1">
                    <mxGeometry x="387" y="2440" width="50" height="30" as="geometry"/>
                </mxCell>
                <mxCell id="434" value="&lt;div style=&quot;font-size: 14px&quot;&gt;&lt;div style=&quot;font-size: 14px&quot;&gt;&lt;div style=&quot;font-size: 14px&quot;&gt;&lt;div style=&quot;font-size: 14px&quot;&gt;&lt;div&gt;元王&lt;/div&gt;&lt;/div&gt;&lt;/div&gt;&lt;/div&gt;&lt;/div&gt;" style="text;html=1;align=center;verticalAlign=middle;resizable=0;points=[];autosize=1;strokeColor=none;fillColor=none;fontSize=14;fontColor=#000000;" parent="60" vertex="1">
                    <mxGeometry x="434" y="2445" width="40" height="20" as="geometry"/>
                </mxCell>
                <mxCell id="436" value="&lt;font color=&quot;#ffff00&quot;&gt;28&lt;/font&gt;" style="ellipse;whiteSpace=wrap;html=1;aspect=fixed;fontFamily=Helvetica;fontSize=10;fontColor=#ffffff;fillColor=#a20025;strokeColor=#6F0000;" parent="60" vertex="1">
                    <mxGeometry x="367" y="2505" width="19.5" height="19.5" as="geometry"/>
                </mxCell>
                <mxCell id="449" style="edgeStyle=orthogonalEdgeStyle;shape=connector;rounded=1;html=1;exitX=0.5;exitY=1;exitDx=0;exitDy=0;entryX=0.5;entryY=0;entryDx=0;entryDy=0;labelBackgroundColor=default;fontFamily=Helvetica;fontSize=16;fontColor=#000000;endArrow=blockThin;endFill=1;strokeColor=#000000;strokeWidth=1;" parent="60" source="437" target="441" edge="1">
                    <mxGeometry relative="1" as="geometry"/>
                </mxCell>
                <mxCell id="450" style="edgeStyle=orthogonalEdgeStyle;shape=connector;rounded=1;html=1;exitX=0.5;exitY=1;exitDx=0;exitDy=0;entryX=0.5;entryY=0;entryDx=0;entryDy=0;labelBackgroundColor=default;fontFamily=Helvetica;fontSize=16;fontColor=#000000;endArrow=blockThin;endFill=1;strokeColor=#000000;strokeWidth=1;" parent="60" source="437" target="444" edge="1">
                    <mxGeometry relative="1" as="geometry"/>
                </mxCell>
                <mxCell id="451" style="edgeStyle=orthogonalEdgeStyle;shape=connector;rounded=1;html=1;exitX=0.5;exitY=1;exitDx=0;exitDy=0;entryX=0.5;entryY=0;entryDx=0;entryDy=0;labelBackgroundColor=default;fontFamily=Helvetica;fontSize=16;fontColor=#000000;endArrow=blockThin;endFill=1;strokeColor=#000000;strokeWidth=1;" parent="60" source="437" target="448" edge="1">
                    <mxGeometry relative="1" as="geometry"/>
                </mxCell>
                <mxCell id="458" style="edgeStyle=orthogonalEdgeStyle;shape=connector;rounded=1;html=1;exitX=0.5;exitY=1;exitDx=0;exitDy=0;entryX=0.5;entryY=0;entryDx=0;entryDy=0;labelBackgroundColor=default;fontFamily=Helvetica;fontSize=16;fontColor=#000000;endArrow=blockThin;endFill=1;strokeColor=#000000;strokeWidth=1;" parent="60" source="437" target="456" edge="1">
                    <mxGeometry relative="1" as="geometry"/>
                </mxCell>
                <mxCell id="437" value="&lt;div style=&quot;font-size: 16px&quot;&gt;&lt;div style=&quot;font-size: 16px&quot;&gt;&lt;div style=&quot;font-size: 16px&quot;&gt;&lt;div style=&quot;font-size: 16px&quot;&gt;&lt;div style=&quot;font-size: 16px&quot;&gt;姬介&lt;br&gt;&lt;/div&gt;&lt;/div&gt;&lt;/div&gt;&lt;/div&gt;&lt;div style=&quot;font-size: 16px&quot;&gt;&lt;/div&gt;&lt;/div&gt;" style="rounded=1;whiteSpace=wrap;html=1;fillColor=#E6E6E6;fontColor=#000000;fontSize=16;strokeColor=none;strokeWidth=2;" parent="60" vertex="1">
                    <mxGeometry x="387" y="2500" width="50" height="30" as="geometry"/>
                </mxCell>
                <mxCell id="438" value="&lt;div style=&quot;font-size: 14px&quot;&gt;&lt;div style=&quot;font-size: 14px&quot;&gt;&lt;div style=&quot;font-size: 14px&quot;&gt;&lt;div style=&quot;font-size: 14px&quot;&gt;&lt;div&gt;定王&lt;/div&gt;&lt;/div&gt;&lt;/div&gt;&lt;/div&gt;&lt;/div&gt;" style="text;html=1;align=center;verticalAlign=middle;resizable=0;points=[];autosize=1;strokeColor=none;fillColor=none;fontSize=14;fontColor=#000000;" parent="60" vertex="1">
                    <mxGeometry x="434" y="2505" width="40" height="20" as="geometry"/>
                </mxCell>
                <mxCell id="440" value="&lt;font color=&quot;#ffff00&quot;&gt;29&lt;/font&gt;" style="ellipse;whiteSpace=wrap;html=1;aspect=fixed;fontFamily=Helvetica;fontSize=10;fontColor=#ffffff;fillColor=#a20025;strokeColor=#6F0000;" parent="60" vertex="1">
                    <mxGeometry x="361" y="2575" width="19.5" height="19.5" as="geometry"/>
                </mxCell>
                <mxCell id="441" value="&lt;div style=&quot;font-size: 16px&quot;&gt;&lt;div style=&quot;font-size: 16px&quot;&gt;&lt;div style=&quot;font-size: 16px&quot;&gt;&lt;div style=&quot;font-size: 16px&quot;&gt;&lt;div style=&quot;font-size: 16px&quot;&gt;姬去疾&lt;br&gt;&lt;/div&gt;&lt;/div&gt;&lt;/div&gt;&lt;/div&gt;&lt;div style=&quot;font-size: 16px&quot;&gt;&lt;/div&gt;&lt;/div&gt;" style="rounded=1;whiteSpace=wrap;html=1;fillColor=#E6E6E6;fontColor=#000000;fontSize=16;strokeColor=none;strokeWidth=2;" parent="60" vertex="1">
                    <mxGeometry x="382" y="2570" width="60" height="30" as="geometry"/>
                </mxCell>
                <mxCell id="442" value="&lt;div style=&quot;font-size: 14px&quot;&gt;&lt;div style=&quot;font-size: 14px&quot;&gt;&lt;div style=&quot;font-size: 14px&quot;&gt;&lt;div style=&quot;font-size: 14px&quot;&gt;&lt;div&gt;哀王&lt;/div&gt;&lt;/div&gt;&lt;/div&gt;&lt;/div&gt;&lt;/div&gt;" style="text;html=1;align=center;verticalAlign=middle;resizable=0;points=[];autosize=1;strokeColor=none;fillColor=none;fontSize=14;fontColor=#000000;" parent="60" vertex="1">
                    <mxGeometry x="439" y="2575" width="40" height="20" as="geometry"/>
                </mxCell>
                <mxCell id="443" value="&lt;font color=&quot;#ffff00&quot;&gt;30&lt;/font&gt;" style="ellipse;whiteSpace=wrap;html=1;aspect=fixed;fontFamily=Helvetica;fontSize=10;fontColor=#ffffff;fillColor=#a20025;strokeColor=#6F0000;" parent="60" vertex="1">
                    <mxGeometry x="488" y="2575" width="19.5" height="19.5" as="geometry"/>
                </mxCell>
                <mxCell id="444" value="&lt;div style=&quot;font-size: 16px&quot;&gt;&lt;div style=&quot;font-size: 16px&quot;&gt;&lt;div style=&quot;font-size: 16px&quot;&gt;&lt;div style=&quot;font-size: 16px&quot;&gt;&lt;div style=&quot;font-size: 16px&quot;&gt;姬叔&lt;br&gt;&lt;/div&gt;&lt;/div&gt;&lt;/div&gt;&lt;/div&gt;&lt;div style=&quot;font-size: 16px&quot;&gt;&lt;/div&gt;&lt;/div&gt;" style="rounded=1;whiteSpace=wrap;html=1;fillColor=#E6E6E6;fontColor=#000000;fontSize=16;strokeColor=none;strokeWidth=2;" parent="60" vertex="1">
                    <mxGeometry x="508" y="2570" width="50" height="30" as="geometry"/>
                </mxCell>
                <mxCell id="445" value="&lt;div style=&quot;font-size: 14px&quot;&gt;&lt;div style=&quot;font-size: 14px&quot;&gt;&lt;div style=&quot;font-size: 14px&quot;&gt;&lt;div style=&quot;font-size: 14px&quot;&gt;&lt;div&gt;思王&lt;/div&gt;&lt;/div&gt;&lt;/div&gt;&lt;/div&gt;&lt;/div&gt;" style="text;html=1;align=center;verticalAlign=middle;resizable=0;points=[];autosize=1;strokeColor=none;fillColor=none;fontSize=14;fontColor=#000000;" parent="60" vertex="1">
                    <mxGeometry x="555" y="2575" width="40" height="20" as="geometry"/>
                </mxCell>
                <mxCell id="446" value="&lt;div style=&quot;font-size: 14px&quot;&gt;&lt;div style=&quot;font-size: 14px&quot;&gt;&lt;div style=&quot;font-size: 14px&quot;&gt;&lt;div style=&quot;font-size: 14px&quot;&gt;&lt;div&gt;考王&lt;/div&gt;&lt;/div&gt;&lt;/div&gt;&lt;/div&gt;&lt;/div&gt;" style="text;html=1;align=center;verticalAlign=middle;resizable=0;points=[];autosize=1;strokeColor=none;fillColor=none;fontSize=14;fontColor=#000000;" parent="60" vertex="1">
                    <mxGeometry x="674" y="2575" width="40" height="20" as="geometry"/>
                </mxCell>
                <mxCell id="447" value="&lt;font color=&quot;#ffff00&quot;&gt;31&lt;/font&gt;" style="ellipse;whiteSpace=wrap;html=1;aspect=fixed;fontFamily=Helvetica;fontSize=10;fontColor=#ffffff;fillColor=#a20025;strokeColor=#6F0000;" parent="60" vertex="1">
                    <mxGeometry x="607" y="2575" width="19.5" height="19.5" as="geometry"/>
                </mxCell>
                <mxCell id="455" style="edgeStyle=orthogonalEdgeStyle;shape=connector;rounded=1;html=1;exitX=0.5;exitY=1;exitDx=0;exitDy=0;labelBackgroundColor=default;fontFamily=Helvetica;fontSize=16;fontColor=#000000;endArrow=blockThin;endFill=1;strokeColor=#000000;strokeWidth=1;" parent="60" source="448" target="453" edge="1">
                    <mxGeometry relative="1" as="geometry"/>
                </mxCell>
                <mxCell id="448" value="&lt;div style=&quot;font-size: 16px&quot;&gt;&lt;div style=&quot;font-size: 16px&quot;&gt;&lt;div style=&quot;font-size: 16px&quot;&gt;&lt;div style=&quot;font-size: 16px&quot;&gt;&lt;div style=&quot;font-size: 16px&quot;&gt;姬嵬&lt;br&gt;&lt;/div&gt;&lt;/div&gt;&lt;/div&gt;&lt;/div&gt;&lt;div style=&quot;font-size: 16px&quot;&gt;&lt;/div&gt;&lt;/div&gt;" style="rounded=1;whiteSpace=wrap;html=1;fillColor=#E6E6E6;fontColor=#000000;fontSize=16;strokeColor=none;strokeWidth=2;" parent="60" vertex="1">
                    <mxGeometry x="627" y="2570" width="50" height="30" as="geometry"/>
                </mxCell>
                <mxCell id="452" value="&lt;font color=&quot;#ffff00&quot;&gt;32&lt;/font&gt;" style="ellipse;whiteSpace=wrap;html=1;aspect=fixed;fontFamily=Helvetica;fontSize=10;fontColor=#ffffff;fillColor=#a20025;strokeColor=#6F0000;" parent="60" vertex="1">
                    <mxGeometry x="607" y="2635" width="19.5" height="19.5" as="geometry"/>
                </mxCell>
                <mxCell id="474" style="edgeStyle=orthogonalEdgeStyle;shape=connector;rounded=1;html=1;exitX=0.5;exitY=1;exitDx=0;exitDy=0;entryX=0.5;entryY=0;entryDx=0;entryDy=0;labelBackgroundColor=default;fontFamily=Helvetica;fontSize=16;fontColor=#000000;endArrow=blockThin;endFill=1;strokeColor=#000000;strokeWidth=1;" parent="60" source="453" target="472" edge="1">
                    <mxGeometry relative="1" as="geometry"/>
                </mxCell>
                <mxCell id="453" value="&lt;div style=&quot;font-size: 16px&quot;&gt;&lt;div style=&quot;font-size: 16px&quot;&gt;&lt;div style=&quot;font-size: 16px&quot;&gt;&lt;div style=&quot;font-size: 16px&quot;&gt;&lt;div style=&quot;font-size: 16px&quot;&gt;姬午&lt;br&gt;&lt;/div&gt;&lt;/div&gt;&lt;/div&gt;&lt;/div&gt;&lt;div style=&quot;font-size: 16px&quot;&gt;&lt;/div&gt;&lt;/div&gt;" style="rounded=1;whiteSpace=wrap;html=1;fillColor=#E6E6E6;fontColor=#000000;fontSize=16;strokeColor=none;strokeWidth=2;" parent="60" vertex="1">
                    <mxGeometry x="627" y="2630" width="50" height="30" as="geometry"/>
                </mxCell>
                <mxCell id="454" value="&lt;div style=&quot;font-size: 14px&quot;&gt;&lt;div style=&quot;font-size: 14px&quot;&gt;&lt;div style=&quot;font-size: 14px&quot;&gt;&lt;div style=&quot;font-size: 14px&quot;&gt;&lt;div&gt;威烈王&lt;/div&gt;&lt;/div&gt;&lt;/div&gt;&lt;/div&gt;&lt;/div&gt;" style="text;html=1;align=center;verticalAlign=middle;resizable=0;points=[];autosize=1;strokeColor=none;fillColor=none;fontSize=14;fontColor=#000000;" parent="60" vertex="1">
                    <mxGeometry x="674" y="2635" width="60" height="20" as="geometry"/>
                </mxCell>
                <mxCell id="461" style="edgeStyle=orthogonalEdgeStyle;shape=connector;rounded=1;html=1;exitX=0.5;exitY=1;exitDx=0;exitDy=0;entryX=0.5;entryY=0;entryDx=0;entryDy=0;labelBackgroundColor=default;fontFamily=Helvetica;fontSize=16;fontColor=#000000;endArrow=blockThin;endFill=1;strokeColor=#000000;strokeWidth=1;" parent="60" source="456" target="459" edge="1">
                    <mxGeometry relative="1" as="geometry"/>
                </mxCell>
                <mxCell id="456" value="&lt;div style=&quot;font-size: 16px&quot;&gt;&lt;div style=&quot;font-size: 16px&quot;&gt;&lt;div style=&quot;font-size: 16px&quot;&gt;&lt;div style=&quot;font-size: 16px&quot;&gt;&lt;div style=&quot;font-size: 16px&quot;&gt;姬揭&lt;br&gt;&lt;/div&gt;&lt;/div&gt;&lt;/div&gt;&lt;/div&gt;&lt;div style=&quot;font-size: 16px&quot;&gt;&lt;/div&gt;&lt;/div&gt;" style="rounded=1;whiteSpace=wrap;html=1;fillColor=#E6E6E6;fontColor=#000000;fontSize=16;strokeColor=none;strokeWidth=2;" parent="60" vertex="1">
                    <mxGeometry x="900" y="2570" width="50" height="30" as="geometry"/>
                </mxCell>
                <mxCell id="457" value="&lt;div style=&quot;font-size: 14px&quot;&gt;&lt;div style=&quot;font-size: 14px&quot;&gt;&lt;div style=&quot;font-size: 14px&quot;&gt;&lt;div style=&quot;font-size: 14px&quot;&gt;&lt;div&gt;桓公&lt;/div&gt;&lt;/div&gt;&lt;/div&gt;&lt;/div&gt;&lt;/div&gt;" style="text;html=1;align=center;verticalAlign=middle;resizable=0;points=[];autosize=1;strokeColor=none;fillColor=none;fontSize=14;fontColor=#000000;" parent="60" vertex="1">
                    <mxGeometry x="947" y="2575" width="40" height="20" as="geometry"/>
                </mxCell>
                <mxCell id="464" style="edgeStyle=orthogonalEdgeStyle;shape=connector;rounded=1;html=1;exitX=0.5;exitY=1;exitDx=0;exitDy=0;entryX=0.5;entryY=0;entryDx=0;entryDy=0;labelBackgroundColor=default;fontFamily=Helvetica;fontSize=16;fontColor=#000000;endArrow=blockThin;endFill=1;strokeColor=#000000;strokeWidth=1;" parent="60" source="459" target="462" edge="1">
                    <mxGeometry relative="1" as="geometry"/>
                </mxCell>
                <mxCell id="459" value="&lt;div style=&quot;font-size: 16px&quot;&gt;&lt;div style=&quot;font-size: 16px&quot;&gt;&lt;div style=&quot;font-size: 16px&quot;&gt;&lt;div style=&quot;font-size: 16px&quot;&gt;&lt;div style=&quot;font-size: 16px&quot;&gt;？&lt;/div&gt;&lt;/div&gt;&lt;/div&gt;&lt;/div&gt;&lt;div style=&quot;font-size: 16px&quot;&gt;&lt;/div&gt;&lt;/div&gt;" style="rounded=1;whiteSpace=wrap;html=1;fillColor=#E6E6E6;fontColor=#000000;fontSize=16;strokeColor=none;strokeWidth=2;" parent="60" vertex="1">
                    <mxGeometry x="900" y="2630" width="50" height="30" as="geometry"/>
                </mxCell>
                <mxCell id="460" value="&lt;div style=&quot;font-size: 14px&quot;&gt;&lt;div style=&quot;font-size: 14px&quot;&gt;&lt;div style=&quot;font-size: 14px&quot;&gt;&lt;div style=&quot;font-size: 14px&quot;&gt;&lt;div&gt;威公&lt;/div&gt;&lt;/div&gt;&lt;/div&gt;&lt;/div&gt;&lt;/div&gt;" style="text;html=1;align=center;verticalAlign=middle;resizable=0;points=[];autosize=1;strokeColor=none;fillColor=none;fontSize=14;fontColor=#000000;" parent="60" vertex="1">
                    <mxGeometry x="947" y="2635" width="40" height="20" as="geometry"/>
                </mxCell>
                <mxCell id="467" style="edgeStyle=orthogonalEdgeStyle;shape=connector;rounded=1;html=1;exitX=0.5;exitY=1;exitDx=0;exitDy=0;entryX=0.5;entryY=0;entryDx=0;entryDy=0;labelBackgroundColor=default;fontFamily=Helvetica;fontSize=16;fontColor=#000000;endArrow=blockThin;endFill=1;strokeColor=#000000;strokeWidth=1;" parent="60" source="462" target="465" edge="1">
                    <mxGeometry relative="1" as="geometry"/>
                </mxCell>
                <mxCell id="470" style="edgeStyle=orthogonalEdgeStyle;shape=connector;rounded=1;html=1;exitX=0.5;exitY=1;exitDx=0;exitDy=0;entryX=0.5;entryY=0;entryDx=0;entryDy=0;labelBackgroundColor=default;fontFamily=Helvetica;fontSize=16;fontColor=#000000;endArrow=blockThin;endFill=1;strokeColor=#000000;strokeWidth=1;" parent="60" source="462" target="468" edge="1">
                    <mxGeometry relative="1" as="geometry"/>
                </mxCell>
                <mxCell id="462" value="&lt;div style=&quot;font-size: 16px&quot;&gt;&lt;div style=&quot;font-size: 16px&quot;&gt;&lt;div style=&quot;font-size: 16px&quot;&gt;&lt;div style=&quot;font-size: 16px&quot;&gt;&lt;div style=&quot;font-size: 16px&quot;&gt;？&lt;/div&gt;&lt;/div&gt;&lt;/div&gt;&lt;/div&gt;&lt;div style=&quot;font-size: 16px&quot;&gt;&lt;/div&gt;&lt;/div&gt;" style="rounded=1;whiteSpace=wrap;html=1;fillColor=#E6E6E6;fontColor=#000000;fontSize=16;strokeColor=none;strokeWidth=2;" parent="60" vertex="1">
                    <mxGeometry x="900" y="2690" width="50" height="30" as="geometry"/>
                </mxCell>
                <mxCell id="463" value="&lt;div style=&quot;font-size: 14px&quot;&gt;&lt;div style=&quot;font-size: 14px&quot;&gt;&lt;div style=&quot;font-size: 14px&quot;&gt;&lt;div style=&quot;font-size: 14px&quot;&gt;&lt;div&gt;惠公&lt;/div&gt;&lt;/div&gt;&lt;/div&gt;&lt;/div&gt;&lt;/div&gt;" style="text;html=1;align=center;verticalAlign=middle;resizable=0;points=[];autosize=1;strokeColor=none;fillColor=none;fontSize=14;fontColor=#000000;" parent="60" vertex="1">
                    <mxGeometry x="947" y="2695" width="40" height="20" as="geometry"/>
                </mxCell>
                <mxCell id="493" style="edgeStyle=orthogonalEdgeStyle;shape=connector;rounded=1;html=1;exitX=0.5;exitY=1;exitDx=0;exitDy=0;entryX=0.5;entryY=0;entryDx=0;entryDy=0;labelBackgroundColor=default;fontFamily=Helvetica;fontSize=16;fontColor=#000000;endArrow=blockThin;endFill=1;strokeColor=#000000;strokeWidth=1;" parent="60" source="465" target="491" edge="1">
                    <mxGeometry relative="1" as="geometry"/>
                </mxCell>
                <mxCell id="495" style="edgeStyle=orthogonalEdgeStyle;shape=connector;rounded=1;html=1;exitX=0.5;exitY=1;exitDx=0;exitDy=0;entryX=0.5;entryY=0;entryDx=0;entryDy=0;labelBackgroundColor=default;fontFamily=Helvetica;fontSize=16;fontColor=#000000;endArrow=blockThin;endFill=1;strokeColor=#000000;strokeWidth=1;" parent="60" source="465" target="494" edge="1">
                    <mxGeometry relative="1" as="geometry"/>
                </mxCell>
                <mxCell id="465" value="&lt;div style=&quot;font-size: 16px&quot;&gt;&lt;div style=&quot;font-size: 16px&quot;&gt;&lt;div style=&quot;font-size: 16px&quot;&gt;&lt;div style=&quot;font-size: 16px&quot;&gt;&lt;div style=&quot;font-size: 16px&quot;&gt;？&lt;/div&gt;&lt;/div&gt;&lt;/div&gt;&lt;/div&gt;&lt;div style=&quot;font-size: 16px&quot;&gt;&lt;/div&gt;&lt;/div&gt;" style="rounded=1;whiteSpace=wrap;html=1;fillColor=#E6E6E6;fontColor=#000000;fontSize=16;strokeColor=none;strokeWidth=2;" parent="60" vertex="1">
                    <mxGeometry x="900" y="2750" width="50" height="30" as="geometry"/>
                </mxCell>
                <mxCell id="466" value="&lt;div style=&quot;font-size: 14px&quot;&gt;&lt;div style=&quot;font-size: 14px&quot;&gt;&lt;div style=&quot;font-size: 14px&quot;&gt;&lt;div style=&quot;font-size: 14px&quot;&gt;&lt;div&gt;西周武公&lt;/div&gt;&lt;/div&gt;&lt;/div&gt;&lt;/div&gt;&lt;/div&gt;" style="text;html=1;align=center;verticalAlign=middle;resizable=0;points=[];autosize=1;strokeColor=none;fillColor=none;fontSize=14;fontColor=#000000;" parent="60" vertex="1">
                    <mxGeometry x="948" y="2755" width="70" height="20" as="geometry"/>
                </mxCell>
                <mxCell id="468" value="&lt;div style=&quot;font-size: 16px&quot;&gt;&lt;div style=&quot;font-size: 16px&quot;&gt;&lt;div style=&quot;font-size: 16px&quot;&gt;&lt;div style=&quot;font-size: 16px&quot;&gt;&lt;div style=&quot;font-size: 16px&quot;&gt;姬班&lt;/div&gt;&lt;/div&gt;&lt;/div&gt;&lt;/div&gt;&lt;div style=&quot;font-size: 16px&quot;&gt;&lt;/div&gt;&lt;/div&gt;" style="rounded=1;whiteSpace=wrap;html=1;fillColor=#E6E6E6;fontColor=#000000;fontSize=16;strokeColor=none;strokeWidth=2;" parent="60" vertex="1">
                    <mxGeometry x="1021" y="2750" width="50" height="30" as="geometry"/>
                </mxCell>
                <mxCell id="469" value="&lt;div style=&quot;font-size: 14px&quot;&gt;&lt;div style=&quot;font-size: 14px&quot;&gt;&lt;div style=&quot;font-size: 14px&quot;&gt;&lt;div style=&quot;font-size: 14px&quot;&gt;&lt;div&gt;东周惠公&lt;/div&gt;&lt;/div&gt;&lt;/div&gt;&lt;/div&gt;&lt;/div&gt;" style="text;html=1;align=center;verticalAlign=middle;resizable=0;points=[];autosize=1;strokeColor=none;fillColor=none;fontSize=14;fontColor=#000000;" parent="60" vertex="1">
                    <mxGeometry x="1068" y="2755" width="70" height="20" as="geometry"/>
                </mxCell>
                <mxCell id="471" value="&lt;font color=&quot;#ffff00&quot;&gt;33&lt;/font&gt;" style="ellipse;whiteSpace=wrap;html=1;aspect=fixed;fontFamily=Helvetica;fontSize=10;fontColor=#ffffff;fillColor=#a20025;strokeColor=#6F0000;" parent="60" vertex="1">
                    <mxGeometry x="607" y="2695" width="19.5" height="19.5" as="geometry"/>
                </mxCell>
                <mxCell id="478" style="edgeStyle=orthogonalEdgeStyle;shape=connector;rounded=1;html=1;exitX=0.5;exitY=1;exitDx=0;exitDy=0;entryX=0.5;entryY=0;entryDx=0;entryDy=0;labelBackgroundColor=default;fontFamily=Helvetica;fontSize=16;fontColor=#000000;endArrow=blockThin;endFill=1;strokeColor=#000000;strokeWidth=1;" parent="60" source="472" target="476" edge="1">
                    <mxGeometry relative="1" as="geometry"/>
                </mxCell>
                <mxCell id="482" style="edgeStyle=orthogonalEdgeStyle;shape=connector;rounded=1;html=1;exitX=0.5;exitY=1;exitDx=0;exitDy=0;entryX=0.5;entryY=0;entryDx=0;entryDy=0;labelBackgroundColor=default;fontFamily=Helvetica;fontSize=16;fontColor=#000000;endArrow=blockThin;endFill=1;strokeColor=#000000;strokeWidth=1;" parent="60" source="472" target="480" edge="1">
                    <mxGeometry relative="1" as="geometry"/>
                </mxCell>
                <mxCell id="472" value="&lt;div style=&quot;font-size: 16px&quot;&gt;&lt;div style=&quot;font-size: 16px&quot;&gt;&lt;div style=&quot;font-size: 16px&quot;&gt;&lt;div style=&quot;font-size: 16px&quot;&gt;&lt;div style=&quot;font-size: 16px&quot;&gt;姬骄&lt;br&gt;&lt;/div&gt;&lt;/div&gt;&lt;/div&gt;&lt;/div&gt;&lt;div style=&quot;font-size: 16px&quot;&gt;&lt;/div&gt;&lt;/div&gt;" style="rounded=1;whiteSpace=wrap;html=1;fillColor=#E6E6E6;fontColor=#000000;fontSize=16;strokeColor=none;strokeWidth=2;" parent="60" vertex="1">
                    <mxGeometry x="627" y="2690" width="50" height="30" as="geometry"/>
                </mxCell>
                <mxCell id="473" value="&lt;div style=&quot;font-size: 14px&quot;&gt;&lt;div style=&quot;font-size: 14px&quot;&gt;&lt;div style=&quot;font-size: 14px&quot;&gt;&lt;div style=&quot;font-size: 14px&quot;&gt;&lt;div&gt;安王&lt;/div&gt;&lt;/div&gt;&lt;/div&gt;&lt;/div&gt;&lt;/div&gt;" style="text;html=1;align=center;verticalAlign=middle;resizable=0;points=[];autosize=1;strokeColor=none;fillColor=none;fontSize=14;fontColor=#000000;" parent="60" vertex="1">
                    <mxGeometry x="675" y="2695" width="40" height="20" as="geometry"/>
                </mxCell>
                <mxCell id="475" value="&lt;font color=&quot;#ffff00&quot;&gt;34&lt;/font&gt;" style="ellipse;whiteSpace=wrap;html=1;aspect=fixed;fontFamily=Helvetica;fontSize=10;fontColor=#ffffff;fillColor=#a20025;strokeColor=#6F0000;" parent="60" vertex="1">
                    <mxGeometry x="607" y="2755" width="19.5" height="19.5" as="geometry"/>
                </mxCell>
                <mxCell id="476" value="&lt;div style=&quot;font-size: 16px&quot;&gt;&lt;div style=&quot;font-size: 16px&quot;&gt;&lt;div style=&quot;font-size: 16px&quot;&gt;&lt;div style=&quot;font-size: 16px&quot;&gt;&lt;div style=&quot;font-size: 16px&quot;&gt;姬喜&lt;br&gt;&lt;/div&gt;&lt;/div&gt;&lt;/div&gt;&lt;/div&gt;&lt;div style=&quot;font-size: 16px&quot;&gt;&lt;/div&gt;&lt;/div&gt;" style="rounded=1;whiteSpace=wrap;html=1;fillColor=#E6E6E6;fontColor=#000000;fontSize=16;strokeColor=none;strokeWidth=2;" parent="60" vertex="1">
                    <mxGeometry x="627" y="2750" width="50" height="30" as="geometry"/>
                </mxCell>
                <mxCell id="477" value="&lt;div style=&quot;font-size: 14px&quot;&gt;&lt;div style=&quot;font-size: 14px&quot;&gt;&lt;div style=&quot;font-size: 14px&quot;&gt;&lt;div style=&quot;font-size: 14px&quot;&gt;&lt;div&gt;烈王&lt;/div&gt;&lt;/div&gt;&lt;/div&gt;&lt;/div&gt;&lt;/div&gt;" style="text;html=1;align=center;verticalAlign=middle;resizable=0;points=[];autosize=1;strokeColor=none;fillColor=none;fontSize=14;fontColor=#000000;" parent="60" vertex="1">
                    <mxGeometry x="675" y="2755" width="40" height="20" as="geometry"/>
                </mxCell>
                <mxCell id="479" value="&lt;font color=&quot;#ffff00&quot;&gt;35&lt;/font&gt;" style="ellipse;whiteSpace=wrap;html=1;aspect=fixed;fontFamily=Helvetica;fontSize=10;fontColor=#ffffff;fillColor=#a20025;strokeColor=#6F0000;" parent="60" vertex="1">
                    <mxGeometry x="717" y="2755" width="19.5" height="19.5" as="geometry"/>
                </mxCell>
                <mxCell id="486" style="edgeStyle=orthogonalEdgeStyle;shape=connector;rounded=1;html=1;exitX=0.5;exitY=1;exitDx=0;exitDy=0;entryX=0.5;entryY=0;entryDx=0;entryDy=0;labelBackgroundColor=default;fontFamily=Helvetica;fontSize=16;fontColor=#000000;endArrow=blockThin;endFill=1;strokeColor=#000000;strokeWidth=1;" parent="60" source="480" target="484" edge="1">
                    <mxGeometry relative="1" as="geometry"/>
                </mxCell>
                <mxCell id="480" value="&lt;div style=&quot;font-size: 16px&quot;&gt;&lt;div style=&quot;font-size: 16px&quot;&gt;&lt;div style=&quot;font-size: 16px&quot;&gt;&lt;div style=&quot;font-size: 16px&quot;&gt;&lt;div style=&quot;font-size: 16px&quot;&gt;姬扁&lt;br&gt;&lt;/div&gt;&lt;/div&gt;&lt;/div&gt;&lt;/div&gt;&lt;div style=&quot;font-size: 16px&quot;&gt;&lt;/div&gt;&lt;/div&gt;" style="rounded=1;whiteSpace=wrap;html=1;fillColor=#E6E6E6;fontColor=#000000;fontSize=16;strokeColor=none;strokeWidth=2;" parent="60" vertex="1">
                    <mxGeometry x="737" y="2750" width="50" height="30" as="geometry"/>
                </mxCell>
                <mxCell id="481" value="&lt;div style=&quot;font-size: 14px&quot;&gt;&lt;div style=&quot;font-size: 14px&quot;&gt;&lt;div style=&quot;font-size: 14px&quot;&gt;&lt;div style=&quot;font-size: 14px&quot;&gt;&lt;div&gt;显王&lt;/div&gt;&lt;/div&gt;&lt;/div&gt;&lt;/div&gt;&lt;/div&gt;" style="text;html=1;align=center;verticalAlign=middle;resizable=0;points=[];autosize=1;strokeColor=none;fillColor=none;fontSize=14;fontColor=#000000;" parent="60" vertex="1">
                    <mxGeometry x="785" y="2755" width="40" height="20" as="geometry"/>
                </mxCell>
                <mxCell id="483" value="&lt;font color=&quot;#ffff00&quot;&gt;36&lt;/font&gt;" style="ellipse;whiteSpace=wrap;html=1;aspect=fixed;fontFamily=Helvetica;fontSize=10;fontColor=#ffffff;fillColor=#a20025;strokeColor=#6F0000;" parent="60" vertex="1">
                    <mxGeometry x="717" y="2815" width="19.5" height="19.5" as="geometry"/>
                </mxCell>
                <mxCell id="490" style="edgeStyle=orthogonalEdgeStyle;shape=connector;rounded=1;html=1;exitX=0.5;exitY=1;exitDx=0;exitDy=0;entryX=0.5;entryY=0;entryDx=0;entryDy=0;labelBackgroundColor=default;fontFamily=Helvetica;fontSize=16;fontColor=#000000;endArrow=blockThin;endFill=1;strokeColor=#000000;strokeWidth=1;" parent="60" source="484" target="488" edge="1">
                    <mxGeometry relative="1" as="geometry"/>
                </mxCell>
                <mxCell id="484" value="&lt;div style=&quot;font-size: 16px&quot;&gt;&lt;div style=&quot;font-size: 16px&quot;&gt;&lt;div style=&quot;font-size: 16px&quot;&gt;&lt;div style=&quot;font-size: 16px&quot;&gt;&lt;div style=&quot;font-size: 16px&quot;&gt;姬定&lt;br&gt;&lt;/div&gt;&lt;/div&gt;&lt;/div&gt;&lt;/div&gt;&lt;div style=&quot;font-size: 16px&quot;&gt;&lt;/div&gt;&lt;/div&gt;" style="rounded=1;whiteSpace=wrap;html=1;fillColor=#E6E6E6;fontColor=#000000;fontSize=16;strokeColor=none;strokeWidth=2;" parent="60" vertex="1">
                    <mxGeometry x="737" y="2810" width="50" height="30" as="geometry"/>
                </mxCell>
                <mxCell id="485" value="&lt;div style=&quot;font-size: 14px&quot;&gt;&lt;div style=&quot;font-size: 14px&quot;&gt;&lt;div style=&quot;font-size: 14px&quot;&gt;&lt;div style=&quot;font-size: 14px&quot;&gt;&lt;div&gt;慎靓王&lt;/div&gt;&lt;/div&gt;&lt;/div&gt;&lt;/div&gt;&lt;/div&gt;" style="text;html=1;align=center;verticalAlign=middle;resizable=0;points=[];autosize=1;strokeColor=none;fillColor=none;fontSize=14;fontColor=#000000;" parent="60" vertex="1">
                    <mxGeometry x="783" y="2815" width="60" height="20" as="geometry"/>
                </mxCell>
                <mxCell id="487" value="&lt;font color=&quot;#ffff00&quot;&gt;37&lt;/font&gt;" style="ellipse;whiteSpace=wrap;html=1;aspect=fixed;fontFamily=Helvetica;fontSize=10;fontColor=#ffffff;fillColor=#a20025;strokeColor=#6F0000;" parent="60" vertex="1">
                    <mxGeometry x="717" y="2875" width="19.5" height="19.5" as="geometry"/>
                </mxCell>
                <mxCell id="488" value="&lt;div style=&quot;font-size: 16px&quot;&gt;&lt;div style=&quot;font-size: 16px&quot;&gt;&lt;div style=&quot;font-size: 16px&quot;&gt;&lt;div style=&quot;font-size: 16px&quot;&gt;&lt;div style=&quot;font-size: 16px&quot;&gt;姬延&lt;br&gt;&lt;/div&gt;&lt;/div&gt;&lt;/div&gt;&lt;/div&gt;&lt;div style=&quot;font-size: 16px&quot;&gt;&lt;/div&gt;&lt;/div&gt;" style="rounded=1;whiteSpace=wrap;html=1;fillColor=#E6E6E6;fontColor=#000000;fontSize=16;strokeColor=none;strokeWidth=2;" parent="60" vertex="1">
                    <mxGeometry x="737" y="2870" width="50" height="30" as="geometry"/>
                </mxCell>
                <mxCell id="489" value="&lt;div style=&quot;font-size: 14px&quot;&gt;&lt;div style=&quot;font-size: 14px&quot;&gt;&lt;div style=&quot;font-size: 14px&quot;&gt;&lt;div style=&quot;font-size: 14px&quot;&gt;&lt;div&gt;赧王&lt;/div&gt;&lt;/div&gt;&lt;/div&gt;&lt;/div&gt;&lt;/div&gt;" style="text;html=1;align=center;verticalAlign=middle;resizable=0;points=[];autosize=1;strokeColor=none;fillColor=none;fontSize=14;fontColor=#000000;" parent="60" vertex="1">
                    <mxGeometry x="785" y="2875" width="40" height="20" as="geometry"/>
                </mxCell>
                <mxCell id="491" value="&lt;div style=&quot;font-size: 16px&quot;&gt;&lt;div style=&quot;font-size: 16px&quot;&gt;&lt;div style=&quot;font-size: 16px&quot;&gt;&lt;div style=&quot;font-size: 16px&quot;&gt;&lt;div style=&quot;font-size: 16px&quot;&gt;？&lt;/div&gt;&lt;/div&gt;&lt;/div&gt;&lt;/div&gt;&lt;div style=&quot;font-size: 16px&quot;&gt;&lt;/div&gt;&lt;/div&gt;" style="rounded=1;whiteSpace=wrap;html=1;fillColor=#E6E6E6;fontColor=#000000;fontSize=16;strokeColor=none;strokeWidth=2;" parent="60" vertex="1">
                    <mxGeometry x="900" y="2810" width="50" height="30" as="geometry"/>
                </mxCell>
                <mxCell id="492" value="&lt;div style=&quot;font-size: 14px&quot;&gt;&lt;div style=&quot;font-size: 14px&quot;&gt;&lt;div style=&quot;font-size: 14px&quot;&gt;&lt;div style=&quot;font-size: 14px&quot;&gt;&lt;div&gt;共太子&lt;/div&gt;&lt;/div&gt;&lt;/div&gt;&lt;/div&gt;&lt;/div&gt;" style="text;html=1;align=center;verticalAlign=middle;resizable=0;points=[];autosize=1;strokeColor=none;fillColor=none;fontSize=14;fontColor=#000000;" parent="60" vertex="1">
                    <mxGeometry x="947" y="2815" width="60" height="20" as="geometry"/>
                </mxCell>
                <mxCell id="494" value="&lt;div style=&quot;font-size: 16px&quot;&gt;&lt;div style=&quot;font-size: 16px&quot;&gt;&lt;div style=&quot;font-size: 16px&quot;&gt;&lt;div style=&quot;font-size: 16px&quot;&gt;&lt;div style=&quot;font-size: 16px&quot;&gt;姬咎&lt;/div&gt;&lt;/div&gt;&lt;/div&gt;&lt;/div&gt;&lt;div style=&quot;font-size: 16px&quot;&gt;&lt;/div&gt;&lt;/div&gt;" style="rounded=1;whiteSpace=wrap;html=1;fillColor=#E6E6E6;fontColor=#000000;fontSize=16;strokeColor=none;strokeWidth=2;" parent="60" vertex="1">
                    <mxGeometry x="1007" y="2810" width="50" height="30" as="geometry"/>
                </mxCell>
                <mxCell id="501" style="edgeStyle=orthogonalEdgeStyle;shape=connector;rounded=1;html=1;exitX=0.5;exitY=1;exitDx=0;exitDy=0;entryX=0.5;entryY=0;entryDx=0;entryDy=0;labelBackgroundColor=default;fontFamily=Helvetica;fontSize=16;fontColor=#000000;endArrow=blockThin;endFill=1;strokeColor=#000000;strokeWidth=1;" parent="60" source="496" target="500" edge="1">
                    <mxGeometry relative="1" as="geometry"/>
                </mxCell>
                <mxCell id="496" value="&lt;div style=&quot;font-size: 16px&quot;&gt;&lt;div style=&quot;font-size: 16px&quot;&gt;&lt;div style=&quot;font-size: 16px&quot;&gt;&lt;div style=&quot;font-size: 16px&quot;&gt;&lt;div style=&quot;font-size: 16px&quot;&gt;姬虞&lt;br&gt;&lt;/div&gt;&lt;/div&gt;&lt;/div&gt;&lt;/div&gt;&lt;div style=&quot;font-size: 16px&quot;&gt;&lt;/div&gt;&lt;/div&gt;" style="rounded=1;whiteSpace=wrap;html=1;fillColor=#E6E6E6;fontColor=#000000;fontSize=16;strokeColor=none;strokeWidth=2;" parent="60" vertex="1">
                    <mxGeometry x="373" y="1030" width="50" height="30" as="geometry"/>
                </mxCell>
                <mxCell id="497" value="&lt;div style=&quot;font-size: 14px&quot;&gt;&lt;div style=&quot;font-size: 14px&quot;&gt;&lt;div style=&quot;font-size: 14px&quot;&gt;&lt;div style=&quot;font-size: 14px&quot;&gt;&lt;div&gt;唐叔&lt;/div&gt;&lt;/div&gt;&lt;/div&gt;&lt;/div&gt;&lt;/div&gt;" style="text;html=1;align=center;verticalAlign=middle;resizable=0;points=[];autosize=1;strokeColor=none;fillColor=none;fontSize=14;fontColor=#000000;" parent="60" vertex="1">
                    <mxGeometry x="420" y="1035" width="40" height="20" as="geometry"/>
                </mxCell>
                <mxCell id="499" value="&lt;div style=&quot;font-size: 14px&quot;&gt;&lt;div style=&quot;font-size: 14px&quot;&gt;&lt;div style=&quot;font-size: 14px&quot;&gt;&lt;div style=&quot;font-size: 14px&quot;&gt;&lt;div&gt;邑姜&lt;/div&gt;&lt;/div&gt;&lt;/div&gt;&lt;/div&gt;&lt;/div&gt;" style="text;html=1;align=center;verticalAlign=middle;resizable=0;points=[];autosize=1;strokeColor=none;fillColor=none;fontSize=14;fontColor=#000000;" parent="60" vertex="1">
                    <mxGeometry x="397" y="1006.75" width="40" height="20" as="geometry"/>
                </mxCell>
                <mxCell id="500" value="&lt;div style=&quot;font-size: 16px&quot;&gt;&lt;div style=&quot;font-size: 16px&quot;&gt;&lt;div style=&quot;font-size: 16px&quot;&gt;&lt;div style=&quot;font-size: 16px&quot;&gt;【晋世系】&lt;/div&gt;&lt;/div&gt;&lt;/div&gt;&lt;/div&gt;" style="rounded=1;whiteSpace=wrap;html=1;fillColor=#FFFF00;fontColor=#000000;fontSize=16;strokeColor=none;strokeWidth=2;" parent="60" vertex="1">
                    <mxGeometry x="354" y="1090" width="87" height="30" as="geometry"/>
                </mxCell>
                <mxCell id="506" style="edgeStyle=orthogonalEdgeStyle;shape=connector;rounded=1;html=1;exitX=0.5;exitY=1;exitDx=0;exitDy=0;entryX=0.5;entryY=0;entryDx=0;entryDy=0;labelBackgroundColor=default;fontFamily=Helvetica;fontSize=16;fontColor=#000000;endArrow=blockThin;endFill=1;strokeColor=#000000;strokeWidth=1;" parent="60" source="502" target="505" edge="1">
                    <mxGeometry relative="1" as="geometry"/>
                </mxCell>
                <mxCell id="502" value="&lt;div style=&quot;font-size: 16px&quot;&gt;&lt;div style=&quot;font-size: 16px&quot;&gt;&lt;div style=&quot;font-size: 16px&quot;&gt;&lt;div style=&quot;font-size: 16px&quot;&gt;&lt;div style=&quot;font-size: 16px&quot;&gt;姬友&lt;br&gt;&lt;/div&gt;&lt;/div&gt;&lt;/div&gt;&lt;/div&gt;&lt;div style=&quot;font-size: 16px&quot;&gt;&lt;/div&gt;&lt;/div&gt;" style="rounded=1;whiteSpace=wrap;html=1;fillColor=#E6E6E6;fontColor=#000000;fontSize=16;strokeColor=none;strokeWidth=2;" parent="60" vertex="1">
                    <mxGeometry x="379" y="1510" width="50" height="30" as="geometry"/>
                </mxCell>
                <mxCell id="505" value="&lt;div style=&quot;font-size: 16px&quot;&gt;&lt;div style=&quot;font-size: 16px&quot;&gt;&lt;div style=&quot;font-size: 16px&quot;&gt;&lt;div style=&quot;font-size: 16px&quot;&gt;【郑世系】&lt;/div&gt;&lt;/div&gt;&lt;/div&gt;&lt;/div&gt;" style="rounded=1;whiteSpace=wrap;html=1;fillColor=#FFFF00;fontColor=#000000;fontSize=16;strokeColor=none;strokeWidth=2;" parent="60" vertex="1">
                    <mxGeometry x="362" y="1569.75" width="85" height="30" as="geometry"/>
                </mxCell>
                <mxCell id="507" value="&lt;div style=&quot;font-size: 16px&quot;&gt;&lt;div style=&quot;font-size: 16px&quot;&gt;&lt;div style=&quot;font-size: 16px&quot;&gt;&lt;div style=&quot;font-size: 16px&quot;&gt;【曹世系】&lt;/div&gt;&lt;/div&gt;&lt;/div&gt;&lt;/div&gt;" style="rounded=1;whiteSpace=wrap;html=1;fillColor=#FFFF00;fontColor=#000000;fontSize=16;strokeColor=none;strokeWidth=2;" vertex="1" parent="60">
                    <mxGeometry x="598" y="1070" width="88" height="30" as="geometry"/>
                </mxCell>
            </root>
        </mxGraphModel>
    </diagram>
</mxfile>